<?xml version="1.0" standalone="no"?>
<!DOCTYPE svg PUBLIC "-//W3C//DTD SVG 1.1//EN" "http://www.w3.org/Graphics/SVG/1.1/DTD/svg11.dtd" >
<svg xmlns="http://www.w3.org/2000/svg" xmlns:xlink="http://www.w3.org/1999/xlink" version="1.1">
<metadata>
Created by FontForge 20170731 at Wed May  3 06:57:29 2017
 By Aleksey,,,
</metadata>
<defs>
<font id="SVN-Carington" horiz-adv-x="874" >
  <font-face 
    font-family="SVN-Carington"
    font-weight="400"
    font-stretch="normal"
    units-per-em="2048"
    panose-1="2 4 6 3 5 5 6 2 2 4"
    ascent="1638"
    descent="-410"
    x-height="920"
    cap-height="1431"
    bbox="-542 -668 2408.33 2284"
    underline-thickness="109"
    underline-position="-359"
    unicode-range="U+0020-2122"
  />
<missing-glyph horiz-adv-x="596" 
 />
    <glyph glyph-name=".notdef" horiz-adv-x="596" 
 />
    <glyph glyph-name=".null" horiz-adv-x="0" 
 />
    <glyph glyph-name="nonmarkingreturn" horiz-adv-x="571" 
 />
    <glyph glyph-name="space" unicode=" " horiz-adv-x="596" 
 />
    <glyph glyph-name="exclam" unicode="!" horiz-adv-x="717" 
d="M719 1276q0 -102 -111 -317q-189 -367 -290 -610q-12 -29 -43 -29q-34 0 -34 36q0 12 5 25q50 133 120.5 432.5t107.5 399.5q68 178 150 178q95 0 95 -115zM282 155q0 -70 -30 -121q-34 -58 -91 -58q-34 0 -57 29t-23 65q0 67 37 120.5t87 53.5q77 0 77 -89z" />
    <glyph glyph-name="quotedbl" unicode="&#x22;" horiz-adv-x="491" 
d="M483 1299q0 -59 -32 -133q-12 -25 -74 -139q-4 -8 -11 -6q-6 2 -8 12q-19 129 -19 175q0 185 92 176q52 -4 52 -85zM326 1299q0 -59 -32 -133q-12 -25 -74 -139q-4 -8 -11 -6q-6 2 -8 12q-19 129 -19 175q0 185 93 176q51 -4 51 -85z" />
    <glyph glyph-name="numbersign" unicode="#" horiz-adv-x="699" 
d="M751 1079l-32 -99h-153l-24 -92h179l-31 -99h-174l-85 -326l-101 2l85 324h-117l-86 -326l-100 2l85 324h-148l32 99h141l24 92h-166l32 99h161l83 310h101l-82 -310h116l83 310h101l-81 -310h157zM465 980h-116l-25 -92h117z" />
    <glyph glyph-name="dollar" unicode="$" horiz-adv-x="936" 
d="M961 1378q0 -59 -51 -59q-10 0 -23 14t-21 14q-60 0 -121 -83q106 -19 163 -88q47 -60 47 -143q0 -59 -28 -106q-31 -53 -89 -53q-53 0 -92 36t-39 87q0 26 19 47t45 21q12 0 28 -12t27 -12q20 0 20 36q0 43 -45.5 67t-101.5 24h-7q-42 -91 -161 -474q81 -203 81 -317
q0 -153 -105 -265t-257 -112q-81 0 -147 44q-71 45 -71 119q0 38 24 66.5t59 28.5q26 0 43 -20t29 -20q122 0 232 307q-47 93 -95 186q-53 112 -53 214q0 148 129 249q123 96 281 94q90 171 197 171q30 0 56.5 -16.5t26.5 -44.5zM630 1158q-69 -22 -115 -73.5t-46 -115.5
q0 -89 32 -194q41 135 129 383zM457 354q0 42 -10 85q-117 -316 -244 -316q-28 0 -46 12q-8 4 -10 2q-4 -2 0 -8q8 -16 38.5 -31t56.5 -15q96 0 158 86q57 79 57 185z" />
    <glyph glyph-name="percent" unicode="%" horiz-adv-x="1319" 
d="M1311 566q0 -179 -99 -331q-113 -176 -283 -176q-78 0 -134 72t-56 161q0 178 138.5 339t278.5 161q68 0 111.5 -71t43.5 -155zM1156 1184q0 -195 -254 -420q-235 -188 -469 -377q-255 -224 -255 -417q0 -31 19 -57t47 -26q29 0 50.5 56.5t50.5 56.5q34 0 56 -28.5
t22 -66.5q0 -52 -40 -88.5t-91 -36.5q-85 0 -144 68.5t-59 157.5q0 250 249 475q230 179 460 355q249 205 249 406q0 13 -6 11q-4 -4 -6 -11q-17 -150 -152.5 -263t-300.5 -111q-46 -129 -129 -210q-95 -92 -214 -92q-80 0 -135.5 71.5t-55.5 160.5q0 180 138 340.5
t279 160.5q68 0 111.5 -71.5t43.5 -154.5q0 -19 -4 -57q65 -27 93 -27q64 0 157 95.5t86 179.5q-2 31 -18 48t-16 37q0 57 95 57q143 0 143 -222zM1198 614q0 89 -53 89q-84 0 -173.5 -147t-89.5 -270q0 -42 18 -77.5t48 -35.5q61 0 155.5 155t94.5 286zM506 1120
q0 90 -53 90q-83 0 -172.5 -147t-89.5 -271q0 -41 17.5 -77t47.5 -36q38 0 94.5 67t98.5 158q-38 32 -38 74q0 63 88 67q7 51 7 75z" />
    <glyph glyph-name="ampersand" unicode="&#x26;" horiz-adv-x="1549" 
d="M1621 620q0 -197 -302 -199q-58 0 -155 20q22 -111 20 -143q-10 -149 -143 -234q-121 -80 -290 -80q-175 0 -302 86q-143 93 -143 244q0 135 155 247q125 87 238 102q-73 52 -111 99q-228 -39 -338 -104q-140 -84 -140 -235q0 -18 9 -38q42 44 99 28q64 -17 57 -97
q-9 -81 -104 -81q-63 0 -107 55q-40 49 -45 119q-9 185 146 304q121 93 369 159q-13 68 -1 137q33 201 234 312q177 97 421 97q143 0 238 -51q115 -61 115 -183q0 -202 -244 -294q-131 -50 -524 -101q36 -27 82 -27q23 0 60 16t59 16q23 0 45 -20.5t22 -42.5
q0 -50 -131 -105q-199 -86 -243 -116q-131 -85 -131 -204q0 -80 70 -133q63 -52 153 -58q92 -5 185 48t93 125q0 24 -12 46q-45 87 -100 83q-77 -6 -83 -68q76 -6 76 -87q0 -40 -35 -63.5t-81 -23.5q-51 0 -82.5 43.5t-31.5 103.5q0 121 101 203q97 74 229 74q61 0 162 -19
t179 -19q119 0 119 47q-24 2 -46 28.5t-18 55.5q12 93 100 87q54 -4 80.5 -51t26.5 -108zM1422 1208q0 53 -73 85q-62 26 -141 26q-190 0 -340 -113q-157 -122 -157 -288v-6q436 91 489 107q222 69 222 189z" />
    <glyph glyph-name="quotesingle" unicode="'" horiz-adv-x="320" 
d="M326 1299q0 -59 -32 -133q-12 -25 -74 -139q-4 -8 -11 -6q-6 2 -8 12q-19 129 -19 175q0 185 93 176q51 -4 51 -85z" />
    <glyph glyph-name="parenleft" unicode="(" horiz-adv-x="654" 
d="M955 1490l-193 -103q-228 -121 -360 -304q-193 -264 -193 -660q0 -173 43 -313q30 -94 82 -186q43 -73 43 -83q0 -16 -13 -16q-40 0 -118 82q-89 97 -149 240q-73 181 -73 393q0 277 156 512q140 207 362 337q207 118 392 118q21 0 21 -17z" />
    <glyph glyph-name="parenright" unicode=")" horiz-adv-x="735" 
d="M695 804q0 -275 -157 -512q-138 -207 -361 -336q-207 -119 -391 -119q-23 0 -23 17l193 104q228 122 362 304q192 265 192 659q0 173 -43 315q-30 93 -82 184q-44 74 -44 83q0 17 15 17q40 0 116 -81q91 -98 150 -241q73 -180 73 -394z" />
    <glyph glyph-name="asterisk" unicode="*" horiz-adv-x="533" 
d="M630 1190q1 -62 -64 -89q-8 0 -16 2l-8 2q-11 2 -70 2q-33 0 -57 -4q8 -26 36 -56l38 -40q2 0 13 -10q-7 -19 -15 -36q-20 -38 -40 -49q-32 -18 -53 -18q-28 0 -36 24q-2 18 0 24v123q-42 -46 -94 -147q-23 -18 -52 -18q-19 0 -37 12q-26 17 -26 45q0 25 18 50
q83 42 151 100h-66q-61 0 -95 -4q-26 17 -26 47q0 16 8 34q26 58 92 61l13 -17q46 -44 105 -66q7 89 -4 147q40 62 92 60q50 -2 56 -56q-66 -96 -84 -157q95 44 156 89q63 8 65 -55z" />
    <glyph glyph-name="plus" unicode="+" horiz-adv-x="429" 
d="M443 662l-32 -99h-135l-58 -225h-103l58 225h-139l32 99h133l51 204h104l-52 -204h141z" />
    <glyph glyph-name="comma" unicode="," horiz-adv-x="449" 
d="M330 155q0 -60 -28 -131q-42 -107 -133 -179q-10 -8 -22 -8q-28 0 -28 28q0 16 14 27q34 28 70 86q-34 -2 -54 26t-20 66q0 67 37 120.5t86 53.5q78 0 78 -89z" />
    <glyph glyph-name="hyphen" unicode="-" horiz-adv-x="453" 
d="M443 662l-32 -99h-377l32 99h377z" />
    <glyph glyph-name="period" unicode="." horiz-adv-x="449" 
d="M330 155q0 -70 -30 -121q-34 -58 -91 -58q-34 0 -57 29t-23 65q0 67 37 120.5t86 53.5q78 0 78 -89z" />
    <glyph glyph-name="slash" unicode="/" horiz-adv-x="1122" 
d="M1145 1335l-1039 -1379l-80 56l1039 1381z" />
    <glyph glyph-name="zero" unicode="0" horiz-adv-x="1217" 
d="M1291 986q0 -245 -146 -487q-136 -221 -343.5 -364t-388.5 -143q-153 0 -254 141q-95 131 -95 304q0 234 152 473q140 216 351.5 360t386.5 144q140 0 238.5 -132t98.5 -296zM1061 1081q0 99 -16 143q-22 63 -84 63q-226 0 -455 -333q-216 -319 -216 -592
q0 -259 115 -259q114 0 271.5 144t263.5 357q121 240 121 477z" />
    <glyph glyph-name="one" unicode="1" horiz-adv-x="692" 
d="M925 1323q0 -10 -51 -57q-68 -62 -121 -161q-80 -153 -137 -406q-48 -214 -167 -473q-113 -248 -155 -248q-40 0 -43 39.5t-56 39.5q-40 0 -115.5 -60.5t-93.5 -60.5t-26 36q290 362 444 735q202 495 387 590q11 6 5 11q-5 3 -17 0q-76 -31 -185 -150q-95 -106 -145 -106
q-91 0 -91 110q0 6 40 14q61 10 138 75q88 74 135 100q72 40 152 40q102 0 102 -68z" />
    <glyph glyph-name="two" unicode="2" horiz-adv-x="1025" 
d="M1134 1057q0 -270 -248 -407q-40 -22 -475 -169q-264 -90 -288 -239q-10 -65 -4 -87q2 -8 10 -6q6 2 6 10q2 105 56 165q63 72 182 72q78 0 141 -66q52 -62 104 -123q63 -66 142 -66q17 0 57 22q-58 19 -48 78t86 59q29 0 48.5 -22t19.5 -52q0 -97 -79.5 -163.5
t-181.5 -66.5q-92 0 -210 103.5t-200 103.5q-38 0 -38 -54q0 -16 10.5 -42.5t10.5 -60.5q0 -60 -86 -60q-143 0 -143 151q0 282 233 435q214 101 428 203q233 115 233 306q0 81 -49 149q-60 78 -152 78q-105 0 -183 -59q-87 -65 -87 -178q0 -46 38 -46q12 0 33 16t34 16
q48 0 48 -96q0 -91 -123 -91q-155 0 -155 199q0 155 141 252q133 93 312 85q164 -7 270.5 -108.5t106.5 -240.5z" />
    <glyph glyph-name="three" unicode="3" horiz-adv-x="1039" 
d="M1134 1130q0 -121 -163 -180l-308 -84q-170 -55 -178 -165q-2 -22 1 -30.5t7 -7.5q6 2 6 10q5 98 91 144q70 38 157 27q108 -12 180 -101t72 -201q0 -246 -224 -403q-207 -141 -483 -141q-112 0 -191 44q-101 53 -101 155q0 44 26.5 78t70.5 41q40 6 74 -18.5t34 -60.5
q0 -57 -36 -84q32 -52 119 -52q189 0 337 146.5t148 318.5q0 56 -36 108.5t-81 42.5q-60 -12 -75.5 -90.5t-78.5 -78.5q-45 0 -82 44.5t-37 102.5q0 90 80 160q47 41 176.5 94.5t177.5 91.5q83 64 83 165q0 39 -51 69.5t-108 30.5q-264 0 -314 -195q28 32 72 15
q41 -15 35 -81q-1 -32 -33 -55t-70 -23q-58 0 -97.5 51t-29.5 108q20 121 155 201q127 74 286 74q151 0 264 -70q125 -76 125 -201z" />
    <glyph glyph-name="four" unicode="4" horiz-adv-x="1061" 
d="M1141 1339q0 -10 -42 -62q-58 -65 -104 -168q-72 -157 -129 -410q-18 -75 -62 -212q49 -22 82 -22q56 0 56 28q0 19 -19 32t-19 43q0 26 22 42t52 12q69 -10 63 -95q-8 -140 -186 -140q-44 0 -84 7q-66 -168 -133.5 -292t-93.5 -124q-40 0 -42.5 39.5t-56.5 39.5
q-40 0 -115.5 -60.5t-92.5 -60.5t-27 36q167 206 326 493q-89 28 -166 28q-76 0 -137 -44q-40 -30 -106 -104q-95 0 -95 163q0 218 177 436q159 199 398 330.5t430 131.5q104 0 104 -67zM1005 1313q20 10 -12 10q-115 0 -314 -111q-224 -126 -372 -302q-180 -216 -180 -447
q139 174 354 157q55 -4 118 -32q27 51 55 119q115 280 169 383q93 178 182 223z" />
    <glyph glyph-name="five" unicode="5" horiz-adv-x="1120" 
d="M1202 1359q4 -108 -57 -169q-68 -70 -201 -66q-58 2 -143.5 46.5t-142.5 44.5q-93 0 -131 -79l-191 -397q-4 -10 2 -13q7 -5 13 5q140 280 404 280q103 0 174.5 -89.5t71.5 -242.5q0 -25 -2 -53q-23 -275 -252 -457q-214 -171 -483 -171q-111 0 -190 44q-102 53 -102 155
q0 44 27 78t71 41q40 6 73.5 -18.5t33.5 -60.5q0 -57 -36 -84q32 -52 119 -52q181 0 332 191q139 175 153 362q6 63 6 89q0 125 -88 125q-85 0 -164 -79q-66 -63 -108 -158q-21 -47 -79 -47q-41 0 -79 26.5t-38 60.5q0 13 6 24l235 485q21 48 25 103q-2 -32 -2 108
q0 31 47 31q17 0 29.5 -29.5t12.5 -55.5q0 -12 -2 -18q74 80 163 80q58 0 140.5 -45.5t137.5 -45.5q120 0 120 31q0 8 -20 22.5t-18 43.5q4 55 65 55q64 0 68 -101z" />
    <glyph glyph-name="six" unicode="6" horiz-adv-x="1160" 
d="M1176 1259q0 -53 -33.5 -92t-85.5 -39q-36 0 -64 24t-28 60q0 16 20 36t20 35q0 28 -63 28q-187 0 -364 -187q-167 -176 -252 -432q70 138 186 226q125 95 263 95q101 0 171 -90q63 -83 63 -188q0 -268 -194.5 -497.5t-412.5 -229.5q-165 0 -265 117q-93 112 -93 280
q0 366 286 680t620 314q87 0 149 -30q77 -38 77 -110zM779 759q0 111 -72 111q-139 0 -250 -139q-97 -123 -97 -238q0 -46 17 -46t29.5 10t22.5 10q56 -4 56 -76q0 -44 -32 -73.5t-76 -29.5q-85 0 -106 114v-42q0 -213 118 -229q153 -19 276 195q114 203 114 433z" />
    <glyph glyph-name="seven" unicode="7" horiz-adv-x="759" 
d="M934 1303q0 -99 -119 -228q-114 -120 -229 -239q-296 -355 -296 -605q0 -58 28.5 -86t58.5 -54q-49 -103 -138 -103q-92 0 -146 90q-49 81 -42 184q19 227 231 471q107 125 380 355q196 167 191 218q0 7 -5 7q-2 0 -4 -5q-20 -57 -74.5 -90.5t-109.5 -33.5
q-56 0 -153.5 14t-161.5 14q-93 0 -144 -46q-28 -25 -56 -87q-22 -46 -42 -46q-29 0 -29 40q0 42 34.5 110t34.5 112q0 20 -10 49.5t-10 46.5q0 35 32 35q27 0 48 -84q106 80 202 80q65 0 162.5 -49.5t155.5 -49.5q48 0 58.5 47.5t33.5 47.5q49 0 84 -32.5t35 -82.5z" />
    <glyph glyph-name="eight" unicode="8" horiz-adv-x="1120" 
d="M1116 1156q0 -113 -149 -202q-105 -62 -252 -96q119 -103 167 -174q79 -119 79 -267q0 -184 -161 -305q-152 -118 -351 -104q-174 11 -296 100q-134 95 -134 246q0 158 140 277q125 106 296 136q-106 137 -106 290q0 156 152 264q143 101 318 89q297 -19 297 -254z
M950 1168q0 54 -46 87.5t-121 31.5q-89 -2 -161 -51q-78 -52 -78 -120q0 -91 102 -193q114 27 194 78q110 70 110 167zM747 373q0 78 -72 161q-73 78 -148 154q-142 -26 -237 -108q-112 -91 -112 -218q0 -100 73 -169.5t178 -80.5q123 -15 220.5 63.5t97.5 197.5z" />
    <glyph glyph-name="nine" unicode="9" horiz-adv-x="1107" 
d="M1184 1176q0 -40 -20 -58q12 -35 12 -73q0 -376 -232 -694q-256 -351 -630 -351q-119 0 -202 44q-100 53 -100 151q0 55 35.5 97t91.5 49q48 8 77.5 -21.5t29.5 -69.5q0 -26 -25.5 -50.5t-25.5 -46.5q0 -54 111 -54q183 0 342 161q133 136 220 348q78 190 82 332
q-42 -225 -148 -360q-123 -155 -309 -155q-129 0 -213 83q-89 86 -89 231q0 264 214.5 467.5t488.5 203.5q117 0 198 -59q92 -66 92 -175zM1103 1219q-34 76 -153 76q-231 0 -402 -186q-163 -182 -163 -402q0 -79 43.5 -130.5t104.5 -51.5q153 0 269 208q110 196 112 437
q-4 20 -4 32q0 26 30 38q6 2 57 11q57 13 106 -32z" />
    <glyph glyph-name="colon" unicode=":" horiz-adv-x="449" 
d="M449 751q0 -70 -30 -121q-34 -58 -91 -58q-34 0 -57 29t-23 64q0 68 37 121.5t87 53.5q77 0 77 -89zM330 155q0 -70 -30 -121q-34 -58 -91 -58q-34 0 -57 29t-23 65q0 67 37 120.5t86 53.5q78 0 78 -89z" />
    <glyph glyph-name="semicolon" unicode=";" horiz-adv-x="449" 
d="M449 751q0 -70 -30 -121q-34 -58 -91 -58q-34 0 -57 29t-23 64q0 68 37 121.5t87 53.5q77 0 77 -89zM330 155q0 -60 -28 -131q-42 -107 -133 -179q-10 -8 -22 -8q-28 0 -28 28q0 16 14 27q34 28 70 86q-34 -2 -54 26t-20 66q0 67 37 120.5t86 53.5q78 0 78 -89z" />
    <glyph glyph-name="less" unicode="&#x3c;" horiz-adv-x="644" 
d="M747 870l-560 -354l353 -236l-55 -83l-411 272v96l621 389z" />
    <glyph glyph-name="equal" unicode="=" horiz-adv-x="453" 
d="M523 760l-32 -98h-378l32 98h378zM451 596l-32 -99h-377l32 99h377z" />
    <glyph glyph-name="greater" unicode="&#x3e;" horiz-adv-x="644" 
d="M726 576l-623 -389l-52 84l561 353l-354 236l56 84l412 -273v-95z" />
    <glyph glyph-name="question" unicode="?" horiz-adv-x="675" 
d="M713 982q0 -140 -123 -243q-12 -10 -230 -149q-123 -78 -123 -153q0 -37 37.5 -69t37.5 -38q0 -44 -52 -44q-51 0 -95 75t-44 151q0 118 116 225q106 84 214 169q115 101 115 210q0 70 -65 128.5t-137 50.5q23 -27 23 -83q0 -36 -31.5 -64t-69.5 -28q-51 0 -84 35t-33 89
q0 69 64 111q55 40 135 40q148 0 250 -127q95 -121 95 -286zM149 -8q-77 0 -77 95q0 52 34.5 100t86.5 48q78 0 78 -96q0 -52 -35 -99.5t-87 -47.5z" />
    <glyph glyph-name="at" unicode="@" horiz-adv-x="1380" 
d="M1357 1013q0 -234 -157 -454.5t-322 -220.5q-50 0 -92.5 32t-42.5 77q0 30 21 87l94 249q6 13 -7 15t-19 -13l-87 -249q-28 -77 -84.5 -137t-110.5 -60q-80 0 -123 57q-40 49 -40 127q0 190 143 341.5t338 151.5q66 0 119.5 -33t57.5 -83q4 -56 -44 -70l-129 -311
q-8 -20 -8 -45q0 -35 14 -37q138 0 258 191q121 185 121 385q0 272 -254 290q-326 24 -586 -230q-252 -247 -252 -561q0 -176 66 -292q76 -137 230 -137q227 0 417 192q20 19 43 19q50 0 50 -48q0 -22 -21 -43q-219 -219 -489 -219q-197 0 -304 167q-91 143 -91 361
q0 334 258 610q266 284 614 284q31 0 65 -3q354 -32 354 -390zM959 920q-21 30 -83 30q-161 0 -260 -159q-85 -139 -85 -314q0 -18 10.5 -36t24.5 -18q28 0 64.5 37t55.5 84l118 302h130q-11 14 -11 28q0 32 36 46z" />
    <glyph glyph-name="A" unicode="A" horiz-adv-x="1704" 
d="M1981 1297q-2 -10 -32 -18q-155 -41 -241 -195q-63 -115 -110 -347q116 22 116 99q0 10 -16.5 25t-16.5 39q0 65 55 65q88 0 88 -114q0 -76 -64.5 -131t-182.5 -70q-85 -430 -218 -646q-4 -28 -32 -20q-21 6 -16.5 31t-9.5 44t-42 19q-61 0 -105 -17q-60 -23 -147 -95
q-23 -19 -40 6q-15 24 13 34q206 176 383 616q-52 -4 -302 -14q-173 -314 -284 -431q-175 -185 -423 -209q-138 -14 -235 74.5t-97 221.5q0 28 6 56q78 433 825 433q57 0 121 -2q214 360 341 466q120 102 197 142q105 51 230 51q135 0 225 -83q18 -16 14 -30zM1780 1311
q-24 4 -38 4q-303 0 -608 -574q237 -14 271 -14q111 292 159 376q93 171 216 208zM882 602q-342 -12 -512 -73q-229 -80 -229 -258q0 -100 54 -152q46 -43 114 -43q247 0 573 526z" />
    <glyph glyph-name="B" unicode="B" horiz-adv-x="1458" 
d="M1554 1244q0 -34 -21 -61t-51 -27q-58 0 -58 44q0 6 5 24q2 12 0 18q-5 5 -23 5q-35 0 -67 -28q132 -138 132 -290q0 -91 -53 -157.5t-139 -92.5q152 -89 152 -292q0 -169 -117.5 -282t-290.5 -113q-60 0 -121.5 9t-110.5 9q-97 0 -235 -46q-25 -21 -48 6q-17 22 6 47
q142 152 343 599q204 455 321 588q-121 95 -316 95q-270 0 -471.5 -195.5t-201.5 -457.5q0 -92 48 -163q53 -78 131 -78q119 0 202 122q78 110 78 244q0 150 -85 150q-78 0 -130 -49t-52 -133q0 -10 50 -31.5t50 -81.5q0 -30 -26 -52t-57 -22q-57 0 -86 60q-26 50 -26 119
q0 141 101.5 254.5t211.5 113.5q207 0 207 -301q0 -176 -131 -329q-139 -163 -326 -163q-137 0 -233.5 107.5t-96.5 249.5q0 308 252 525q243 215 575 215q259 0 426 -124q87 56 176 56q38 0 72 -27t34 -64zM1311 934q0 95 -47 173q-92 -201 -138 -360q60 -2 122.5 57.5
t62.5 129.5zM1244 449q0 78 -34 131q-38 64 -111 74q-104 -345 -209 -507q77 -12 111 -12q108 0 179 104q64 93 64 210z" />
    <glyph glyph-name="C" unicode="C" horiz-adv-x="1522" 
d="M1702 1118q0 -260 -286 -387q-224 -100 -572 -100q-107 0 -192 -9q-21 -72 -21 -141q0 -153 55 -257q65 -125 190 -125q263 0 471 303q22 29 50 5q23 -22 6 -47q-82 -151 -203 -250q-153 -124 -324 -124q-216 0 -351 151q-131 145 -131 356q0 19 4 68q-227 -89 -227 -255
q0 -117 55 -117q11 0 20.5 35.5t51.5 35.5q68 0 68 -83q0 -58 -49 -92t-107 -34q-79 0 -127 70q-39 59 -39 133q0 159 111 275q93 97 274 168q92 279 362 483q284 213 600 213q123 0 210 -66q101 -76 101 -209zM1566 1143q0 70 -66 112q-58 36 -133 36q-177 0 -370 -159
q-178 -148 -284 -357q203 34 403 67q221 40 321 96q129 71 129 205z" />
    <glyph glyph-name="D" unicode="D" horiz-adv-x="1609" 
d="M1579 1249q0 -36 -21 -63.5t-53 -27.5q-57 0 -57 46q0 6 4 26q2 12 -2 17.5t-21 5.5q-36 0 -70 -29q85 -90 144 -237q70 -170 70 -352q0 -273 -147 -466q-158 -209 -410 -209q-62 0 -116 9t-106 9q-100 0 -242 -48q-23 -19 -48 9q-17 21 6 47q146 155 352 616
q211 469 332 606q-125 100 -326 100q-278 0 -485.5 -202t-207.5 -473q0 -95 49 -168q54 -80 136 -80q121 0 208 125q80 116 80 252q0 156 -90 156q-79 0 -133.5 -49.5t-54.5 -135.5q0 -12 52 -36t52 -85q0 -30 -25.5 -53t-59.5 -23q-55 0 -87 62q-27 52 -27 123
q0 145 108 263q104 110 219 110q213 0 213 -307q0 -183 -138 -338q-144 -165 -338 -165q-142 0 -243.5 111t-101.5 261q0 315 260 538q254 218 599 218q265 0 436 -127q89 57 183 57q40 0 73.5 -27.5t33.5 -65.5zM1351 727q0 103 -22 225q-21 115 -48 157
q-222 -751 -407 -1022q95 -11 129 -11q157 0 258 220q90 193 90 431z" />
    <glyph glyph-name="E" unicode="E" horiz-adv-x="1331" 
d="M1568 1150q0 -229 -188 -352q-178 -119 -492 -119q-75 0 -115 -2q46 -69 152 -69q17 0 66.5 18t91.5 18q83 0 83 -78q0 -58 -67 -85l-136 -36q-180 -51 -300 -165q-132 -125 -142 -288q-7 -95 49 -161t161 -66q143 0 252 103.5t109 244.5q0 67 -27 116q-34 57 -98 59
q-69 2 -132.5 -54.5t-63.5 -132.5q0 -27 21 -53t44 -24q54 4 42 46q6 2 14 2q58 0 58 -74q0 -57 -44 -93q-36 -30 -85 -30q-76 0 -120 66q-36 55 -36 131q0 148 116 248q107 97 250 91q114 -4 177 -89q62 -78 53 -185q-14 -205 -162 -340q-142 -131 -344 -144
q-194 -15 -324 67q-135 85 -135 240q0 177 137 306q101 94 294 173q135 54 270 105q8 2 6 6t-8 2q-99 -27 -186 -27q-191 0 -269 133q-453 -68 -453 -380q0 -52 42 -52q8 0 18 3.5t21.5 29t41.5 31.5q63 14 63 -91q0 -66 -39 -98.5t-91 -32.5q-73 0 -121 58t-48 145
q0 377 532 486q-4 14 -4 41q0 241 290 428q257 165 499 165q123 0 197 -58q80 -63 80 -183zM1435 1162q0 127 -156 127q-30 0 -66 -6q-148 -26 -301 -163q-175 -155 -175 -322v-6q32 4 125 14q228 24 382 102q191 99 191 254z" />
    <glyph glyph-name="F" unicode="F" horiz-adv-x="1297" 
d="M1714 1242q0 -66 -52.5 -106t-125.5 -40q-80 0 -219 43q-83 -114 -161 -293h233l-47 -87h-222q-24 -65 -41 -135q-116 -427 -270 -656q-11 -27 -34 -21q-26 5 -18 31q2 10 2 20q0 48 -50 48q-49 0 -67 -4q-62 -18 -149 -88q-30 -24 -42 6q-14 21 8 38q129 103 256 324
q83 145 203 415q2 4 4.5 12t2.5 10h-95l46 87h89q102 219 201 342q-304 97 -482 97q-231 0 -410 -180t-179 -413q0 -116 58 -201q63 -95 165 -95q133 0 222 127q84 116 84 266q0 174 -116 174q-83 0 -136.5 -66.5t-53.5 -155.5q0 -79 42 -79q12 0 23 18.5t24 18.5
q22 0 32 -23.5t6 -51.5q-6 -42 -38 -68.5t-73 -26.5q-59 0 -95 59q-30 54 -30 125q0 142 106 258.5t243 116.5q104 0 161.5 -65.5t61.5 -178.5q6 -214 -129 -377q-140 -169 -340 -169q-143 0 -231 138q-77 120 -77 290q0 293 210.5 506.5t506.5 213.5q132 0 282 -55
q13 -7 246 -112q138 122 298 122q76 0 121.5 -43t45.5 -116zM1621 1255q0 62 -80 62q-69 0 -154 -91q91 -26 152 -26q29 0 55.5 16t26.5 39z" />
    <glyph glyph-name="G" unicode="G" horiz-adv-x="1488" 
d="M1702 1139q0 -249 -286 -368q-224 -96 -572 -96q-107 0 -192 -10q-21 -66 -21 -132q0 -126 57 -201.5t144 -75.5q88 0 195 104q8 8 165 192q89 104 139 104q2 0 26.5 3t41.5 3q61 0 61 -36q0 -14 -21 -32q-31 -28 -52 -78q-14 -31 -74 -321q-52 -250 -147 -373
q-135 -180 -391 -180q-119 0 -203 44q-100 52 -100 147q0 50 35 86.5t85 36.5q34 0 58.5 -22.5t24.5 -56.5q0 -18 -27.5 -37.5t-27.5 -38.5q2 -55 123 -55q153 0 256 142q66 90 139.5 299t112.5 262q-34 -26 -104 -118t-126 -130q-85 -60 -197 -60q-189 0 -308 103
q-122 112 -122 300q0 17 4 64q-209 -77 -227 -242q-12 -112 55 -112q13 0 24.5 37t49.5 39q66 4 66 -86q0 -55 -45 -90t-101 -35q-79 0 -131 70q-45 59 -45 129q0 149 111 260q89 89 274 159q92 264 362 459q284 203 600 203q123 0 210 -62q101 -71 101 -198zM1566 1160
q0 70 -66 108q-56 33 -133 33q-177 0 -370 -151q-178 -141 -284 -339q203 31 403 63q221 38 321 91q129 70 129 195z" />
    <glyph glyph-name="H" unicode="H" horiz-adv-x="1695" 
d="M2042 1176q-6 -93 -89 -93q-54 0 -54 49q0 22 14 45l14 23q-2 4 -8 4q-80 0 -140 -76.5t-119 -269.5t-115 -384q-57 -180 -116 -315q-70 -159 -106 -159q-38 0 -41 38t-54 38q-38 0 -110.5 -58t-88.5 -58q-20 0 -20 36q0 2 106 125q121 145 186 294q41 93 73 179h-267
q-152 -302 -284 -439q-190 -195 -442 -195q-119 0 -208 54q-101 62 -101 161q0 47 22.5 85t64.5 38q32 0 57.5 -21t25.5 -51q0 -42 -32 -59.5t-32 -27.5q0 -84 167 -84q218 0 394 247q28 37 288 509q179 321 351 433q-17 0 -43.5 -4t-53.5 -4q-73 0 -264 26.5t-278 26.5
q-231 0 -409.5 -180t-178.5 -414q0 -115 58 -200q64 -95 164 -95q133 0 223 127q83 117 83 265q0 175 -114 175q-84 0 -143.5 -73t-59.5 -163q0 -66 53 -66q12 0 23 19t25 19q22 0 31.5 -23.5t6.5 -51.5q-6 -42 -38 -68.5t-74 -26.5q-59 0 -95 59q-30 54 -30 125
q0 140 109.5 261t246.5 121q103 0 160.5 -66t61.5 -178q6 -216 -131 -383q-143 -170 -343 -170q-144 0 -231 137q-78 122 -78 290q0 323 201 520q189 184 463 184q109 0 308 -55t288 -55q40 0 98.5 18t96.5 18q67 0 67 -32q0 -26 -32 -44q-49 -32 -55 -36q-91 -85 -183 -244
q-50 -89 -157 -309h260q127 319 219 434q141 178 310 159q44 -4 73.5 -37t25.5 -74z" />
    <glyph glyph-name="I" unicode="I" horiz-adv-x="1268" 
d="M1581 1331q4 -22 -30 -44q-55 -38 -57 -40q-145 -134 -364 -745q-103 -288 -288 -417q-177 -125 -461 -125q-119 0 -208 54q-101 62 -101 161q0 47 22.5 85t64.5 38q32 0 57.5 -21t25.5 -51q0 -42 -32 -59.5t-32 -27.5q0 -80 160 -80q195 0 343 163q86 94 233 354
q83 171 165 344q119 212 320 331q-17 0 -54 -7.5t-64 -7.5q-73 0 -264 26.5t-278 26.5q-231 0 -409.5 -180t-178.5 -414q0 -115 58 -200q64 -95 164 -95q133 0 223 127q83 117 83 265q0 175 -114 175q-84 0 -138 -66.5t-54 -155.5q0 -80 42 -80q12 0 23 19t25 19
q22 0 31.5 -23.5t6.5 -51.5q-6 -42 -38 -68.5t-74 -26.5q-59 0 -95 59q-30 54 -30 125q0 141 106.5 258t243.5 117q103 0 160.5 -65.5t61.5 -178.5q6 -215 -129 -378q-139 -168 -339 -168q-144 0 -231 137q-78 122 -78 290q0 292 211 497t507 205q107 0 287.5 -54t254.5 -54
q40 0 98.5 18t96.5 18q63 0 67 -28z" />
    <glyph glyph-name="J" unicode="J" horiz-adv-x="1502" 
d="M1856 1331q3 -22 -30 -44q-56 -38 -58 -40q-328 -305 -465 -786q-8 -32 -27 -95q89 25 89 87q0 10 -14 26t-9 44q9 42 55 40q69 -5 69 -116q0 -149 -236 -203q-265 -648 -836 -648q-138 0 -233 68q-125 88 -125 266q0 205 171 341q165 133 397 133q35 0 69 -4
q118 -19 356 -44q44 85 87 196q90 233 197 377q139 191 359 322q-15 0 -53 -7.5t-63 -7.5q-78 0 -256 20.5t-253 20.5q-211 0 -371 -134t-160 -322q0 -94 52 -163q58 -76 149 -76q119 0 201 102q75 95 75 216q0 141 -105 141q-75 0 -123 -54.5t-48 -126.5q0 -64 38 -64
q9 0 19.5 15t23.5 15q38 0 34 -62q-13 -74 -101 -74q-54 0 -82.5 45.5t-28.5 102.5q0 117 89 211q97 99 233 99q93 0 146 -53.5t55 -144.5q5 -173 -122 -311q-129 -142 -310 -142q-131 0 -216 102q-80 96 -80 229q0 243 175 421q183 188 443 188q95 0 290 -57t270 -57
q40 0 98.5 18t96.5 18q64 0 68 -28zM954 218q-124 -2 -268 8q-205 16 -371 -77.5t-166 -229.5q0 -116 80 -169q55 -36 133 -36q148 0 313 149q148 131 279 355z" />
    <glyph glyph-name="K" unicode="K" horiz-adv-x="1545" 
d="M1768 1152q-6 -93 -89 -93q-42 0 -54 50q-2 9 10 37t12 36q0 12 -14 12q-67 0 -128 -89q-53 -108 -106 -213q-70 -128 -180 -187q180 -40 180 -214q0 -62 -64.5 -166.5t-64.5 -161.5q0 -80 47 -80q48 0 71.5 58t35.5 60q40 4 40 -56q0 -56 -54 -115q-57 -68 -129 -68
q-79 0 -136 45.5t-62 121.5q-10 115 59.5 254.5t69.5 181.5q0 61 -118 81q-4 -11 -10 -32q-81 -260 -125 -364q-57 -144 -150 -282q-11 -27 -34 -21q-22 5 -18 31q2 8 2 16q0 52 -50 52q-49 0 -67 -4q-62 -18 -149 -88q-30 -24 -42 6q-14 21 8 38q248 201 459 739
q87 224 174 351q66 80 132 159q-77 -11 -83 -11q-74 0 -201 26.5t-214 26.5q-231 0 -410 -180t-179 -414q0 -115 58 -200q63 -95 165 -95q133 0 222 127q83 117 83 265q0 175 -115 175q-83 0 -136.5 -66.5t-53.5 -155.5q0 -80 42 -80q11 0 22.5 19t24.5 19q21 0 31.5 -23.5
t6.5 -51.5q-6 -42 -38 -68.5t-74 -26.5q-59 0 -95 59q-30 54 -30 125q0 141 106.5 258t242.5 117q104 0 162 -65.5t62 -178.5q5 -215 -129 -378q-140 -168 -340 -168q-144 0 -231 137q-77 122 -77 290q0 292 210.5 497t505.5 205q108 0 225.5 -54t190.5 -54q39 0 98 18
t97 18q64 0 67 -28q4 -22 -30 -44q-55 -38 -57 -40q-121 -113 -240 -532q77 60 142 203q78 174 116 223q101 127 250 127q60 0 102 -26q49 -32 45 -90z" />
    <glyph glyph-name="L" unicode="L" horiz-adv-x="1420" 
d="M1522 1069q0 -241 -207 -366q-223 -135 -663 -125q-146 -360 -394 -466q98 -4 235 -98q121 -86 244 -171q147 -89 268 -89t196 87t75 231q0 59 -51 104.5t-112 45.5q-59 0 -95 -40q-31 -31 -31 -65q0 -22 14 -22q10 0 27 6.5t29 6.5q46 0 46 -70q0 -86 -85 -86
q-63 0 -103.5 48.5t-40.5 114.5q0 92 66.5 159t160.5 67q121 0 205.5 -88t84.5 -209q0 -199 -146 -326q-136 -120 -335 -120q-171 0 -316 116q-111 106 -224 210q-128 116 -251 116q-13 0 -33 -10.5t-35 -10.5q-25 0 -44 17t-15 40q6 30 116 73q129 52 194.5 136.5
t133.5 294.5q-222 -12 -222 -119q0 -20 26 -38t26 -53q0 -31 -23 -49.5t-52 -18.5q-46 0 -77 36.5t-31 82.5q0 115 116 193q101 67 275 95q106 324 261 491q194 210 469 210q145 0 235 -101q83 -97 83 -240zM1389 1115q0 75 -49 131.5t-127 56.5q-218 0 -339 -179
q-68 -97 -171 -401q249 10 457 117q229 117 229 275z" />
    <glyph glyph-name="M" unicode="M" horiz-adv-x="2360" 
d="M2394 791q-20 -122 -110 -247q-77 -93 -155 -186q-78 -100 -78 -165q0 -20 5 -40q12 -43 54 -43q53 0 89 41q16 20 46 80q20 42 37 42q36 0 36 -68q0 -78 -75.5 -150t-166.5 -72q-65 0 -114 58t-49 128q0 133 77 274l148 222q77 126 77 221q0 48 -28 48q-176 0 -513 -856
q-8 -21 -17 -34q-24 -34 -50 -34l-113 -4q-50 -2 -84 -26t-41 -26q-16 -2 -30 11t-10 29q62 264 174 529q59 131 182 365q81 157 81 198q0 42 -24 42q-97 0 -266.5 -332.5t-281.5 -729.5q-6 -18 -14 -32q-20 -32 -46 -32l-148 -4q-48 -2 -83 -21t-59 -19q-16 0 -24.5 14
t-2.5 34q45 165 214 528q121 264 121 467q0 318 -268 318q-286 0 -499.5 -228.5t-213.5 -514.5q0 -125 52.5 -207.5t125.5 -82.5q120 0 203 121q78 112 78 245q0 139 -86 150q-74 11 -126 -43t-52 -141q0 -10 48.5 -31t48.5 -81q0 -32 -26 -54.5t-58 -18.5q-106 12 -106 179
q0 141 99 248q93 103 204 103q135 0 193 -105q42 -79 35 -195q-10 -178 -142 -325q-143 -158 -330 -151q-145 4 -244.5 125t-89.5 308q18 343 276.5 573.5t605.5 230.5q195 0 329.5 -148t134.5 -347q0 -76 -49 -220q-59 -169 -121 -337q-4 -14 6 -18q12 -5 18 10
q66 169 131 337q102 251 195 382q129 181 266 181q147 0 147 -187q0 -86 -91 -308l-180 -430q-7 -17 8 -17q11 0 17 14q70 163 138 324q90 198 169 297q104 131 213 131q85 0 139 -70q48 -68 48 -170q0 -27 -4 -57z" />
    <glyph glyph-name="N" unicode="N" horiz-adv-x="1861" 
d="M1909 974q-14 -132 -99 -275q-76 -117 -151 -234q-78 -135 -78 -260q0 -92 44 -92q40 0 70 67.5t66 67.5q38 0 38 -75q0 -74 -59 -130.5t-139 -56.5q-175 0 -175 266q0 144 79 313q74 134 148 269q79 148 79 243q0 57 -2 71q-7 40 -37 40q-133 0 -309 -433
q-129 -342 -256 -683q-10 -21 -19 -34q-26 -36 -52 -36l-185 -4q-28 0 -57.5 -20t-41.5 -20q-36 0 -22 48q51 185 227 546q133 276 133 449q0 318 -227 318q-286 0 -499.5 -228.5t-213.5 -514.5q0 -125 52.5 -207.5t125.5 -82.5q120 0 203 121q78 112 78 245q0 139 -86 150
q-74 11 -126 -43t-52 -141q0 -10 48.5 -31t48.5 -81q0 -32 -26 -54.5t-58 -18.5q-106 12 -106 179q0 141 99 248q93 103 204 103q135 0 193 -105q42 -79 35 -195q-10 -178 -142 -325q-143 -158 -330 -151q-145 4 -244.5 125t-89.5 308q18 343 276.5 573.5t605.5 230.5
q195 0 312 -129q111 -127 114 -326q0 -81 -51 -242q-15 -50 -123 -355q-6 -21 15 -21q11 0 13 15q80 220 159 438q91 241 173 356q104 148 220 148q82 0 140.5 -78t58.5 -203q0 -26 -2 -53z" />
    <glyph glyph-name="O" unicode="O" horiz-adv-x="1708" 
d="M1674 1118q0 -79 -23 -140q17 -51 17 -106q0 -302 -156 -523q-130 -178 -340 -279q-175 -84 -324 -84q-217 0 -351 151q-131 145 -131 356q0 19 4 68q-231 -91 -231 -269q0 -103 60 -103q10 0 20 35.5t52 35.5q67 0 67 -83q0 -58 -48.5 -92t-107.5 -34q-79 0 -127 70
q-39 59 -39 133q0 159 111 275q93 97 275 168q91 279 360 483q285 213 601 213q123 0 210 -66q101 -76 101 -209zM1537 1128v15q0 70 -65 112q-58 36 -133 36q-177 0 -370 -159q-178 -148 -283 -357l167 29q70 157 219.5 257.5t314.5 106.5q91 4 150 -40zM1435 954
q-27 71 -93 71q-222 0 -343 -199q322 52 436 128zM1460 783q-184 -131 -533 -150q-6 -21 -6 -53q0 -83 44 -83q17 0 36.5 18t31.5 18q63 0 63 -88q0 -49 -44.5 -79t-97.5 -25q-80 10 -120 86q-36 64 -36 157v47q-97 0 -174 -9q-20 -72 -20 -141q0 -153 54 -257
q65 -125 190 -125q177 0 371 185q225 211 241 499z" />
    <glyph glyph-name="P" unicode="P" horiz-adv-x="1526" 
d="M1596 1249q0 -36 -21 -63.5t-53 -27.5q-58 0 -58 46q0 6 4 26q3 12 -1.5 17.5t-22.5 5.5q-36 0 -70 -29q209 -217 209 -517q0 -199 -144 -311q-110 -89 -224 -89q-110 0 -178 29q-63 -213 -167 -380q-15 -26 -34 -22q-21 7 -17 32q2 8 2 17q0 51 -50 51t-68 -4
q-61 -18 -149 -87q-29 -24 -42 6q-13 19 9 37q142 157 354.5 621t334.5 601q-126 100 -326 100q-278 0 -485.5 -202t-207.5 -473q0 -95 50 -168q53 -80 134 -80q122 0 209 125q79 116 79 252q0 156 -89 156q-75 0 -122 -53.5t-47 -143.5q0 -12 43 -30t43 -79q0 -30 -26 -53
t-60 -23q-56 0 -87 62q-28 52 -28 123q0 145 101 255q96 103 211 103q213 0 213 -308q0 -183 -129 -330q-138 -157 -330 -157q-140 0 -227 114q-83 104 -83 258q0 318 241.5 537t580.5 219q266 0 438 -127q89 57 182 57q40 0 74 -27.5t34 -65.5zM1382 731q0 99 -31 226
q-30 116 -58 161q-78 -151 -133 -347q-45 -175 -89 -350q32 -14 107 -14q64 0 119 56q85 87 85 268z" />
    <glyph glyph-name="Q" unicode="Q" horiz-adv-x="1693" 
d="M1681 1118q0 -79 -24 -140q17 -51 17 -106q0 -302 -156 -523q-129 -178 -340 -279q-175 -84 -323 -84q-218 0 -353 151q-130 145 -130 356q0 19 3 68q-230 -91 -230 -269q0 -103 60 -103q9 0 19.5 35.5t51.5 35.5q67 0 67 -83q0 -58 -48.5 -92t-105.5 -34q-79 0 -128 70
q-39 59 -39 133q0 159 111 275q93 97 274 168q92 279 362 483q283 213 600 213q123 0 210 -66q102 -76 102 -209zM1647 -139q0 -157 -133 -263q-125 -99 -297 -99q-198 0 -337 118q-103 107 -207 214q-117 118 -266 118q-18 0 -43 -12.5t-40 -12.5q-51 0 -51 44q0 40 59 62
q47 18 111 18q145 0 288 -96l234 -178q142 -96 277 -96q123 0 206 44q99 54 99 153q0 36 -23.5 69.5t-55.5 33.5q-79 0 -79 -54q0 -9 9.5 -22.5t9.5 -20.5q0 -48 -55 -48q-40 0 -64.5 33t-18.5 75q7 65 60.5 100t125.5 35q83 0 137 -63.5t54 -151.5zM1543 1128v15
q0 70 -65 112q-58 36 -134 36q-176 0 -368 -159q-180 -148 -284 -357l166 29q71 157 220.5 257.5t314.5 106.5q91 4 150 -40zM1440 954q-26 71 -91 71q-223 0 -344 -199q322 52 435 128zM1466 783q-185 -131 -532 -150q-7 -21 -7 -53q0 -83 44 -83q16 0 36 18t32 18
q64 0 64 -88q0 -49 -45 -79t-99 -25q-77 8 -119 84q-36 66 -36 159v47q-97 0 -174 -9q-20 -72 -20 -141q0 -153 53 -257q66 -125 192 -125q176 0 371 185q224 211 240 499z" />
    <glyph glyph-name="R" unicode="R" horiz-adv-x="1507" 
d="M1554 1244q0 -34 -21 -61t-51 -27q-58 0 -58 44q0 6 5 24q2 12 0 18q-5 5 -23 5q-35 0 -67 -28q132 -138 132 -290q0 -93 -71 -167t-168 -76q79 -19 99 -32q66 -42 60 -155q-2 -62 -68 -179t-66 -177q0 -79 49 -79q55 0 80.5 68.5t53.5 68.5q40 0 40 -56t-54 -115
q-57 -68 -129 -68q-80 0 -136 45.5t-62 121.5q-11 115 59 254.5t70 181.5q0 70 -110 89q-43 -157 -161 -428q-95 -226 -123 -270q-15 -26 -34 -22q-21 7 -17 32q2 8 2 17q0 51 -50 51q-49 0 -68 -4q-61 -18 -148 -87q-30 -24 -42 6q-12 17 8 37q178 192 309 453
q25 46 188 425q99 230 196 340q-121 95 -316 95q-270 0 -471.5 -195.5t-201.5 -457.5q0 -92 48 -163q53 -78 131 -78q119 0 202 122q78 110 78 244q0 131 -85 150q-17 4 -30 4q-64 0 -110 -51t-46 -127q0 -26 52 -44.5t52 -76.5q0 -30 -26 -52t-57 -22q-57 0 -86 60
q-26 50 -26 119q0 143 104.5 256.5t213.5 98.5q207 -25 207 -299q0 -175 -134 -324q-141 -157 -328 -157q-137 0 -237 111.5t-100 253.5q0 307 254 521q246 211 580 211q259 0 426 -124q87 56 176 56q38 0 72 -27t34 -64zM1311 934q0 95 -47 173q-38 -86 -117 -360
q57 -2 110.5 56.5t53.5 130.5z" />
    <glyph glyph-name="S" unicode="S" horiz-adv-x="1387" 
d="M1593 1136q-4 -133 -108.5 -233.5t-220.5 -83.5q-68 9 -109.5 58.5t-41.5 119.5q0 80 40.5 138.5t114.5 72.5q41 7 73.5 -12.5t32.5 -54.5q0 -80 -51 -80q-10 0 -22 13.5t-22 13.5q-60 0 -60 -83q0 -27 19 -47t45 -20q78 0 134.5 60.5t56.5 157.5q0 56 -45 93.5t-98 37.5
q-143 0 -244 -105t-101 -253q0 -97 32 -202q9 -28 66 -183q120 21 120 80q0 15 -20 38.5t-20 40.5q0 59 72 59q40 0 63 -47q20 -40 20 -85q0 -128 -143 -185q-10 -4 -52 -18q28 -103 28 -196q0 -239 -201.5 -408.5t-457.5 -169.5q-175 0 -304 79q-149 91 -161 256
q-14 192 150 338q126 110 336 157q125 27 360 42q-30 97 -59 194q-32 113 -32 210q0 212 170.5 358t377.5 127q119 -9 189 -79q78 -74 73 -199zM918 282q0 56 -8 95q-358 -65 -481 -115q-242 -97 -242 -272q0 -96 74.5 -159.5t171.5 -63.5q198 0 344 159q141 154 141 356z
" />
    <glyph glyph-name="T" unicode="T" horiz-adv-x="1194" 
d="M1714 1242q0 -66 -52.5 -106t-125.5 -40q-80 0 -219 43q-91 -123 -238 -515q-58 -165 -114 -332q-75 -203 -156 -324q-11 -27 -34 -21q-22 5 -18 31q2 8 2 16q0 52 -50 52q-49 0 -67 -4q-62 -18 -149 -88q-30 -24 -42 6q-14 21 8 38q127 101 252 324q58 101 207 415
q165 346 248 451q-304 97 -482 97q-231 0 -410 -180t-179 -413q0 -116 58 -201q63 -95 165 -95q133 0 222 127q84 116 84 266q0 174 -116 174q-83 0 -136.5 -66.5t-53.5 -155.5q0 -79 42 -79q12 0 23 18.5t24 18.5q22 0 32 -23.5t6 -51.5q-6 -42 -38 -68.5t-73 -26.5
q-59 0 -95 59q-30 54 -30 125q0 142 106 258.5t243 116.5q104 0 161.5 -65.5t61.5 -178.5q6 -214 -129 -377q-140 -169 -340 -169q-143 0 -231 138q-77 120 -77 290q0 293 210.5 506.5t506.5 213.5q132 0 282 -55q13 -7 246 -112q138 122 298 122q76 0 121.5 -43t45.5 -116z
M1621 1255q0 62 -80 62q-69 0 -154 -91q91 -26 152 -26q29 0 55.5 16t26.5 39z" />
    <glyph glyph-name="U" unicode="U" horiz-adv-x="1778" 
d="M1947 1240q-82 -256 -260 -674q-150 -352 -150 -384q0 -39 4 -51q6 -21 36 -21q54 0 86 41q14 20 37 80q16 42 34 42q36 0 36 -68q0 -78 -75.5 -150t-166.5 -72q-154 0 -154 164q0 54 112 308q165 377 222 531q6 13 -6 15q-9 2 -15 -12q-91 -210 -182 -419
q-123 -266 -231 -403q-146 -179 -296 -179q-104 0 -171.5 52.5t-67.5 141.5q0 120 109 311q100 159 201 320q105 174 103 258q-7 248 -268 248q-276 0 -499 -265q-214 -254 -214 -527q0 -91 47 -163q55 -78 131 -78q120 0 203 121q78 112 78 245q0 127 -86 150q-15 4 -34 4
q-65 0 -110.5 -59t-37.5 -135q2 -10 51.5 -28t49.5 -78q0 -73 -72 -73q-55 0 -91 60q-32 51 -32 119q0 141 95.5 244t206.5 103q207 0 207 -299q0 -177 -125 -321q-133 -152 -320 -152q-137 0 -229.5 108.5t-92.5 252.5q0 342 263 609t607 267q204 0 339 -109
q142 -117 142 -306q0 -151 -100 -330q-19 -37 -180 -281q-99 -148 -99 -223q0 -63 43 -63q145 0 362 415q118 226 298 669q21 55 55 55h91q19 0 44.5 12.5t39.5 12.5q38 0 32 -36z" />
    <glyph glyph-name="V" unicode="V" horiz-adv-x="1698" 
d="M1782 1126q0 -210 -115.5 -480.5t-277.5 -452.5q-181 -199 -340 -199q-124 0 -201 55q-103 74 -103 235q0 326 246 634q88 111 328 320q-77 -12 -83 -12q-74 0 -248.5 24t-261.5 24q-233 0 -420 -181t-187 -414q0 -114 58 -200q64 -96 164 -96q133 0 224 127
q83 118 83 267q0 175 -115 175q-84 0 -138 -66.5t-54 -156.5q0 -79 42 -79q13 0 23.5 19t24.5 19q22 0 31.5 -24.5t6.5 -51.5q-6 -42 -37.5 -69t-73.5 -27q-60 0 -96 60q-29 54 -29 125q0 141 106 258.5t243 117.5q104 0 161 -65.5t61 -179.5q7 -214 -129 -377
q-139 -169 -339 -169q-143 0 -230 137q-78 121 -78 290q0 290 218.5 495.5t515.5 205.5q108 0 273 -50.5t239 -50.5q39 0 98 18t96 18q64 0 68 -28q3 -22 -31 -44q-55 -37 -57 -39q-125 -118 -274 -385q-187 -337 -187 -577q0 -181 88 -181q161 0 383 350q219 342 223 580
q-36 0 -72 22q-41 26 -41 62q0 45 31.5 79t74.5 34q40 0 74 -32t34 -64z" />
    <glyph glyph-name="W" unicode="W" horiz-adv-x="2159" 
d="M2211 1126q0 -206 -111 -487q-110 -269 -261 -459q-160 -204 -290 -204q-125 0 -192 94q-60 83 -60 208q0 249 134 518q120 251 260 349q15 9 4 15q-12 4 -30 -6q-129 -73 -257 -308q-77 -141 -157 -391q-81 -258 -115 -326q-69 -135 -173 -135q-89 0 -157 55
q-91 76 -91 235q0 326 246 634q88 111 328 320q-77 -12 -83 -12q-74 0 -248.5 24t-262.5 24q-232 0 -419 -181t-187 -414q0 -114 58 -200q63 -96 165 -96q133 0 222 127q84 118 84 267q0 175 -116 175q-83 0 -136.5 -66.5t-53.5 -156.5q0 -79 42 -79q12 0 22.5 19t25.5 19
q21 0 31 -24.5t6 -51.5q-6 -42 -37.5 -69t-73.5 -27q-60 0 -95 60q-30 54 -30 125q0 141 106 258.5t243 117.5q104 0 161.5 -65.5t61.5 -179.5q6 -214 -129 -377q-140 -169 -340 -169q-143 0 -230 137q-78 121 -78 290q0 290 219 495.5t516 205.5q107 0 272 -50.5t239 -50.5
q39 0 98 18t97 18q63 0 66 -28q4 -22 -29 -44q-56 -37 -58 -39q-125 -118 -273 -385q-188 -337 -188 -577q0 -75 8 -103q13 -54 56 -54q38 0 131 275q120 351 183 468q83 156 181 258q123 131 228 131q104 0 104 -67q0 -10 -68 -92q-82 -103 -137 -222q-83 -182 -117 -421
q-12 -79 -12 -145q0 -189 67 -189q129 0 327 338.5t202 571.5q-36 0 -72 22q-42 26 -42 62q0 45 32 79t76 34q40 0 73.5 -32t33.5 -64z" />
    <glyph glyph-name="X" unicode="X" horiz-adv-x="1714" 
d="M2058 1311q0 -39 -24.5 -69t-62.5 -30q-68 0 -68 60q0 9 14 20t14 19q0 20 -40 12q-127 -26 -274 -161q-114 -105 -306 -343q0 -706 155 -706q64 0 117.5 123.5t84.5 123.5q32 0 32 -60q0 -90 -73 -194q-84 -120 -185 -120q-125 0 -212 97q-125 137 -155 442
q-222 -265 -383 -390q-211 -165 -396 -165q-272 0 -272 212q0 44 29.5 78t73.5 34q80 0 80 -59q0 -51 -38 -67.5t-38 -28.5q0 -80 171 -80q168 0 377 183q142 124 388 421q-2 31 -2 90q0 278 -52 425q-52 141 -143 141q-248 0 -449 -238q-192 -228 -192 -477q0 -83 44 -145
q45 -70 116 -70q108 0 183 108q70 101 70 220q0 141 -108 141q-60 0 -101.5 -54.5t-32.5 -122.5q0 -10 45.5 -26t45.5 -69q0 -65 -64 -65q-50 0 -82 53q-29 46 -29 107q0 128 91.5 227t191.5 99q186 0 186 -270q0 -159 -118 -294q-125 -143 -294 -143q-123 0 -215 105
t-92 234q0 307 244 540t556 233q169 0 286 -113q127 -125 154 -345q194 224 323 327q170 133 318 133q111 0 111 -103z" />
    <glyph glyph-name="Y" unicode="Y" horiz-adv-x="1856" 
d="M2078 1184q0 -8 -63 -64q-78 -68 -129 -168q-80 -154 -114 -391q-53 -384 -231 -633q-248 -349 -699 -349q-116 0 -209 55q-100 64 -100 163q0 48 22.5 85.5t64.5 37.5q32 0 57.5 -20.5t25.5 -50.5q0 -42 -32 -60t-32 -28q0 -79 159 -79q303 0 527 346q121 182 248 544
q68 190 161 346q97 165 187 227q16 9 4 15q-12 4 -30 -6q-129 -73 -256 -308q-43 -79 -181 -393q-103 -231 -182 -328q-116 -137 -267 -137q-97 0 -147 73q-43 64 -43 165q0 42 7 83q27 148 122 311q79 123 158.5 247t77.5 204q-8 248 -268 248q-277 0 -499 -265
q-214 -254 -214 -527q0 -91 47 -163q54 -78 131 -78q120 0 203 121q78 112 78 245q0 127 -86 150q-15 4 -34 4q-65 0 -111 -59t-37 -135q2 -10 51.5 -28t49.5 -78q0 -73 -72 -73q-55 0 -91 60q-32 51 -32 119q0 141 95.5 244t206.5 103q207 0 207 -299q0 -177 -125 -321
q-134 -152 -320 -152q-146 0 -241 103q-101 110 -101 282q0 338 271.5 595t618.5 257q204 0 339 -109q142 -117 142 -306q0 -151 -100 -330q-19 -37 -180 -281q-100 -148 -100 -223q0 -63 44 -63q93 0 256 277q127 237 253 473q83 156 180 258q123 131 229 131
q103 0 103 -67z" />
    <glyph glyph-name="Z" unicode="Z" horiz-adv-x="1308" 
d="M1458 1268q0 -199 -171 -326q-36 -28 -316 -169q-171 -85 -171 -183q0 -16 4 -32q15 88 76 130q47 31 100 27q104 -8 180 -143q36 42 44 91q-68 6 -68 68q0 58 64 67q49 8 74 -28.5t21 -98.5q-8 -106 -97 -190q14 -50 14 -104q0 -290 -236 -523q-243 -235 -559 -235
q-155 0 -264 89t-109 228q0 199 170 306q120 76 384 131q325 70 395 96q-15 92 -64 99q-49 8 -53 -47q0 -9 2 -23.5t2 -23.5q0 -31 -46 -33q-43 -2 -80 57.5t-33 119.5q14 167 137 264q67 52 255 127q164 66 218 127q-59 -16 -78 -16q-123 0 -269 58t-315 58
q-190 0 -333 -127t-143 -307q0 -89 46 -154q51 -72 134 -72q108 0 181 97q68 87 68 203q0 135 -95 135q-68 0 -111 -51.5t-43 -119.5q0 -61 34 -61q10 0 19.5 13.5t20.5 13.5q34 0 30 -57q-14 -72 -92 -72q-47 0 -76 46q-23 39 -23 96q0 108 83.5 201t204.5 93
q84 0 131.5 -51t49.5 -139q5 -163 -109.5 -295.5t-277.5 -132.5q-118 0 -195 97q-72 92 -72 217q0 222 207.5 409.5t448.5 187.5q135 0 290 -91t227 -91q9 0 41 4q-28 21 -28 67q0 28 22 48t50 20q38 0 68.5 -31t30.5 -64zM991 356q-87 -38 -352 -119q-220 -68 -309 -122
q-135 -79 -135 -191q0 -85 66.5 -140t163.5 -55q219 0 388 222q142 184 178 405z" />
    <glyph glyph-name="bracketleft" unicode="[" horiz-adv-x="568" 
d="M576 1439h-99l-360 -1485h88v-97h-215l412 1680h174v-98z" />
    <glyph glyph-name="backslash" unicode="\" horiz-adv-x="775" 
d="M792 30l-87 -44l-695 1371l87 44z" />
    <glyph glyph-name="bracketright" unicode="]" horiz-adv-x="568" 
d="M534 1534l-411 -1681h-174v99h99l359 1485h-87v97h214z" />
    <glyph glyph-name="asciicircum" unicode="^" horiz-adv-x="469" 
d="M400 1471q4 -11 4 -19q0 -23 -27 -23q-19 0 -34 17l-57 76l-174 -89q-13 -7 -21 -7q-27 0 -27 28q0 17 12 26l204 153q24 18 36 14t20 -22z" />
    <glyph glyph-name="underscore" unicode="_" horiz-adv-x="961" 
d="M1051 -153l-32 -99h-1104l32 99h1104z" />
    <glyph glyph-name="grave" unicode="`" horiz-adv-x="320" 
d="M260 1446q2 -7 -4 -9t-14 2q-87 66 -121 98q-75 74 -75 129t49 55q26 0 62 -36t61 -102q8 -23 42 -137z" />
    <glyph glyph-name="a" unicode="a" 
d="M967 760q9 -74 -61 -97l-175 -430q-20 -51 -20 -86q0 -44 38 -44t62.5 60.5t36.5 60.5q36 0 36 -59q0 -53 -50.5 -109t-116.5 -56q-67 0 -115 32q-54 38 -54 101q0 34 32 119l127 346q8 24 -10 24q-13 0 -22 -23l-125 -343q-40 -109 -113 -188q-79 -84 -153 -84
q-113 0 -172 77q-55 68 -55 178q0 265 193 470q201 212 473 212q92 0 165 -45.5t79 -115.5zM851 791q-34 39 -116 39q-225 0 -363 -222q-120 -191 -120 -431q0 -26 17 -52t35 -26q37 0 88 52t77 115l166 422h178q-15 17 -15 38q0 43 53 65z" />
    <glyph glyph-name="b" unicode="b" horiz-adv-x="872" 
d="M1160 1272q0 -36 -28.5 -60t-66.5 -24q-40 0 -70 26t-26 62q2 30 24 51q-49 20 -51 20q-211 0 -346 -244q-52 -94 -198 -517q-118 -340 -243 -467q-4 -4 -4 -7q0 -6 8 -9q6 -2 10 3q102 91 199 313q138 314 151 336q91 159 208 159q88 0 135 -91q40 -78 40 -188
q0 -244 -193 -460q-176 -199 -336 -199q-107 0 -184 52q-36 -20 -106 -20q-30 0 -52.5 19t-22.5 49q0 5 34 41q41 48 75 112q97 184 181 556q74 324 167 447q145 190 473 190q222 0 222 -150zM751 751q0 72 -34 72q-89 0 -154 -112q-15 -23 -122 -270q-87 -204 -191 -340
q57 -12 95 -12q106 0 256 244.5t150 417.5z" />
    <glyph glyph-name="c" unicode="c" horiz-adv-x="735" 
d="M824 815q4 -46 -22.5 -81t-68.5 -35q-32 0 -56.5 21t-24.5 51q0 44 38 61q-2 23 -46 23q-128 0 -265 -187t-137 -376q0 -82 34 -139q36 -66 103 -73q74 -10 131 33q32 24 76 82q36 46 49 44q28 -4 28 -32q0 -58 -71 -129q-84 -84 -190 -94q-148 -14 -249 80
q-109 101 -104 275q6 211 182 398q184 197 404 197q74 0 124 -26q62 -34 65 -93z" />
    <glyph glyph-name="d" unicode="d" horiz-adv-x="769" 
d="M830 921q0 -369 -180 -659q-176 -278 -375 -278q-110 0 -178 122q-57 103 -57 230q0 242 151.5 420t376.5 178q48 0 62 -24q7 15 7 77q0 366 -228 366q-43 0 -64 -26q34 -40 27 -83q-12 -68 -82 -68q-34 0 -58.5 24t-24.5 57q0 76 70 131.5t156 55.5q183 0 294 -155
q103 -144 103 -368zM618 684q0 69 -2 83q-12 52 -55 52q-138 0 -245 -182q-102 -172 -102 -371q0 -188 72 -188q108 0 228 276q104 236 104 330z" />
    <glyph glyph-name="e" unicode="e" horiz-adv-x="646" 
d="M762 775q0 -155 -132 -239q-124 -53 -249 -107q-133 -59 -133 -163q0 -173 112 -173q85 0 166.5 74t99.5 74q34 0 34 -31q0 -57 -99 -132q-106 -82 -203 -82q-129 0 -214 96.5t-85 231.5q0 224 191 413q181 179 380 179q64 0 98 -42t34 -99zM616 789q0 34 -20 34
q-124 0 -223 -129q-83 -110 -97 -217q46 44 146.5 97.5t133.5 83.5q60 53 60 131z" />
    <glyph glyph-name="f" unicode="f" horiz-adv-x="574" 
d="M1139 1303q0 -46 -21 -77q-24 -38 -64 -38q-35 0 -63 18t-28 49q0 40 32 60q-57 16 -55 16q-131 0 -229 -123q-81 -101 -157 -308h175l-39 -100h-169q-85 -262 -172 -524q-108 -304 -236 -453q-166 -193 -401 -193q-93 0 -169 50q-85 56 -85 142q0 41 28.5 71.5
t70.5 30.5q34 0 58.5 -22.5t24.5 -56.5q0 -67 -55 -88q95 -32 123 -32q155 0 266 172q81 125 175 410q143 442 163 493h-179l40 100h178q223 518 608 518q66 0 118 -25q62 -32 62 -90z" />
    <glyph glyph-name="g" unicode="g" horiz-adv-x="762" 
d="M921 921q0 -9 -23 -15q-36 -8 -58 -26q60 -32 60 -76q0 -37 -38 -37q-14 0 -32 16q-24 19 -43 28q-16 -30 -28 -64q-14 -40 -48 -246q-36 -223 -55 -300q-62 -241 -199 -374q-148 -145 -362 -145q-97 0 -169 40q-85 47 -85 131q0 41 29 72t71 31q33 0 58 -22.5t25 -56.5
q0 -68 -56 -87q51 -33 123 -33q239 0 411 484l154 428q19 54 75 155q-12 2 -24 2q-23 -24 -77 -153l-156 -417q-87 -237 -214 -237q-73 0 -143 68q-79 80 -79 195q0 224 165 421q184 218 445 218q21 0 61 -3q60 60 123 60q89 0 89 -57zM635 830q-210 -11 -319 -231
q-87 -176 -87 -422q0 -58 35 -58q72 0 130 147l167 422q13 35 74 142z" />
    <glyph glyph-name="h" unicode="h" horiz-adv-x="802" 
d="M1172 1272q0 -36 -28.5 -60t-66.5 -24q-40 0 -69.5 26t-25.5 62q2 30 23 51q-50 20 -51 20q-211 0 -346 -248q-52 -98 -201 -529q-119 -344 -244 -471q-4 -4 -4 -8q0 -6 8 -8q6 -2 10 2q103 93 195 315q134 323 140 337q87 159 205 159q131 0 131 -179q0 -55 -127 -305.5
t-127 -303.5q0 -36 20 -36q40 0 91.5 69t65.5 69q33 0 33 -41q0 -44 -67 -116q-74 -75 -139 -75q-77 0 -113 38q-42 41 -42 143q0 99 127 346.5t127 261.5q0 33 -26 33q-51 0 -103 -110q-56 -136 -113 -271q-87 -197 -197 -338q-71 -93 -167 -93q-30 0 -52.5 19t-22.5 48
q0 6 33 42q42 48 76 112q97 185 182 566q76 334 170 457q145 190 473 190q222 0 222 -150z" />
    <glyph glyph-name="i" unicode="i" horiz-adv-x="413" 
d="M592 1238q0 -74 -31 -127q-36 -62 -98 -62q-36 0 -60 31t-24 68q0 71 40 128t91 57q34 0 58 -26t24 -69zM510 912q0 -59 -164 -358.5t-164 -408.5q0 -58 36 -58q64 0 95.5 66.5t61.5 66.5q34 0 34 -59q0 -80 -68 -132.5t-157 -52.5q-71 0 -111.5 55.5t-40.5 137.5
q0 129 105 360t105 260q0 15 -39.5 22.5t-39.5 32.5q0 60 129 60q115 0 152 19t39 19q27 0 27 -30z" />
    <glyph glyph-name="j" unicode="j" horiz-adv-x="561" 
d="M707 1238q0 -74 -32 -127q-36 -62 -97 -62q-36 0 -59.5 31t-23.5 68q0 71 39.5 128t91.5 57q34 0 57.5 -26t23.5 -69zM624 912q0 -61 -101 -342q-127 -356 -282 -580q-213 -308 -438 -308q-97 0 -169 40q-85 47 -85 131q0 41 28.5 72t71.5 31q33 0 58 -22.5t25 -56.5
q0 -68 -56 -87q51 -33 123 -33q114 0 256 249q110 189 213 475q88 248 88 308q0 15 -40 22.5t-40 32.5q0 60 129 60q116 0 152.5 19t38.5 19q28 0 28 -30z" />
    <glyph glyph-name="k" unicode="k" horiz-adv-x="838" 
d="M1120 1272q0 -36 -28.5 -60t-66.5 -24q-39 0 -69.5 26t-26.5 62q3 30 25 51q-50 20 -52 20q-210 0 -346 -248q-52 -98 -200 -529q-119 -344 -244 -471q-4 -4 -4 -8q0 -6 7 -8q6 -2 10 2q114 102 288 527q127 308 379 308q36 0 66 -29t30 -68q0 -112 -92 -112
q-45 0 -65 34q-16 26 -10 61q-52 0 -113.5 -62.5t-55.5 -68.5q11 2 34 2q111 0 111 -167q0 -55 -57.5 -202t-57.5 -200q0 -36 20 -36q40 0 91.5 69t65.5 69q33 0 33 -41q0 -44 -66 -116q-74 -75 -140 -75q-63 0 -107 38q-58 48 -48 143q8 74 30 139q13 38 28 77q10 25 17 48
q19 46 19 66q0 15 -13 15q-38 0 -59 -34q-36 -63 -70 -129q-69 -121 -176 -260q-72 -93 -167 -93q-30 0 -53 19t-23 48q0 6 34 42q42 48 76 112q97 185 182 566q76 334 169 457q145 190 473 190q222 0 222 -150z" />
    <glyph glyph-name="l" unicode="l" horiz-adv-x="516" 
d="M1158 1272q0 -36 -28.5 -60t-66.5 -24q-40 0 -70 26t-26 62q2 30 24 51q-49 20 -51 20q-191 0 -396 -298q-153 -226 -286 -572q-111 -290 -111 -369q0 -32 24 -32q39 0 88.5 67t64.5 67q34 0 34 -41q0 -46 -66 -116q-74 -77 -141 -75q-143 3 -143 177q0 32 4 67
q16 144 111 394q129 330 306 536q231 270 507 270q222 0 222 -150z" />
    <glyph glyph-name="m" unicode="m" horiz-adv-x="1244" 
d="M1323 717q0 -55 -127 -305.5t-127 -303.5q0 -36 19 -36q40 0 92 69t65 69q34 0 34 -41q0 -44 -67 -116q-73 -75 -139 -75q-80 0 -112 32q-38 36 -38 137q0 105 124.5 352.5t124.5 267.5q0 33 -25 33q-78 0 -222 -286q-41 -85 -198 -446q-18 -40 -20 -44q-12 -18 -40 -20
l-102 -4q-40 -2 -68 -21t-52 -19t-24 48q0 81 162 408t162 351q0 33 -26 33q-143 0 -419 -732q-6 -19 -14 -32q-18 -30 -44 -32l-83 -4q-40 -2 -69 -21t-52 -19q-26 0 -26 30q0 10 4 18q105 183 183 390q89 239 89 391q0 15 -39.5 22.5t-39.5 32.5q0 60 129 60q115 0 152 19
t39 19q27 0 27 -30q0 -18 -129 -302q-149 -324 -196 -467q-5 -12 4 -14q9 0 13 10q199 479 317 636q89 121 199 121q134 0 134 -161q0 -24 -100 -252q-114 -265 -144 -358q0 -6 11 -6q4 0 90 201q102 241 191 375q131 201 246 201q131 0 131 -179z" />
    <glyph glyph-name="n" unicode="n" horiz-adv-x="830" 
d="M898 717q0 -55 -127 -305.5t-127 -303.5q0 -36 19 -36q40 0 91.5 69t66.5 69q34 0 34 -41q0 -44 -68 -116q-74 -75 -139 -75q-80 0 -112 32q-37 36 -37 137q0 105 124 352.5t124 267.5q0 33 -28 33q-143 0 -419 -732q-6 -19 -14 -32q-18 -30 -44 -32l-83 -4
q-40 -2 -69 -21t-52 -19q-28 0 -28 30q0 10 6 18q79 123 168 360q104 271 104 421q0 15 -39.5 22.5t-39.5 32.5q0 60 129 60q115 0 152 19t39 19q27 0 27 -30q0 -20 -129 -304q-149 -322 -196 -465q-5 -12 4 -14q9 0 13 10q199 479 317 636q89 121 199 121q134 0 134 -179z
" />
    <glyph glyph-name="o" unicode="o" horiz-adv-x="811" 
d="M798 652q0 -254 -165.5 -458t-380.5 -204q-254 0 -254 272q0 235 186 449q184 209 370 209q119 0 185 -80q59 -71 59 -188zM618 743q0 78 -52 78q-117 0 -260 -227.5t-143 -415.5q0 -91 78 -91q153 0 269 217q108 204 108 439z" />
    <glyph glyph-name="p" unicode="p" horiz-adv-x="938" 
d="M978 660q0 -258 -179 -474t-378 -216q-72 0 -112.5 75.5t-32.5 174.5q-10 -23 -30 -75q-105 -280 -105 -357q0 -50 41.5 -71t41.5 -51q0 -43 -31 -43h-87q-55 2 -89 2q-21 0 -53 -14.5t-51 -14.5q-36 0 -36 23q0 61 214.5 594.5t214.5 575.5q0 15 -40 22.5t-40 32.5
q0 60 130 60q114 0 151 19t39 19q28 0 28 -30q0 -16 -60 -121q-75 -133 -125 -283q-4 -11 7 -11q8 -2 11 7q80 191 187 308t197 117q187 0 187 -269zM783 755q0 68 -21 68q-100 0 -235.5 -232.5t-135.5 -423.5q0 -91 38 -91q123 0 238.5 223.5t115.5 455.5z" />
    <glyph glyph-name="q" unicode="q" horiz-adv-x="940" 
d="M984 760q7 -74 -63 -97l-271 -784q-22 -63 -22 -97q0 -50 42.5 -68t42.5 -48q0 -43 -32 -43h-87q-54 2 -88 2q-21 0 -53 -14.5t-51 -14.5q-36 0 -36 23q0 34 19 83q56 133 80 197l258 699q8 24 -10 24q-14 0 -21 -23l-126 -343q-39 -109 -113 -188q-80 -84 -153 -84
q-113 0 -173 77q-53 68 -53 178q0 265 192 470q201 212 473 212q91 0 165 -45.5t80 -115.5zM866 791q-34 39 -115 39q-224 0 -364 -222q-119 -191 -119 -431q0 -26 17 -52t35 -26q38 0 88.5 52t76.5 115l167 422h176q-13 17 -13 38q0 43 51 65z" />
    <glyph glyph-name="r" unicode="r" horiz-adv-x="677" 
d="M864 767q0 -104 -73 -117q-34 -6 -63 15t-29 52q0 40 32 60q-4 27 -37 27q-80 0 -209 -246q-106 -194 -217 -490q-6 -19 -14 -32q-17 -30 -44 -32l-83 -4q-40 -2 -68.5 -21t-52.5 -19q-16 0 -23 16t1 32q101 183 177 381q95 253 95 400q0 15 -39.5 22.5t-39.5 32.5
q0 60 129 60q115 0 152 19t39 19q28 0 28 -30q0 -20 -129 -304q-150 -322 -197 -465q-4 -12 4 -14q9 0 13 10q201 485 313 642q89 127 198 129q46 2 86 -28q51 -40 51 -115z" />
    <glyph glyph-name="s" unicode="s" horiz-adv-x="608" 
d="M707 792q0 -43 -22.5 -75.5t-60.5 -32.5q-34 0 -60 21.5t-26 53.5t27 56q-25 15 -66 15q-48 0 -88 -28q-45 -29 -45 -75q0 -64 50.5 -132t99.5 -132q52 -86 52 -181q0 -127 -103 -214t-234 -87q-94 0 -159 53q-72 55 -72 141q0 47 33 85t79 38q39 0 67 -28.5t28 -68.5
q0 -70 -72 -84q-2 -20 21.5 -36.5t50.5 -16.5q71 0 123.5 51.5t52.5 121.5q0 87 -94 212t-94 216q0 112 98 188t228 70q75 -2 127 -33q59 -35 59 -98z" />
    <glyph glyph-name="t" unicode="t" horiz-adv-x="552" 
d="M733 908l-39 -99h-190q-63 -138 -236 -507q-42 -90 -42 -149q0 -58 36 -58q40 0 78.5 57.5t74.5 57.5q34 0 34 -47q0 -68 -77.5 -127.5t-170.5 -59.5q-72 0 -112.5 55.5t-40.5 137.5q0 87 45 187l207 453h-163l40 99h168l70 153q21 42 52.5 80.5t51 39.5t65.5 9
q10 2 29.5 12t34.5 10q19 0 23 -16q-2 6 -2 -34q0 -4 -61 -133q-28 -60 -58 -121h183z" />
    <glyph glyph-name="u" unicode="u" horiz-adv-x="910" 
d="M974 912q0 -66 -144 -370.5t-144 -380.5t37 -76q39 0 82 62.5t57 62.5q34 0 34 -41q0 -46 -66 -116q-73 -77 -140 -75q-70 3 -109 43t-39 102q0 95 86 294q111 254 127 312q4 12 -6 14q-8 0 -12 -10q-193 -465 -330 -636q-98 -119 -200 -119q-76 0 -120 68
q-39 62 -39 145q0 125 122 321.5t122 306.5q0 32 -26 32q-48 0 -92.5 -62.5t-60.5 -62.5q-32 0 -32 43q0 55 62 119q69 71 151 71q151 0 151 -232q0 -96 -68 -228q-17 -38 -123 -213q-67 -111 -67 -155q0 -63 44 -63q76 0 258 334q173 317 173 387q0 15 -40 22.5t-40 32.5
q0 60 129 60q115 0 174 19t61 19q28 0 28 -30z" />
    <glyph glyph-name="v" unicode="v" horiz-adv-x="857" 
d="M884 717q0 -125 -78 -302q-83 -195 -208 -314q-145 -141 -304 -127q-85 9 -148 79t-63 157q0 116 113 295t113 297q0 28 -21 24q-47 -7 -82 -68t-51 -61t-28 17t-12 35q2 57 72.5 122t148.5 65q58 0 98 -46t40 -105q0 -108 -63 -247q-13 -32 -117 -224q-63 -117 -63 -169
q0 -28 18.5 -52.5t48.5 -24.5q129 0 254 144q98 114 174 287q63 147 63 206q0 26 -10 48q-48 -4 -82.5 18.5t-34.5 62.5q0 46 33.5 79t77.5 25q111 -22 111 -221z" />
    <glyph glyph-name="w" unicode="w" horiz-adv-x="1219" 
d="M1295 717q0 -198 -156 -457q-178 -292 -380 -292q-28 0 -54 6q-147 32 -147 210q0 49 84 239q105 244 127 308q4 12 -5 14q-9 0 -13 -10q-190 -462 -330 -636q-97 -121 -195 -121q-75 0 -118 68q-40 62 -40 145q0 125 122 321.5t122 306.5q0 32 -26 32q-47 0 -92 -62.5
t-61 -62.5q-32 0 -32 43q0 55 62 119q70 71 151 71q151 0 151 -232q0 -96 -67 -228q-19 -38 -123 -213q-68 -111 -68 -155q0 -63 43 -63q78 0 258 334q173 317 173 387q0 15 -39.5 22.5t-39.5 32.5q0 60 129 60q115 0 185.5 19t72.5 19q29 0 29 -30q0 -59 -134.5 -356.5
t-134.5 -406.5q0 -62 36 -58q184 22 314 284q101 203 101 330q0 26 -10 48q-47 -4 -82 18.5t-35 62.5q0 46 34 79t77 25q111 -22 111 -221z" />
    <glyph glyph-name="x" unicode="x" horiz-adv-x="942" 
d="M1073 794q-12 -87 -87 -87q-84 0 -84 62q0 48 32 65q-199 -28 -304 -235q-90 -170 -90 -396q0 -144 72 -139q51 4 85 67.5t74 63.5q27 0 27 -56q0 -69 -75 -135q-84 -72 -190 -59q-90 9 -139 97q-43 73 -49 182q-345 -497 -569 -497q-56 0 -94 33t-36 81q3 44 28.5 76
t63.5 28t61 -36t14 -68q149 32 300 231q128 170 219 402q85 220 85 349q0 28 -36 19q-67 -16 -97 -85t-38 -69q-51 0 -51 55q0 80 74 141.5t168 61.5q65 0 110 -44.5t45 -107.5q0 -13 -4 -45q195 185 381 185q50 0 81 -41.5t23 -98.5z" />
    <glyph glyph-name="y" unicode="y" horiz-adv-x="848" 
d="M940 857q0 -6 -34 -42q-42 -48 -76 -112q-49 -95 -93 -250q-58 -201 -83 -271q-199 -523 -571 -523q-97 0 -168 39q-86 48 -86 131q0 42 29 72.5t70 30.5q34 0 59 -22.5t25 -56.5q0 -67 -56 -88q52 -31 124 -31q75 0 181.5 91.5t167.5 212.5q38 74 169 423
q94 250 194 352q4 4 4 8q0 5 -7 7q-6 2 -10 -2q-104 -93 -199 -324q-143 -343 -151 -359q-91 -169 -209 -169q-75 0 -115.5 57.5t-40.5 139.5q0 125 114 315.5t114 300.5q0 32 -26 32q-48 0 -92.5 -62.5t-60.5 -62.5q-32 0 -32 43q0 55 62 120q69 70 151 70q83 0 125 -72
q36 -63 36 -152q0 -125 -117.5 -327.5t-117.5 -244.5q0 -63 36 -63q51 0 110 123q63 145 127 290q95 209 204 349q72 93 167 93q30 0 53 -18.5t23 -47.5z" />
    <glyph glyph-name="z" unicode="z" horiz-adv-x="796" 
d="M876 834q0 -250 -184 -347q-30 -17 -341 -98q-184 -50 -184 -179q0 -39 11 -67q2 -8 9 -8q4 2 2 8q-5 24 -5 46q0 149 140 135q74 -8 131 -103.5t111 -95.5q40 0 84 55t61 55q38 0 38 -66q0 -76 -67.5 -126.5t-152.5 -50.5q-68 0 -137.5 85.5t-111.5 85.5q-16 0 -26 -28
q55 -12 55 -76q0 -33 -27.5 -54t-65.5 -21q-73 0 -110 73q-32 60 -32 150q0 214 184 312q26 14 344 107q185 55 185 168q0 8 -4 8q-2 0 -4 -6q-20 -102 -171 -102q-32 0 -92.5 7.5t-90.5 7.5q-80 0 -123.5 -44.5t-51.5 -44.5q-34 0 -34 40q0 45 62 151q69 121 131 121
q56 0 136.5 -44t133.5 -44q15 0 47 13q-9 13 -5 33q6 42 64 42q36 0 63.5 -31t27.5 -67z" />
    <glyph glyph-name="braceleft" unicode="{" horiz-adv-x="512" 
d="M773 1448q-111 -19 -167 -89q-73 -95 -81 -312q-4 -115 -78 -219q-70 -95 -174 -149q97 -71 97 -202q0 -79 -42 -165q-89 -179 -89 -274q0 -104 123 -125q21 -4 21 -25q0 -45 -71 -35q-225 32 -225 232q0 74 28 173q22 54 44 106q42 105 42 169q0 98 -95 98q-57 0 -42 48
q14 54 69 54q89 0 142 90q37 63 53 170q6 54 11 108q97 363 416 404q47 7 47 -23q0 -28 -29 -34z" />
    <glyph glyph-name="bar" unicode="|" horiz-adv-x="566" 
d="M519 1389l-354 -1413l-95 26l353 1410z" />
    <glyph glyph-name="braceright" unicode="}" horiz-adv-x="572" 
d="M639 679q-13 -53 -69 -53q-89 0 -141 -90q-38 -64 -54 -170q-5 -54 -11 -108q-96 -364 -415 -405q-48 -6 -48 24q0 28 29 34q112 19 167 89q74 95 81 312q4 115 78 219q70 95 175 148q-97 72 -97 203q0 79 41 165q90 179 90 274q0 103 -124 125q-21 4 -21 25q0 45 71 34
q225 -31 225 -231q0 -74 -28 -173q-22 -54 -44 -106q-42 -105 -42 -169q0 -99 96 -99q56 0 41 -48z" />
    <glyph glyph-name="asciitilde" unicode="~" horiz-adv-x="469" 
d="M463 1564q-50 -124 -145 -133q-36 -5 -87 16t-84 19q-26 -2 -62 -27q-17 -13 -30 -13q-23 0 -11 26q53 114 145 121q33 4 78 -17.5t80 -19.5q25 1 68 35q21 20 38 20q14 0 14 -14q0 -6 -4 -13z" />
    <glyph glyph-name="dieresis" unicode="&#xa8;" horiz-adv-x="993" 
 />
    <glyph glyph-name="copyright" unicode="&#xa9;" horiz-adv-x="1406" 
d="M1435 675q-59 -270 -291 -463t-505 -193q-234 0 -381.5 148.5t-147.5 372.5q0 66 13 135q57 273 290 464.5t505 191.5q234 0 382 -147t148 -371q0 -68 -13 -138zM1335 675q12 58 12 116q0 191 -125.5 316t-323.5 125q-231 0 -429 -164t-247 -393q-12 -57 -12 -112
q0 -191 126.5 -317.5t325.5 -126.5q228 0 426.5 164t246.5 392zM1134 971q5 -39 -19.5 -71t-63.5 -32q-28 0 -49.5 19t-21.5 45q0 39 33 55q-2 20 -42 20q-114 0 -237.5 -167t-123.5 -338q0 -73 29 -125q34 -59 94 -68q65 -7 120 30q29 23 67 74q32 42 43 40q26 -4 26 -28
q0 -53 -66 -118q-72 -72 -170 -83q-131 -12 -222 72q-100 91 -94 248q6 189 162 358q165 177 364 177q163 0 171 -108z" />
    <glyph glyph-name="registered" unicode="&#xae;" horiz-adv-x="1152" 
d="M1109 868q-44 -208 -222 -354t-386 -146q-179 0 -292.5 112t-113.5 282q0 53 13 106q43 207 220.5 354t384.5 147q181 0 294 -112t113 -286q0 -50 -11 -103zM1019 868q10 44 10 87q0 139 -93.5 231.5t-240.5 92.5q-168 0 -315 -120t-183 -291q-10 -44 -10 -85
q0 -141 93 -233.5t241 -92.5q171 0 317 120t181 291zM802 644q0 -26 -24.5 -53.5t-56.5 -27.5q-79 0 -88 72q-5 53 27 114.5t32 78.5q0 34 -50 40q-20 -70 -72 -191q-39 -95 -54 -119q-6 -10 -15 -10q-8 2 -8 17q9 27 -21 27q-45 0 -97 -40q-13 -8 -17 2q-4 7 4 18
q101 112 181.5 301.5t123.5 239.5q-49 45 -138 45q-15 0 -15 12t19 14q157 8 226 -81q39 -52 39 -112q0 -41 -31.5 -74t-72.5 -33q39 -12 43 -16q30 -17 27 -68q0 -27 -30.5 -80t-30.5 -76q0 -36 24 -36t35 29.5t23 29.5q17 0 17 -23zM729 993q0 40 -22 78q-15 -36 -51 -161
q25 0 49 25.5t24 57.5z" />
    <glyph glyph-name="acute" unicode="&#xb4;" horiz-adv-x="387" 
d="M407 1651q0 -24 -32 -64q-53 -63 -254 -139q-8 -4 -13 2t2 14q67 109 99 147q79 93 140 93q23 0 40.5 -16t17.5 -37z" />
    <glyph glyph-name="paragraph" unicode="&#xb6;" horiz-adv-x="993" 
d="M901 1392v-68h-123v-1324h-80v1324h-161v-1324h-81v716q-169 8 -267.5 99.5t-98.5 237.5q0 153 104.5 246t276.5 93h430z" />
    <glyph glyph-name=".notdef.107" unicode="&#xc0;" horiz-adv-x="1927" 
d="M1871 1534q3 -10 -6 -12q-8 -3 -19 2q-118 90 -164 134q-104 101 -104 176t68 75q36 0 84 -49t85 -139q10 -32 56 -187zM1981 1297q-2 -10 -32 -18q-155 -41 -241 -195q-63 -115 -110 -347q116 22 116 99q0 10 -16.5 25t-16.5 39q0 65 55 65q88 0 88 -114
q0 -76 -64.5 -131t-182.5 -70q-85 -430 -218 -646q-4 -28 -32 -20q-21 6 -16.5 31t-9.5 44t-42 19q-61 0 -105 -17q-60 -23 -147 -95q-23 -19 -40 6q-15 24 13 34q206 176 383 616q-52 -4 -302 -14q-173 -314 -284 -431q-175 -185 -423 -209q-138 -14 -235 74.5t-97 221.5
q0 28 6 56q78 433 825 433q57 0 121 -2q214 360 341 466q120 102 197 142q105 51 230 51q135 0 225 -83q18 -16 14 -30zM1780 1311q-24 4 -38 4q-303 0 -608 -574q237 -14 271 -14q111 292 159 376q93 171 216 208zM882 602q-342 -12 -512 -73q-229 -80 -229 -258
q0 -100 54 -152q46 -43 114 -43q247 0 573 526z" />
    <glyph glyph-name=".notdef.108" unicode="&#xc1;" horiz-adv-x="1927" 
d="M1981 1297q-2 -10 -32 -18q-155 -41 -241 -195q-63 -115 -110 -347q116 22 116 99q0 10 -16.5 25t-16.5 39q0 65 55 65q88 0 88 -114q0 -76 -64.5 -131t-182.5 -70q-85 -430 -218 -646q-4 -28 -32 -20q-21 6 -16.5 31t-9.5 44t-42 19q-61 0 -105 -17q-60 -23 -147 -95
q-23 -19 -40 6q-15 24 13 34q206 176 383 616q-52 -4 -302 -14q-173 -314 -284 -431q-175 -185 -423 -209q-138 -14 -235 74.5t-97 221.5q0 28 6 56q78 433 825 433q57 0 121 -2q214 360 341 466q120 102 197 142q105 51 230 51q135 0 225 -83q18 -16 14 -30zM1780 1311
q-24 4 -38 4q-303 0 -608 -574q237 -14 271 -14q111 292 159 376q93 171 216 208zM882 602q-342 -12 -512 -73q-229 -80 -229 -258q0 -100 54 -152q46 -43 114 -43q247 0 573 526zM1742 1534q46 155 56 187q37 90 85 139t84 49q68 0 68 -75t-104 -176q-46 -44 -164 -134
q-11 -5 -19 -2q-9 2 -6 12z" />
    <glyph glyph-name=".notdef.112" unicode="&#xc2;" horiz-adv-x="1927" 
d="M1981 1297q-2 -10 -32 -18q-155 -41 -241 -195q-63 -115 -110 -347q116 22 116 99q0 10 -16.5 25t-16.5 39q0 65 55 65q88 0 88 -114q0 -76 -64.5 -131t-182.5 -70q-85 -430 -218 -646q-4 -28 -32 -20q-21 6 -16.5 31t-9.5 44t-42 19q-61 0 -105 -17q-60 -23 -147 -95
q-23 -19 -40 6q-15 24 13 34q206 176 383 616q-52 -4 -302 -14q-173 -314 -284 -431q-175 -185 -423 -209q-138 -14 -235 74.5t-97 221.5q0 28 6 56q78 433 825 433q57 0 121 -2q214 360 341 466q120 102 197 142q105 51 230 51q135 0 225 -83q18 -16 14 -30zM1780 1311
q-24 4 -38 4q-303 0 -608 -574q237 -14 271 -14q111 292 159 376q93 171 216 208zM882 602q-342 -12 -512 -73q-229 -80 -229 -258q0 -100 54 -152q46 -43 114 -43q247 0 573 526zM2076 1597q7 -18 7 -32q0 -42 -46 -42q-33 0 -59 32l-99 131l-305 -156q-21 -10 -35 -10
q-47 0 -47 49q0 28 19 45l357 267q40 29 63 22q21 -5 33 -36z" />
    <glyph glyph-name=".notdef.110" unicode="&#xc3;" horiz-adv-x="1927" 
d="M1981 1297q-2 -10 -32 -18q-155 -41 -241 -195q-63 -115 -110 -347q116 22 116 99q0 10 -16.5 25t-16.5 39q0 65 55 65q88 0 88 -114q0 -76 -64.5 -131t-182.5 -70q-85 -430 -218 -646q-4 -28 -32 -20q-21 6 -16.5 31t-9.5 44t-42 19q-61 0 -105 -17q-60 -23 -147 -95
q-23 -19 -40 6q-15 24 13 34q206 176 383 616q-52 -4 -302 -14q-173 -314 -284 -431q-175 -185 -423 -209q-138 -14 -235 74.5t-97 221.5q0 28 6 56q78 433 825 433q57 0 121 -2q214 360 341 466q120 102 197 142q105 51 230 51q135 0 225 -83q18 -16 14 -30zM1780 1311
q-24 4 -38 4q-303 0 -608 -574q237 -14 271 -14q111 292 159 376q93 171 216 208zM882 602q-342 -12 -512 -73q-229 -80 -229 -258q0 -100 54 -152q46 -43 114 -43q247 0 573 526zM2097 1714q-72 -175 -207 -190q-51 -5 -122.5 25t-120.5 27q-36 -3 -88 -40q-25 -17 -41 -17
q-34 0 -18 38q77 159 208 171q47 7 110 -25t115 -28q33 3 95 50q28 28 53 28q21 0 21 -18q0 -10 -5 -21z" />
    <glyph glyph-name=".notdef.124" unicode="&#xc8;" horiz-adv-x="1512" 
d="M1568 1150q0 -229 -188 -352q-178 -119 -492 -119q-75 0 -115 -2q46 -69 152 -69q17 0 66.5 18t91.5 18q83 0 83 -78q0 -58 -67 -85l-136 -36q-180 -51 -300 -165q-132 -125 -142 -288q-7 -95 49 -161t161 -66q143 0 252 103.5t109 244.5q0 67 -27 116q-34 57 -98 59
q-69 2 -132.5 -54.5t-63.5 -132.5q0 -27 21 -53t44 -24q54 4 42 46q6 2 14 2q58 0 58 -74q0 -57 -44 -93q-36 -30 -85 -30q-76 0 -120 66q-36 55 -36 131q0 148 116 248q107 97 250 91q114 -4 177 -89q62 -78 53 -185q-14 -205 -162 -340q-142 -131 -344 -144
q-194 -15 -324 67q-135 85 -135 240q0 177 137 306q101 94 294 173q135 54 270 105q8 2 6 6t-8 2q-99 -27 -186 -27q-191 0 -269 133q-453 -68 -453 -380q0 -52 42 -52q8 0 18 3.5t21.5 29t41.5 31.5q63 14 63 -91q0 -66 -39 -98.5t-91 -32.5q-73 0 -121 58t-48 145
q0 377 532 486q-4 14 -4 41q0 241 290 428q257 165 499 165q123 0 197 -58q80 -63 80 -183zM1435 1162q0 127 -156 127q-30 0 -66 -6q-148 -26 -301 -163q-175 -155 -175 -322v-6q32 4 125 14q228 24 382 102q191 99 191 254zM1248 1534q3 -10 -6 -12q-8 -3 -19 2
q-118 90 -164 134q-104 101 -104 176t68 75q36 0 84 -49t85 -139q10 -32 56 -187z" />
    <glyph glyph-name=".notdef.125" unicode="&#xc9;" horiz-adv-x="1512" 
d="M1568 1150q0 -229 -188 -352q-178 -119 -492 -119q-75 0 -115 -2q46 -69 152 -69q17 0 66.5 18t91.5 18q83 0 83 -78q0 -58 -67 -85l-136 -36q-180 -51 -300 -165q-132 -125 -142 -288q-7 -95 49 -161t161 -66q143 0 252 103.5t109 244.5q0 67 -27 116q-34 57 -98 59
q-69 2 -132.5 -54.5t-63.5 -132.5q0 -27 21 -53t44 -24q54 4 42 46q6 2 14 2q58 0 58 -74q0 -57 -44 -93q-36 -30 -85 -30q-76 0 -120 66q-36 55 -36 131q0 148 116 248q107 97 250 91q114 -4 177 -89q62 -78 53 -185q-14 -205 -162 -340q-142 -131 -344 -144
q-194 -15 -324 67q-135 85 -135 240q0 177 137 306q101 94 294 173q135 54 270 105q8 2 6 6t-8 2q-99 -27 -186 -27q-191 0 -269 133q-453 -68 -453 -380q0 -52 42 -52q8 0 18 3.5t21.5 29t41.5 31.5q63 14 63 -91q0 -66 -39 -98.5t-91 -32.5q-73 0 -121 58t-48 145
q0 377 532 486q-4 14 -4 41q0 241 290 428q257 165 499 165q123 0 197 -58q80 -63 80 -183zM1435 1162q0 127 -156 127q-30 0 -66 -6q-148 -26 -301 -163q-175 -155 -175 -322v-6q32 4 125 14q228 24 382 102q191 99 191 254zM1156 1534q46 155 56 187q37 90 85 139t84 49
q68 0 68 -75t-104 -176q-46 -44 -164 -134q-11 -5 -19 -2q-9 2 -6 12z" />
    <glyph glyph-name=".notdef.129" unicode="&#xca;" horiz-adv-x="1512" 
d="M1568 1150q0 -229 -188 -352q-178 -119 -492 -119q-75 0 -115 -2q46 -69 152 -69q17 0 66.5 18t91.5 18q83 0 83 -78q0 -58 -67 -85l-136 -36q-180 -51 -300 -165q-132 -125 -142 -288q-7 -95 49 -161t161 -66q143 0 252 103.5t109 244.5q0 67 -27 116q-34 57 -98 59
q-69 2 -132.5 -54.5t-63.5 -132.5q0 -27 21 -53t44 -24q54 4 42 46q6 2 14 2q58 0 58 -74q0 -57 -44 -93q-36 -30 -85 -30q-76 0 -120 66q-36 55 -36 131q0 148 116 248q107 97 250 91q114 -4 177 -89q62 -78 53 -185q-14 -205 -162 -340q-142 -131 -344 -144
q-194 -15 -324 67q-135 85 -135 240q0 177 137 306q101 94 294 173q135 54 270 105q8 2 6 6t-8 2q-99 -27 -186 -27q-191 0 -269 133q-453 -68 -453 -380q0 -52 42 -52q8 0 18 3.5t21.5 29t41.5 31.5q63 14 63 -91q0 -66 -39 -98.5t-91 -32.5q-73 0 -121 58t-48 145
q0 377 532 486q-4 14 -4 41q0 241 290 428q257 165 499 165q123 0 197 -58q80 -63 80 -183zM1435 1162q0 127 -156 127q-30 0 -66 -6q-148 -26 -301 -163q-175 -155 -175 -322v-6q32 4 125 14q228 24 382 102q191 99 191 254zM1553 1597q7 -18 7 -32q0 -42 -46 -42
q-33 0 -59 32l-99 131l-305 -156q-21 -10 -35 -10q-47 0 -47 49q0 28 19 45l357 267q40 29 63 22q21 -5 33 -36z" />
    <glyph glyph-name=".notdef.105" unicode="&#xcc;" horiz-adv-x="1448" 
d="M1581 1331q4 -22 -30 -44q-55 -38 -57 -40q-145 -134 -364 -745q-103 -288 -288 -417q-177 -125 -461 -125q-119 0 -208 54q-101 62 -101 161q0 47 22.5 85t64.5 38q32 0 57.5 -21t25.5 -51q0 -42 -32 -59.5t-32 -27.5q0 -80 160 -80q195 0 343 163q86 94 233 354
q83 171 165 344q119 212 320 331q-17 0 -54 -7.5t-64 -7.5q-73 0 -264 26.5t-278 26.5q-231 0 -409.5 -180t-178.5 -414q0 -115 58 -200q64 -95 164 -95q133 0 223 127q83 117 83 265q0 175 -114 175q-84 0 -138 -66.5t-54 -155.5q0 -80 42 -80q12 0 23 19t25 19
q22 0 31.5 -23.5t6.5 -51.5q-6 -42 -38 -68.5t-74 -26.5q-59 0 -95 59q-30 54 -30 125q0 141 106.5 258t243.5 117q103 0 160.5 -65.5t61.5 -178.5q6 -215 -129 -378q-139 -168 -339 -168q-144 0 -231 137q-78 122 -78 290q0 292 211 497t507 205q107 0 287.5 -54t254.5 -54
q40 0 98.5 18t96.5 18q63 0 67 -28zM1405 1534q3 -10 -6 -12q-8 -3 -19 2q-118 90 -164 134q-104 101 -104 176t68 75q36 0 84 -49t85 -139q10 -32 56 -187z" />
    <glyph glyph-name=".notdef.104" unicode="&#xcd;" horiz-adv-x="1448" 
d="M1581 1331q4 -22 -30 -44q-55 -38 -57 -40q-145 -134 -364 -745q-103 -288 -288 -417q-177 -125 -461 -125q-119 0 -208 54q-101 62 -101 161q0 47 22.5 85t64.5 38q32 0 57.5 -21t25.5 -51q0 -42 -32 -59.5t-32 -27.5q0 -80 160 -80q195 0 343 163q86 94 233 354
q83 171 165 344q119 212 320 331q-17 0 -54 -7.5t-64 -7.5q-73 0 -264 26.5t-278 26.5q-231 0 -409.5 -180t-178.5 -414q0 -115 58 -200q64 -95 164 -95q133 0 223 127q83 117 83 265q0 175 -114 175q-84 0 -138 -66.5t-54 -155.5q0 -80 42 -80q12 0 23 19t25 19
q22 0 31.5 -23.5t6.5 -51.5q-6 -42 -38 -68.5t-74 -26.5q-59 0 -95 59q-30 54 -30 125q0 141 106.5 258t243.5 117q103 0 160.5 -65.5t61.5 -178.5q6 -215 -129 -378q-139 -168 -339 -168q-144 0 -231 137q-78 122 -78 290q0 292 211 497t507 205q107 0 287.5 -54t254.5 -54
q40 0 98.5 18t96.5 18q63 0 67 -28zM1334 1534q46 155 56 187q37 90 85 139t84 49q68 0 68 -75t-104 -176q-46 -44 -164 -134q-11 -5 -19 -2q-9 2 -6 12z" />
    <glyph glyph-name=".notdef.099" unicode="&#xd2;" horiz-adv-x="1708" 
d="M1674 1118q0 -79 -23 -140q17 -51 17 -106q0 -302 -156 -523q-130 -178 -340 -279q-175 -84 -324 -84q-217 0 -351 151q-131 145 -131 356q0 19 4 68q-231 -91 -231 -269q0 -103 60 -103q10 0 20 35.5t52 35.5q67 0 67 -83q0 -58 -48.5 -92t-107.5 -34q-79 0 -127 70
q-39 59 -39 133q0 159 111 275q93 97 275 168q91 279 360 483q285 213 601 213q123 0 210 -66q101 -76 101 -209zM1537 1128v15q0 70 -65 112q-58 36 -133 36q-177 0 -370 -159q-178 -148 -283 -357l167 29q70 157 219.5 257.5t314.5 106.5q91 4 150 -40zM1435 954
q-27 71 -93 71q-222 0 -343 -199q322 52 436 128zM1460 783q-184 -131 -533 -150q-6 -21 -6 -53q0 -83 44 -83q17 0 36.5 18t31.5 18q63 0 63 -88q0 -49 -44.5 -79t-97.5 -25q-80 10 -120 86q-36 64 -36 157v47q-97 0 -174 -9q-20 -72 -20 -141q0 -153 54 -257
q65 -125 190 -125q177 0 371 185q225 211 241 499zM1386 1535q3 -10 -6 -12q-8 -3 -19 2q-118 90 -164 134q-104 101 -104 176t68 75q36 0 84 -49t85 -139q10 -32 56 -187z" />
    <glyph glyph-name=".notdef.098" unicode="&#xd3;" horiz-adv-x="1708" 
d="M1261 1534q46 155 56 187q37 90 85 139t84 49q68 0 68 -75t-104 -176q-46 -44 -164 -134q-11 -5 -19 -2q-9 2 -6 12zM1674 1118q0 -79 -23 -140q17 -51 17 -106q0 -302 -156 -523q-130 -178 -340 -279q-175 -84 -324 -84q-217 0 -351 151q-131 145 -131 356q0 19 4 68
q-231 -91 -231 -269q0 -103 60 -103q10 0 20 35.5t52 35.5q67 0 67 -83q0 -58 -48.5 -92t-107.5 -34q-79 0 -127 70q-39 59 -39 133q0 159 111 275q93 97 275 168q91 279 360 483q285 213 601 213q123 0 210 -66q101 -76 101 -209zM1537 1128v15q0 70 -65 112
q-58 36 -133 36q-177 0 -370 -159q-178 -148 -283 -357l167 29q70 157 219.5 257.5t314.5 106.5q91 4 150 -40zM1435 954q-27 71 -93 71q-222 0 -343 -199q322 52 436 128zM1460 783q-184 -131 -533 -150q-6 -21 -6 -53q0 -83 44 -83q17 0 36.5 18t31.5 18q63 0 63 -88
q0 -49 -44.5 -79t-97.5 -25q-80 10 -120 86q-36 64 -36 157v47q-97 0 -174 -9q-20 -72 -20 -141q0 -153 54 -257q65 -125 190 -125q177 0 371 185q225 211 241 499z" />
    <glyph glyph-name=".notdef.094" unicode="&#xd4;" horiz-adv-x="1708" 
d="M1674 1118q0 -79 -23 -140q17 -51 17 -106q0 -302 -156 -523q-130 -178 -340 -279q-175 -84 -324 -84q-217 0 -351 151q-131 145 -131 356q0 19 4 68q-231 -91 -231 -269q0 -103 60 -103q10 0 20 35.5t52 35.5q67 0 67 -83q0 -58 -48.5 -92t-107.5 -34q-79 0 -127 70
q-39 59 -39 133q0 159 111 275q93 97 275 168q91 279 360 483q285 213 601 213q123 0 210 -66q101 -76 101 -209zM1537 1128v15q0 70 -65 112q-58 36 -133 36q-177 0 -370 -159q-178 -148 -283 -357l167 29q70 157 219.5 257.5t314.5 106.5q91 4 150 -40zM1435 954
q-27 71 -93 71q-222 0 -343 -199q322 52 436 128zM1460 783q-184 -131 -533 -150q-6 -21 -6 -53q0 -83 44 -83q17 0 36.5 18t31.5 18q63 0 63 -88q0 -49 -44.5 -79t-97.5 -25q-80 10 -120 86q-36 64 -36 157v47q-97 0 -174 -9q-20 -72 -20 -141q0 -153 54 -257
q65 -125 190 -125q177 0 371 185q225 211 241 499zM1637 1597q7 -18 7 -32q0 -42 -46 -42q-33 0 -59 32l-99 131l-305 -156q-21 -10 -35 -10q-47 0 -47 49q0 28 19 45l357 267q40 29 63 22q21 -5 33 -36z" />
    <glyph glyph-name=".notdef.096" unicode="&#xd5;" horiz-adv-x="1708" 
d="M1674 1118q0 -79 -23 -140q17 -51 17 -106q0 -302 -156 -523q-130 -178 -340 -279q-175 -84 -324 -84q-217 0 -351 151q-131 145 -131 356q0 19 4 68q-231 -91 -231 -269q0 -103 60 -103q10 0 20 35.5t52 35.5q67 0 67 -83q0 -58 -48.5 -92t-107.5 -34q-79 0 -127 70
q-39 59 -39 133q0 159 111 275q93 97 275 168q91 279 360 483q285 213 601 213q123 0 210 -66q101 -76 101 -209zM1537 1128v15q0 70 -65 112q-58 36 -133 36q-177 0 -370 -159q-178 -148 -283 -357l167 29q70 157 219.5 257.5t314.5 106.5q91 4 150 -40zM1435 954
q-27 71 -93 71q-222 0 -343 -199q322 52 436 128zM1460 783q-184 -131 -533 -150q-6 -21 -6 -53q0 -83 44 -83q17 0 36.5 18t31.5 18q63 0 63 -88q0 -49 -44.5 -79t-97.5 -25q-80 10 -120 86q-36 64 -36 157v47q-97 0 -174 -9q-20 -72 -20 -141q0 -153 54 -257
q65 -125 190 -125q177 0 371 185q225 211 241 499zM1678 1714q-72 -175 -207 -190q-51 -5 -122.5 25t-120.5 27q-36 -3 -88 -40q-25 -17 -41 -17q-34 0 -18 38q77 159 208 171q47 7 110 -25t115 -28q33 3 95 50q28 28 53 28q21 0 21 -18q0 -10 -5 -21z" />
    <glyph glyph-name=".notdef.088" unicode="&#xd9;" horiz-adv-x="1987" 
d="M1947 1240q-82 -256 -260 -674q-150 -352 -150 -384q0 -39 4 -51q6 -21 36 -21q54 0 86 41q14 20 37 80q16 42 34 42q36 0 36 -68q0 -78 -75.5 -150t-166.5 -72q-154 0 -154 164q0 54 112 308q165 377 222 531q6 13 -6 15q-9 2 -15 -12q-91 -210 -182 -419
q-123 -266 -231 -403q-146 -179 -296 -179q-104 0 -171.5 52.5t-67.5 141.5q0 120 109 311q100 159 201 320q105 174 103 258q-7 248 -268 248q-276 0 -499 -265q-214 -254 -214 -527q0 -91 47 -163q55 -78 131 -78q120 0 203 121q78 112 78 245q0 127 -86 150q-15 4 -34 4
q-65 0 -110.5 -59t-37.5 -135q2 -10 51.5 -28t49.5 -78q0 -73 -72 -73q-55 0 -91 60q-32 51 -32 119q0 141 95.5 244t206.5 103q207 0 207 -299q0 -177 -125 -321q-133 -152 -320 -152q-137 0 -229.5 108.5t-92.5 252.5q0 342 263 609t607 267q204 0 339 -109
q142 -117 142 -306q0 -151 -100 -330q-19 -37 -180 -281q-99 -148 -99 -223q0 -63 43 -63q145 0 362 415q118 226 298 669q21 55 55 55h91q19 0 44.5 12.5t39.5 12.5q38 0 32 -36zM1560 1535q3 -10 -6 -12q-8 -3 -19 2q-118 90 -164 134q-104 101 -104 176t68 75
q36 0 84 -49t85 -139q10 -32 56 -187z" />
    <glyph glyph-name=".notdef.087" unicode="&#xda;" horiz-adv-x="1987" 
d="M1947 1240q-82 -256 -260 -674q-150 -352 -150 -384q0 -39 4 -51q6 -21 36 -21q54 0 86 41q14 20 37 80q16 42 34 42q36 0 36 -68q0 -78 -75.5 -150t-166.5 -72q-154 0 -154 164q0 54 112 308q165 377 222 531q6 13 -6 15q-9 2 -15 -12q-91 -210 -182 -419
q-123 -266 -231 -403q-146 -179 -296 -179q-104 0 -171.5 52.5t-67.5 141.5q0 120 109 311q100 159 201 320q105 174 103 258q-7 248 -268 248q-276 0 -499 -265q-214 -254 -214 -527q0 -91 47 -163q55 -78 131 -78q120 0 203 121q78 112 78 245q0 127 -86 150q-15 4 -34 4
q-65 0 -110.5 -59t-37.5 -135q2 -10 51.5 -28t49.5 -78q0 -73 -72 -73q-55 0 -91 60q-32 51 -32 119q0 141 95.5 244t206.5 103q207 0 207 -299q0 -177 -125 -321q-133 -152 -320 -152q-137 0 -229.5 108.5t-92.5 252.5q0 342 263 609t607 267q204 0 339 -109
q142 -117 142 -306q0 -151 -100 -330q-19 -37 -180 -281q-99 -148 -99 -223q0 -63 43 -63q145 0 362 415q118 226 298 669q21 55 55 55h91q19 0 44.5 12.5t39.5 12.5q38 0 32 -36zM1492 1534q46 155 56 187q37 90 85 139t84 49q68 0 68 -75t-104 -176q-46 -44 -164 -134
q-11 -5 -19 -2q-9 2 -6 12z" />
    <glyph glyph-name=".notdef.070" unicode="&#xdd;" horiz-adv-x="1987" 
d="M2078 1184q0 -8 -63 -64q-78 -68 -129 -168q-80 -154 -114 -391q-53 -384 -231 -633q-248 -349 -699 -349q-116 0 -209 55q-100 64 -100 163q0 48 22.5 85.5t64.5 37.5q32 0 57.5 -20.5t25.5 -50.5q0 -42 -32 -60t-32 -28q0 -79 159 -79q303 0 527 346q121 182 248 544
q68 190 161 346q97 165 187 227q16 9 4 15q-12 4 -30 -6q-129 -73 -256 -308q-43 -79 -181 -393q-103 -231 -182 -328q-116 -137 -267 -137q-97 0 -147 73q-43 64 -43 165q0 42 7 83q27 148 122 311q79 123 158.5 247t77.5 204q-8 248 -268 248q-277 0 -499 -265
q-214 -254 -214 -527q0 -91 47 -163q54 -78 131 -78q120 0 203 121q78 112 78 245q0 127 -86 150q-15 4 -34 4q-65 0 -111 -59t-37 -135q2 -10 51.5 -28t49.5 -78q0 -73 -72 -73q-55 0 -91 60q-32 51 -32 119q0 141 95.5 244t206.5 103q207 0 207 -299q0 -177 -125 -321
q-134 -152 -320 -152q-146 0 -241 103q-101 110 -101 282q0 338 271.5 595t618.5 257q204 0 339 -109q142 -117 142 -306q0 -151 -100 -330q-19 -37 -180 -281q-100 -148 -100 -223q0 -63 44 -63q93 0 256 277q127 237 253 473q83 156 180 258q123 131 229 131
q103 0 103 -67zM1544 1534q46 155 56 187q37 90 85 139t84 49q68 0 68 -75t-104 -176q-46 -44 -164 -134q-11 -5 -19 -2q-9 2 -6 12z" />
    <glyph glyph-name=".notdef.066" unicode="&#xe0;" 
d="M967 760q9 -74 -61 -97l-175 -430q-20 -51 -20 -86q0 -44 38 -44t62.5 60.5t36.5 60.5q36 0 36 -59q0 -53 -50.5 -109t-116.5 -56q-67 0 -115 32q-54 38 -54 101q0 34 32 119l127 346q8 24 -10 24q-13 0 -22 -23l-125 -343q-40 -109 -113 -188q-79 -84 -153 -84
q-113 0 -172 77q-55 68 -55 178q0 265 193 470q201 212 473 212q92 0 165 -45.5t79 -115.5zM851 791q-34 39 -116 39q-225 0 -363 -222q-120 -191 -120 -431q0 -26 17 -52t35 -26q37 0 88 52t77 115l166 422h178q-15 17 -15 38q0 43 53 65zM756 1065q3 -10 -6 -12
q-8 -3 -19 2q-118 90 -164 134q-104 101 -104 176t68 75q36 0 84 -49t85 -139q10 -32 56 -187z" />
    <glyph glyph-name=".notdef.065" unicode="&#xe1;" 
d="M967 760q9 -74 -61 -97l-175 -430q-20 -51 -20 -86q0 -44 38 -44t62.5 60.5t36.5 60.5q36 0 36 -59q0 -53 -50.5 -109t-116.5 -56q-67 0 -115 32q-54 38 -54 101q0 34 32 119l127 346q8 24 -10 24q-13 0 -22 -23l-125 -343q-40 -109 -113 -188q-79 -84 -153 -84
q-113 0 -172 77q-55 68 -55 178q0 265 193 470q201 212 473 212q92 0 165 -45.5t79 -115.5zM851 791q-34 39 -116 39q-225 0 -363 -222q-120 -191 -120 -431q0 -26 17 -52t35 -26q37 0 88 52t77 115l166 422h178q-15 17 -15 38q0 43 53 65zM692 1066q46 155 56 187
q37 90 85 139t84 49q68 0 68 -75t-104 -176q-46 -44 -164 -134q-11 -5 -19 -2q-9 2 -6 12z" />
    <glyph glyph-name=".notdef.061" unicode="&#xe2;" 
d="M967 760q9 -74 -61 -97l-175 -430q-20 -51 -20 -86q0 -44 38 -44t62.5 60.5t36.5 60.5q36 0 36 -59q0 -53 -50.5 -109t-116.5 -56q-67 0 -115 32q-54 38 -54 101q0 34 32 119l127 346q8 24 -10 24q-13 0 -22 -23l-125 -343q-40 -109 -113 -188q-79 -84 -153 -84
q-113 0 -172 77q-55 68 -55 178q0 265 193 470q201 212 473 212q92 0 165 -45.5t79 -115.5zM851 791q-34 39 -116 39q-225 0 -363 -222q-120 -191 -120 -431q0 -26 17 -52t35 -26q37 0 88 52t77 115l166 422h178q-15 17 -15 38q0 43 53 65zM984 1127q7 -18 7 -32
q0 -42 -46 -42q-33 0 -59 32l-99 131l-305 -156q-21 -10 -35 -10q-47 0 -47 49q0 28 19 45l357 267q40 29 63 22q21 -5 33 -36z" />
    <glyph glyph-name=".notdef.063" unicode="&#xe3;" 
d="M967 760q9 -74 -61 -97l-175 -430q-20 -51 -20 -86q0 -44 38 -44t62.5 60.5t36.5 60.5q36 0 36 -59q0 -53 -50.5 -109t-116.5 -56q-67 0 -115 32q-54 38 -54 101q0 34 32 119l127 346q8 24 -10 24q-13 0 -22 -23l-125 -343q-40 -109 -113 -188q-79 -84 -153 -84
q-113 0 -172 77q-55 68 -55 178q0 265 193 470q201 212 473 212q92 0 165 -45.5t79 -115.5zM851 791q-34 39 -116 39q-225 0 -363 -222q-120 -191 -120 -431q0 -26 17 -52t35 -26q37 0 88 52t77 115l166 422h178q-15 17 -15 38q0 43 53 65zM1062 1246q-72 -175 -207 -190
q-51 -5 -122.5 25t-120.5 27q-36 -3 -88 -40q-25 -17 -41 -17q-34 0 -18 38q77 159 208 171q47 7 110 -25t115 -28q33 3 95 50q28 28 53 28q21 0 21 -18q0 -10 -5 -21z" />
    <glyph glyph-name=".notdef.049" unicode="&#xe8;" horiz-adv-x="688" 
d="M762 775q0 -155 -132 -239q-124 -53 -249 -107q-133 -59 -133 -163q0 -173 112 -173q85 0 166.5 74t99.5 74q34 0 34 -31q0 -57 -99 -132q-106 -82 -203 -82q-129 0 -214 96.5t-85 231.5q0 224 191 413q181 179 380 179q64 0 98 -42t34 -99zM616 789q0 34 -20 34
q-124 0 -223 -129q-83 -110 -97 -217q46 44 146.5 97.5t133.5 83.5q60 53 60 131zM634 1065q3 -10 -6 -12q-8 -3 -19 2q-118 90 -164 134q-104 101 -104 176t68 75q36 0 84 -49t85 -139q10 -32 56 -187z" />
    <glyph glyph-name=".notdef.048" unicode="&#xe9;" horiz-adv-x="688" 
d="M762 775q0 -155 -132 -239q-124 -53 -249 -107q-133 -59 -133 -163q0 -173 112 -173q85 0 166.5 74t99.5 74q34 0 34 -31q0 -57 -99 -132q-106 -82 -203 -82q-129 0 -214 96.5t-85 231.5q0 224 191 413q181 179 380 179q64 0 98 -42t34 -99zM616 789q0 34 -20 34
q-124 0 -223 -129q-83 -110 -97 -217q46 44 146.5 97.5t133.5 83.5q60 53 60 131zM500 1065q46 155 56 187q37 90 85 139t84 49q68 0 68 -75t-104 -176q-46 -44 -164 -134q-11 -5 -19 -2q-9 2 -6 12z" />
    <glyph glyph-name=".notdef.044" unicode="&#xea;" horiz-adv-x="688" 
d="M762 775q0 -155 -132 -239q-124 -53 -249 -107q-133 -59 -133 -163q0 -173 112 -173q85 0 166.5 74t99.5 74q34 0 34 -31q0 -57 -99 -132q-106 -82 -203 -82q-129 0 -214 96.5t-85 231.5q0 224 191 413q181 179 380 179q64 0 98 -42t34 -99zM616 789q0 34 -20 34
q-124 0 -223 -129q-83 -110 -97 -217q46 44 146.5 97.5t133.5 83.5q60 53 60 131zM904 1127q7 -18 7 -32q0 -42 -46 -42q-33 0 -59 32l-99 131l-305 -156q-21 -10 -35 -10q-47 0 -47 49q0 28 19 45l357 267q40 29 63 22q21 -5 33 -36z" />
    <glyph glyph-name=".notdef.038" unicode="&#xec;" horiz-adv-x="437" 
d="M510 912q0 -59 -164 -358.5t-164 -408.5q0 -58 36 -58q64 0 95.5 66.5t61.5 66.5q34 0 34 -59q0 -80 -68 -132.5t-157 -52.5q-71 0 -111.5 55.5t-40.5 137.5q0 129 105 360t105 260q0 15 -39.5 22.5t-39.5 32.5q0 60 129 60q115 0 152 19t39 19q27 0 27 -30zM433 1065
q3 -10 -6 -12q-8 -3 -19 2q-118 90 -164 134q-104 101 -104 176t68 75q36 0 84 -49t85 -139q10 -32 56 -187z" />
    <glyph glyph-name=".notdef.037" unicode="&#xed;" horiz-adv-x="437" 
d="M510 912q0 -59 -164 -358.5t-164 -408.5q0 -58 36 -58q64 0 95.5 66.5t61.5 66.5q34 0 34 -59q0 -80 -68 -132.5t-157 -52.5q-71 0 -111.5 55.5t-40.5 137.5q0 129 105 360t105 260q0 15 -39.5 22.5t-39.5 32.5q0 60 129 60q115 0 152 19t39 19q27 0 27 -30zM390 1065
q46 155 56 187q37 90 85 139t84 49q68 0 68 -75t-104 -176q-46 -44 -164 -134q-11 -5 -19 -2q-9 2 -6 12z" />
    <glyph glyph-name=".notdef.033" unicode="&#xf2;" horiz-adv-x="817" 
d="M855 652q0 -254 -166 -458t-382 -204q-254 0 -254 272q0 235 188 449q182 209 369 209q119 0 184 -80q61 -71 61 -188zM673 743q0 78 -51 78q-118 0 -261 -227.5t-143 -415.5q0 -91 78 -91q153 0 270 217q107 204 107 439zM720 1065q3 -10 -6 -12q-8 -3 -19 2
q-118 90 -164 134q-104 101 -104 176t68 75q36 0 84 -49t85 -139q10 -32 56 -187z" />
    <glyph glyph-name=".notdef.032" unicode="&#xf3;" horiz-adv-x="817" 
d="M855 652q0 -254 -166 -458t-382 -204q-254 0 -254 272q0 235 188 449q182 209 369 209q119 0 184 -80q61 -71 61 -188zM673 743q0 78 -51 78q-118 0 -261 -227.5t-143 -415.5q0 -91 78 -91q153 0 270 217q107 204 107 439zM608 1065q46 155 56 187q37 90 85 139t84 49
q68 0 68 -75t-104 -176q-46 -44 -164 -134q-11 -5 -19 -2q-9 2 -6 12z" />
    <glyph glyph-name=".notdef.028" unicode="&#xf4;" horiz-adv-x="817" 
d="M855 652q0 -254 -166 -458t-382 -204q-254 0 -254 272q0 235 188 449q182 209 369 209q119 0 184 -80q61 -71 61 -188zM673 743q0 78 -51 78q-118 0 -261 -227.5t-143 -415.5q0 -91 78 -91q153 0 270 217q107 204 107 439zM920 1127q7 -18 7 -32q0 -42 -46 -42
q-33 0 -59 32l-99 131l-305 -156q-21 -10 -35 -10q-47 0 -47 49q0 28 19 45l357 267q40 29 63 22q21 -5 33 -36z" />
    <glyph glyph-name=".notdef.030" unicode="&#xf5;" horiz-adv-x="817" 
d="M855 652q0 -254 -166 -458t-382 -204q-254 0 -254 272q0 235 188 449q182 209 369 209q119 0 184 -80q61 -71 61 -188zM673 743q0 78 -51 78q-118 0 -261 -227.5t-143 -415.5q0 -91 78 -91q153 0 270 217q107 204 107 439zM964 1245q-72 -175 -207 -190q-51 -5 -122.5 25
t-120.5 27q-36 -3 -88 -40q-25 -17 -41 -17q-34 0 -18 38q77 159 208 171q47 7 110 -25t115 -28q33 3 95 50q28 28 53 28q21 0 21 -18q0 -10 -5 -21z" />
    <glyph glyph-name="divide" unicode="&#xf7;" horiz-adv-x="1655" 
 />
    <glyph glyph-name=".notdef.022" unicode="&#xf9;" horiz-adv-x="910" 
d="M974 912q0 -66 -144 -370.5t-144 -380.5t37 -76q39 0 82 62.5t57 62.5q34 0 34 -41q0 -46 -66 -116q-73 -77 -140 -75q-70 3 -109 43t-39 102q0 110 86 306q125 292 127 300q4 12 -4 14q-10 0 -14 -10q-193 -465 -330 -636q-98 -119 -200 -119q-76 0 -120 68
q-39 62 -39 145q0 125 122 321.5t122 306.5q0 32 -26 32q-48 0 -92.5 -62.5t-60.5 -62.5q-32 0 -32 43q0 55 62 119q69 71 151 71q151 0 151 -232q0 -96 -68 -228q-17 -38 -123 -213q-67 -111 -67 -155q0 -63 44 -63q76 0 258 334q173 317 173 387q0 15 -40 22.5t-40 32.5
q0 60 129 60q115 0 174 19t61 19q28 0 28 -30zM635 1065q3 -10 -6 -12q-8 -3 -19 2q-118 90 -164 134q-104 101 -104 176t68 75q36 0 84 -49t85 -139q10 -32 56 -187z" />
    <glyph glyph-name=".notdef.021" unicode="&#xfa;" horiz-adv-x="910" 
d="M974 912q0 -66 -144 -370.5t-144 -380.5t37 -76q39 0 82 62.5t57 62.5q34 0 34 -41q0 -46 -66 -116q-73 -77 -140 -75q-70 3 -109 43t-39 102q0 110 86 306q125 292 127 300q4 12 -4 14q-10 0 -14 -10q-193 -465 -330 -636q-98 -119 -200 -119q-76 0 -120 68
q-39 62 -39 145q0 125 122 321.5t122 306.5q0 32 -26 32q-48 0 -92.5 -62.5t-60.5 -62.5q-32 0 -32 43q0 55 62 119q69 71 151 71q151 0 151 -232q0 -96 -68 -228q-17 -38 -123 -213q-67 -111 -67 -155q0 -63 44 -63q76 0 258 334q173 317 173 387q0 15 -40 22.5t-40 32.5
q0 60 129 60q115 0 174 19t61 19q28 0 28 -30zM600 1065q46 155 56 187q37 90 85 139t84 49q68 0 68 -75t-104 -176q-46 -44 -164 -134q-11 -5 -19 -2q-9 2 -6 12z" />
    <glyph glyph-name=".notdef.004" unicode="&#xfd;" horiz-adv-x="848" 
d="M940 857q0 -6 -34 -42q-42 -48 -76 -112q-49 -95 -93 -250q-58 -201 -83 -271q-199 -523 -571 -523q-97 0 -168 39q-86 48 -86 131q0 42 29 72.5t70 30.5q34 0 59 -22.5t25 -56.5q0 -67 -56 -88q52 -31 124 -31q75 0 181.5 91.5t167.5 212.5q38 74 169 423
q94 250 194 352q4 4 4 8q0 5 -7 7q-6 2 -10 -2q-104 -93 -199 -324q-143 -343 -151 -359q-91 -169 -209 -169q-75 0 -115.5 57.5t-40.5 139.5q0 125 114 315.5t114 300.5q0 32 -26 32q-48 0 -92.5 -62.5t-60.5 -62.5q-32 0 -32 43q0 55 62 120q69 70 151 70q83 0 125 -72
q36 -63 36 -152q0 -125 -117.5 -327.5t-117.5 -244.5q0 -63 36 -63q51 0 110 123q63 145 127 290q95 209 204 349q72 93 167 93q30 0 53 -18.5t23 -47.5zM600 1065q46 155 56 187q37 90 85 139t84 49q68 0 68 -75t-104 -176q-46 -44 -164 -134q-11 -5 -19 -2q-9 2 -6 12z
" />
    <glyph glyph-name=".notdef.118" unicode="&#x102;" horiz-adv-x="1704" 
d="M1981 1297q-2 -10 -32 -18q-155 -41 -241 -195q-63 -115 -110 -347q116 22 116 99q0 10 -16.5 25t-16.5 39q0 65 55 65q88 0 88 -114q0 -76 -64.5 -131t-182.5 -70q-85 -430 -218 -646q-4 -28 -32 -20q-21 6 -16.5 31t-9.5 44t-42 19q-61 0 -105 -17q-60 -23 -147 -95
q-23 -19 -40 6q-15 24 13 34q206 176 383 616q-52 -4 -302 -14q-173 -314 -284 -431q-175 -185 -423 -209q-138 -14 -235 74.5t-97 221.5q0 28 6 56q78 433 825 433q57 0 121 -2q214 360 341 466q120 102 197 142q105 51 230 51q135 0 225 -83q18 -16 14 -30zM1780 1311
q-24 4 -38 4q-303 0 -608 -574q237 -14 271 -14q111 292 159 376q93 171 216 208zM882 602q-342 -12 -512 -73q-229 -80 -229 -258q0 -100 54 -152q46 -43 114 -43q247 0 573 526zM2155 1752q-213 -232 -351 -232q-71 0 -95 12q-74 42 -108 234q-7 16 -7 28q0 35 45 35
q34 0 57 -27q41 -115 98 -115q110 0 300 137q20 9 34 9q48 0 48 -43q0 -24 -21 -38z" />
    <glyph glyph-name=".notdef.055" unicode="&#x103;" 
d="M967 760q9 -74 -61 -97l-175 -430q-20 -51 -20 -86q0 -44 38 -44t62.5 60.5t36.5 60.5q36 0 36 -59q0 -53 -50.5 -109t-116.5 -56q-67 0 -115 32q-54 38 -54 101q0 34 32 119l127 346q8 24 -10 24q-13 0 -22 -23l-125 -343q-40 -109 -113 -188q-79 -84 -153 -84
q-113 0 -172 77q-55 68 -55 178q0 265 193 470q201 212 473 212q92 0 165 -45.5t79 -115.5zM851 791q-34 39 -116 39q-225 0 -363 -222q-120 -191 -120 -431q0 -26 17 -52t35 -26q37 0 88 52t77 115l166 422h178q-15 17 -15 38q0 43 53 65zM1139 1284q-213 -232 -351 -232
q-71 0 -95 12q-74 42 -108 234q-7 16 -7 28q0 35 45 35q34 0 57 -27q41 -115 98 -115q110 0 300 137q20 9 34 9q48 0 48 -43q0 -24 -21 -38z" />
    <glyph glyph-name="Ccaron" unicode="&#x10c;" horiz-adv-x="1274" 
 />
    <glyph glyph-name="ccaron" unicode="&#x10d;" horiz-adv-x="922" 
 />
    <glyph glyph-name="Dslash" unicode="&#x110;" horiz-adv-x="1609" 
d="M1579 1249q0 -36 -21 -63.5t-53 -27.5q-57 0 -57 46q0 6 4 26q2 12 -2 17.5t-21 5.5q-36 0 -70 -29q85 -90 144 -237q70 -170 70 -352q0 -273 -147 -466q-158 -209 -410 -209q-62 0 -116 9t-106 9q-100 0 -242 -48q-23 -19 -48 9q-17 21 6 47q121 129 284 469h-69l70 143
h65l2 4q211 469 332 606q-125 100 -326 100q-278 0 -485.5 -202t-207.5 -473q0 -95 49 -168q54 -80 136 -80q121 0 208 125q80 116 80 252q0 156 -90 156q-79 0 -133.5 -49.5t-54.5 -135.5q0 -12 52 -36t52 -85q0 -30 -25.5 -53t-59.5 -23q-55 0 -87 62q-27 52 -27 123
q0 145 108 263q104 110 219 110q213 0 213 -307q0 -183 -138 -338q-144 -165 -338 -165q-142 0 -243.5 111t-101.5 261q0 315 260 538q254 218 599 218q265 0 436 -127q89 57 183 57q40 0 73.5 -27.5t33.5 -65.5zM1279 598l-70 -143h-150q-97 -239 -185 -368q95 -11 129 -11
q157 0 258 220q90 193 90 431q0 103 -22 225q-21 115 -48 157q-86 -292 -167 -511h165z" />
    <glyph glyph-name="dcroat" unicode="&#x111;" horiz-adv-x="769" 
d="M907 1189v-88h-97q20 -83 20 -180q0 -369 -180 -659q-176 -278 -375 -278q-110 0 -178 122q-57 103 -57 230q0 242 151.5 420t376.5 178q48 0 62 -24q7 15 7 77t-7 114h-168v90l149 -1q-50 163 -202 163q-43 0 -64 -26q34 -40 27 -83q-12 -68 -82 -68q-34 0 -58.5 24
t-24.5 57q0 76 70 131.5t156 55.5q183 0 294 -155q32 -46 55 -100h125zM618 684q0 69 -2 83q-12 52 -55 52q-138 0 -245 -182q-102 -172 -102 -371q0 -188 72 -188q108 0 228 276q104 236 104 330z" />
    <glyph glyph-name=".notdef.102" unicode="&#x128;" horiz-adv-x="1268" 
d="M1581 1331q4 -22 -30 -44q-55 -38 -57 -40q-145 -134 -364 -745q-103 -288 -288 -417q-177 -125 -461 -125q-119 0 -208 54q-101 62 -101 161q0 47 22.5 85t64.5 38q32 0 57.5 -21t25.5 -51q0 -42 -32 -59.5t-32 -27.5q0 -80 160 -80q195 0 343 163q86 94 233 354
q83 171 165 344q119 212 320 331q-17 0 -54 -7.5t-64 -7.5q-73 0 -264 26.5t-278 26.5q-231 0 -409.5 -180t-178.5 -414q0 -115 58 -200q64 -95 164 -95q133 0 223 127q83 117 83 265q0 175 -114 175q-84 0 -138 -66.5t-54 -155.5q0 -80 42 -80q12 0 23 19t25 19
q22 0 31.5 -23.5t6.5 -51.5q-6 -42 -38 -68.5t-74 -26.5q-59 0 -95 59q-30 54 -30 125q0 141 106.5 258t243.5 117q103 0 160.5 -65.5t61.5 -178.5q6 -215 -129 -378q-139 -168 -339 -168q-144 0 -231 137q-78 122 -78 290q0 292 211 497t507 205q107 0 287.5 -54t254.5 -54
q40 0 98.5 18t96.5 18q63 0 67 -28zM1743 1714q-72 -175 -207 -190q-51 -5 -122.5 25t-120.5 27q-36 -3 -88 -40q-25 -17 -41 -17q-34 0 -18 38q77 159 208 171q47 7 110 -25t115 -28q33 3 95 50q28 28 53 28q21 0 21 -18q0 -10 -5 -21z" />
    <glyph glyph-name=".notdef.035" unicode="&#x129;" horiz-adv-x="413" 
d="M510 912q0 -59 -164 -358.5t-164 -408.5q0 -58 36 -58q64 0 95.5 66.5t61.5 66.5q34 0 34 -59q0 -80 -68 -132.5t-157 -52.5q-71 0 -111.5 55.5t-40.5 137.5q0 129 105 360t105 260q0 15 -39.5 22.5t-39.5 32.5q0 60 129 60q115 0 152 19t39 19q27 0 27 -30zM718 1245
q-72 -175 -207 -190q-51 -5 -122.5 25t-120.5 27q-36 -3 -88 -40q-25 -17 -41 -17q-34 0 -18 38q77 159 208 171q47 7 110 -25t115 -28q33 3 95 50q28 28 53 28q21 0 21 -18q0 -10 -5 -21z" />
    <glyph glyph-name=".notdef.085" unicode="&#x168;" horiz-adv-x="1778" 
d="M1947 1240q-82 -256 -260 -674q-150 -352 -150 -384q0 -39 4 -51q6 -21 36 -21q54 0 86 41q14 20 37 80q16 42 34 42q36 0 36 -68q0 -78 -75.5 -150t-166.5 -72q-154 0 -154 164q0 54 112 308q165 377 222 531q6 13 -6 15q-9 2 -15 -12q-91 -210 -182 -419
q-123 -266 -231 -403q-146 -179 -296 -179q-104 0 -171.5 52.5t-67.5 141.5q0 120 109 311q100 159 201 320q105 174 103 258q-7 248 -268 248q-276 0 -499 -265q-214 -254 -214 -527q0 -91 47 -163q55 -78 131 -78q120 0 203 121q78 112 78 245q0 127 -86 150q-15 4 -34 4
q-65 0 -110.5 -59t-37.5 -135q2 -10 51.5 -28t49.5 -78q0 -73 -72 -73q-55 0 -91 60q-32 51 -32 119q0 141 95.5 244t206.5 103q207 0 207 -299q0 -177 -125 -321q-133 -152 -320 -152q-137 0 -229.5 108.5t-92.5 252.5q0 342 263 609t607 267q204 0 339 -109
q142 -117 142 -306q0 -151 -100 -330q-19 -37 -180 -281q-99 -148 -99 -223q0 -63 43 -63q145 0 362 415q118 226 298 669q21 55 55 55h91q19 0 44.5 12.5t39.5 12.5q38 0 32 -36zM1918 1714q-72 -175 -207 -190q-51 -5 -122.5 25t-120.5 27q-36 -3 -88 -40q-25 -17 -41 -17
q-34 0 -18 38q77 159 208 171q47 7 110 -25t115 -28q33 3 95 50q28 28 53 28q21 0 21 -18q0 -10 -5 -21z" />
    <glyph glyph-name=".notdef.019" unicode="&#x169;" horiz-adv-x="910" 
d="M974 912q0 -66 -144 -370.5t-144 -380.5t37 -76q39 0 82 62.5t57 62.5q34 0 34 -41q0 -46 -66 -116q-73 -77 -140 -75q-70 3 -109 43t-39 102q0 95 86 294q111 254 127 312q4 12 -6 14q-8 0 -12 -10q-193 -465 -330 -636q-98 -119 -200 -119q-76 0 -120 68
q-39 62 -39 145q0 125 122 321.5t122 306.5q0 32 -26 32q-48 0 -92.5 -62.5t-60.5 -62.5q-32 0 -32 43q0 55 62 119q69 71 151 71q151 0 151 -232q0 -96 -68 -228q-17 -38 -123 -213q-67 -111 -67 -155q0 -63 44 -63q76 0 258 334q173 317 173 387q0 15 -40 22.5t-40 32.5
q0 60 129 60q115 0 174 19t61 19q28 0 28 -30zM995 1245q-72 -175 -207 -190q-51 -5 -122.5 25t-120.5 27q-36 -3 -88 -40q-25 -17 -41 -17q-34 0 -18 38q77 159 208 171q47 7 110 -25t115 -28q33 3 95 50q28 28 53 28q21 0 21 -18q0 -10 -5 -21z" />
    <glyph glyph-name=".notdef.077" unicode="&#x1a0;" horiz-adv-x="1708" 
d="M1928 1323q-9 -59 -66 -155q-78 -115 -204 -167q-3 -12 -7 -23q17 -51 17 -106q0 -302 -156 -523q-130 -178 -340 -279q-175 -84 -324 -84q-217 0 -351 151q-131 145 -131 356q0 19 4 68q-231 -91 -231 -269q0 -103 60 -103q10 0 20 35.5t52 35.5q67 0 67 -83
q0 -58 -48.5 -92t-107.5 -34q-79 0 -127 70q-39 59 -39 133q0 159 111 275q93 97 275 168q91 279 360 483q285 213 601 213q123 0 210 -66q101 -76 101 -209q0 -31 -4 -59q69 32 100 87q-34 -2 -49 26t-9 66q12 68 58.5 121.5t95.5 53.5q78 0 62 -90zM1460 783
q-184 -131 -533 -150q-6 -21 -6 -53q0 -83 44 -83q17 0 36.5 18t31.5 18q63 0 63 -88q0 -49 -44.5 -79t-97.5 -25q-80 10 -120 86q-36 64 -36 157v47q-97 0 -174 -9q-20 -72 -20 -141q0 -153 54 -257q65 -125 190 -125q177 0 371 185q225 211 241 499zM1537 1128v15
q0 70 -65 112q-58 36 -133 36q-177 0 -370 -159q-178 -148 -283 -357l167 29q70 157 219.5 257.5t314.5 106.5q91 4 150 -40zM1435 954q-27 71 -93 71q-222 0 -343 -199q322 52 436 128z" />
    <glyph glyph-name=".notdef.011" unicode="&#x1a1;" horiz-adv-x="811" 
d="M1005 909q-7 -48 -53 -126q-60 -88 -154 -131q0 -254 -165.5 -458t-380.5 -204q-254 0 -254 272q0 235 186 449q184 209 370 209q119 0 185 -80q48 -58 57 -146q56 26 81 71q-28 -2 -40 21t-7 54q9 55 47 98.5t78 43.5q63 0 50 -73zM618 743q0 78 -52 78
q-117 0 -260 -227.5t-143 -415.5q0 -91 78 -91q153 0 269 217q108 204 108 439z" />
    <glyph glyph-name=".notdef.083" unicode="&#x1af;" horiz-adv-x="1860" 
d="M2197 1323q-9 -59 -66 -155q-100 -147 -277 -191q-69 -181 -167 -411q-150 -352 -150 -384q0 -39 4 -51q6 -21 36 -21q54 0 86 41q14 20 37 80q16 42 34 42q36 0 36 -68q0 -78 -75.5 -150t-166.5 -72q-154 0 -154 164q0 54 112 308q165 377 222 531q6 13 -6 15
q-9 2 -15 -12q-91 -210 -182 -419q-123 -266 -231 -403q-146 -179 -296 -179q-104 0 -171.5 52.5t-67.5 141.5q0 120 109 311q100 159 201 320q105 174 103 258q-7 248 -268 248q-276 0 -499 -265q-214 -254 -214 -527q0 -91 47 -163q55 -78 131 -78q120 0 203 121
q78 112 78 245q0 127 -86 150q-15 4 -34 4q-65 0 -110.5 -59t-37.5 -135q2 -10 51.5 -28t49.5 -78q0 -73 -72 -73q-55 0 -91 60q-32 51 -32 119q0 141 95.5 244t206.5 103q207 0 207 -299q0 -177 -125 -321q-133 -152 -320 -152q-137 0 -229.5 108.5t-92.5 252.5
q0 342 263 609t607 267q204 0 339 -109q142 -117 142 -306q0 -151 -100 -330q-19 -37 -180 -281q-99 -148 -99 -223q0 -63 43 -63q145 0 362 415q118 226 298 669q21 55 55 55h91q19 0 44.5 12.5t39.5 12.5q38 0 32 -36q-29 -91 -71 -203q119 31 163 109q-34 -2 -49 26
t-9 66q12 68 58.5 121.5t95.5 53.5q78 0 62 -90z" />
    <glyph glyph-name=".notdef.017" unicode="&#x1b0;" horiz-adv-x="969" 
d="M1171 909q-7 -48 -53 -126q-85 -124 -248 -156q-19 -40 -40 -86q-144 -304 -144 -380t37 -76q39 0 82 62.5t57 62.5q34 0 34 -41q0 -46 -66 -116q-73 -77 -140 -75q-70 3 -109 43t-39 102q0 95 86 294q111 254 127 312q4 12 -6 14q-8 0 -12 -10q-193 -465 -330 -636
q-98 -119 -200 -119q-76 0 -120 68q-39 62 -39 145q0 125 122 321.5t122 306.5q0 32 -26 32q-48 0 -92.5 -62.5t-60.5 -62.5q-32 0 -32 43q0 55 62 119q69 71 151 71q151 0 151 -232q0 -96 -68 -228q-17 -38 -123 -213q-67 -111 -67 -155q0 -63 44 -63q76 0 258 334
q173 317 173 387q0 15 -40 22.5t-40 32.5q0 60 129 60q115 0 174 19t61 19q28 0 28 -30q0 -50 -82 -236q114 23 151 89q-28 -2 -40 21t-7 54q9 55 47 98.5t78 43.5q63 0 50 -73z" />
    <glyph glyph-name=".notdef.111" unicode="&#x1ea0;" horiz-adv-x="1704" 
d="M1981 1297q-2 -10 -32 -18q-155 -41 -241 -195q-63 -115 -110 -347q116 22 116 99q0 10 -16.5 25t-16.5 39q0 65 55 65q88 0 88 -114q0 -76 -64.5 -131t-182.5 -70q-85 -430 -218 -646q-4 -28 -32 -20q-21 6 -16.5 31t-9.5 44t-42 19q-61 0 -105 -17q-60 -23 -147 -95
q-23 -19 -40 6q-15 24 13 34q206 176 383 616q-52 -4 -302 -14q-173 -314 -284 -431q-175 -185 -423 -209q-138 -14 -235 74.5t-97 221.5q0 28 6 56q78 433 825 433q57 0 121 -2q214 360 341 466q120 102 197 142q105 51 230 51q135 0 225 -83q18 -16 14 -30zM1780 1311
q-24 4 -38 4q-303 0 -608 -574q237 -14 271 -14q111 292 159 376q93 171 216 208zM882 602q-342 -12 -512 -73q-229 -80 -229 -258q0 -100 54 -152q46 -43 114 -43q247 0 573 526zM876 -158q0 -54 -22 -93q-27 -45 -71 -45q-27 0 -44.5 22.5t-17.5 49.5q0 53 29 94.5
t66 41.5q60 0 60 -70z" />
    <glyph glyph-name=".notdef.062" unicode="&#x1ea1;" 
d="M967 760q9 -74 -61 -97l-175 -430q-20 -51 -20 -86q0 -44 38 -44t62.5 60.5t36.5 60.5q36 0 36 -59q0 -53 -50.5 -109t-116.5 -56q-67 0 -115 32q-54 38 -54 101q0 34 32 119l127 346q8 24 -10 24q-13 0 -22 -23l-125 -343q-40 -109 -113 -188q-79 -84 -153 -84
q-113 0 -172 77q-55 68 -55 178q0 265 193 470q201 212 473 212q92 0 165 -45.5t79 -115.5zM851 791q-34 39 -116 39q-225 0 -363 -222q-120 -191 -120 -431q0 -26 17 -52t35 -26q37 0 88 52t77 115l166 422h178q-15 17 -15 38q0 43 53 65zM445 -158q0 -54 -22 -93
q-27 -45 -71 -45q-27 0 -44.5 22.5t-17.5 49.5q0 53 29 94.5t66 41.5q60 0 60 -70z" />
    <glyph glyph-name=".notdef.109" unicode="&#x1ea2;" horiz-adv-x="1704" 
d="M1981 1297q-2 -10 -32 -18q-155 -41 -241 -195q-63 -115 -110 -347q116 22 116 99q0 10 -16.5 25t-16.5 39q0 65 55 65q88 0 88 -114q0 -76 -64.5 -131t-182.5 -70q-85 -430 -218 -646q-4 -28 -32 -20q-21 6 -16.5 31t-9.5 44t-42 19q-61 0 -105 -17q-60 -23 -147 -95
q-23 -19 -40 6q-15 24 13 34q206 176 383 616q-52 -4 -302 -14q-173 -314 -284 -431q-175 -185 -423 -209q-138 -14 -235 74.5t-97 221.5q0 28 6 56q78 433 825 433q57 0 121 -2q214 360 341 466q120 102 197 142q105 51 230 51q135 0 225 -83q18 -16 14 -30zM1780 1311
q-24 4 -38 4q-303 0 -608 -574q237 -14 271 -14q111 292 159 376q93 171 216 208zM882 602q-342 -12 -512 -73q-229 -80 -229 -258q0 -100 54 -152q46 -43 114 -43q247 0 573 526zM2072 1750q-35 -64 -138.5 -108t-104.5 -122h-69q-13 70 64.5 136.5t121.5 114.5
q48 78 -57 84h-6q12 -18 -2 -58q-40 -80 -120 -80q-34 0 -46 29t7 63q31 63 97.5 101.5t132.5 38.5q86 0 125 -58.5t-5 -140.5z" />
    <glyph glyph-name=".notdef.064" unicode="&#x1ea3;" 
d="M967 760q9 -74 -61 -97l-175 -430q-20 -51 -20 -86q0 -44 38 -44t62.5 60.5t36.5 60.5q36 0 36 -59q0 -53 -50.5 -109t-116.5 -56q-67 0 -115 32q-54 38 -54 101q0 34 32 119l127 346q8 24 -10 24q-13 0 -22 -23l-125 -343q-40 -109 -113 -188q-79 -84 -153 -84
q-113 0 -172 77q-55 68 -55 178q0 265 193 470q201 212 473 212q92 0 165 -45.5t79 -115.5zM851 791q-34 39 -116 39q-225 0 -363 -222q-120 -191 -120 -431q0 -26 17 -52t35 -26q37 0 88 52t77 115l166 422h178q-15 17 -15 38q0 43 53 65zM994 1279q-35 -64 -138.5 -108
t-104.5 -122h-69q-13 70 64.5 136.5t121.5 114.5q48 78 -57 84h-6q12 -18 -2 -58q-40 -80 -120 -80q-34 0 -46 29t7 63q31 63 97.5 101.5t132.5 38.5q86 0 125 -58.5t-5 -140.5z" />
    <glyph glyph-name=".notdef.114" unicode="&#x1ea4;" horiz-adv-x="1927" 
d="M1981 1297q-2 -10 -32 -18q-155 -41 -241 -195q-63 -115 -110 -347q116 22 116 99q0 10 -16.5 25t-16.5 39q0 65 55 65q88 0 88 -114q0 -76 -64.5 -131t-182.5 -70q-85 -430 -218 -646q-4 -28 -32 -20q-21 6 -16.5 31t-9.5 44t-42 19q-61 0 -105 -17q-60 -23 -147 -95
q-23 -19 -40 6q-15 24 13 34q206 176 383 616q-52 -4 -302 -14q-173 -314 -284 -431q-175 -185 -423 -209q-138 -14 -235 74.5t-97 221.5q0 28 6 56q78 433 825 433q57 0 121 -2q214 360 341 466q120 102 197 142q105 51 230 51q135 0 225 -83q18 -16 14 -30zM1780 1311
q-24 4 -38 4q-303 0 -608 -574q237 -14 271 -14q111 292 159 376q93 171 216 208zM882 602q-342 -12 -512 -73q-229 -80 -229 -258q0 -100 54 -152q46 -43 114 -43q247 0 573 526zM2076 1597q7 -18 7 -32q0 -42 -46 -42q-33 0 -59 32l-99 131l-305 -156q-21 -10 -35 -10
q-47 0 -47 49q0 28 19 45l357 267q40 29 63 22q21 -5 33 -36zM2073 1759q46 155 56 187q37 90 85 139t84 49q68 0 68 -75t-104 -176q-46 -44 -164 -134q-11 -5 -19 -2q-9 2 -6 12z" />
    <glyph glyph-name=".notdef.059" unicode="&#x1ea5;" 
d="M967 760q9 -74 -61 -97l-175 -430q-20 -51 -20 -86q0 -44 38 -44t62.5 60.5t36.5 60.5q36 0 36 -59q0 -53 -50.5 -109t-116.5 -56q-67 0 -115 32q-54 38 -54 101q0 34 32 119l127 346q8 24 -10 24q-13 0 -22 -23l-125 -343q-40 -109 -113 -188q-79 -84 -153 -84
q-113 0 -172 77q-55 68 -55 178q0 265 193 470q201 212 473 212q92 0 165 -45.5t79 -115.5zM851 791q-34 39 -116 39q-225 0 -363 -222q-120 -191 -120 -431q0 -26 17 -52t35 -26q37 0 88 52t77 115l166 422h178q-15 17 -15 38q0 43 53 65zM984 1127q7 -18 7 -32
q0 -42 -46 -42q-33 0 -59 32l-99 131l-305 -156q-21 -10 -35 -10q-47 0 -47 49q0 28 19 45l357 267q40 29 63 22q21 -5 33 -36zM978 1300q46 155 56 187q37 90 85 139t84 49q68 0 68 -75t-104 -176q-46 -44 -164 -134q-11 -5 -19 -2q-9 2 -6 12z" />
    <glyph glyph-name=".notdef.113" unicode="&#x1ea6;" horiz-adv-x="1927" 
d="M1981 1297q-2 -10 -32 -18q-155 -41 -241 -195q-63 -115 -110 -347q116 22 116 99q0 10 -16.5 25t-16.5 39q0 65 55 65q88 0 88 -114q0 -76 -64.5 -131t-182.5 -70q-85 -430 -218 -646q-4 -28 -32 -20q-21 6 -16.5 31t-9.5 44t-42 19q-61 0 -105 -17q-60 -23 -147 -95
q-23 -19 -40 6q-15 24 13 34q206 176 383 616q-52 -4 -302 -14q-173 -314 -284 -431q-175 -185 -423 -209q-138 -14 -235 74.5t-97 221.5q0 28 6 56q78 433 825 433q57 0 121 -2q214 360 341 466q120 102 197 142q105 51 230 51q135 0 225 -83q18 -16 14 -30zM1780 1311
q-24 4 -38 4q-303 0 -608 -574q237 -14 271 -14q111 292 159 376q93 171 216 208zM882 602q-342 -12 -512 -73q-229 -80 -229 -258q0 -100 54 -152q46 -43 114 -43q247 0 573 526zM2076 1597q7 -18 7 -32q0 -42 -46 -42q-33 0 -59 32l-99 131l-305 -156q-21 -10 -35 -10
q-47 0 -47 49q0 28 19 45l357 267q40 29 63 22q21 -5 33 -36zM2245 1758q3 -10 -6 -12q-8 -3 -19 2q-118 90 -164 134q-104 101 -104 176t68 75q36 0 84 -49t85 -139q10 -32 56 -187z" />
    <glyph glyph-name=".notdef.060" unicode="&#x1ea7;" 
d="M967 760q9 -74 -61 -97l-175 -430q-20 -51 -20 -86q0 -44 38 -44t62.5 60.5t36.5 60.5q36 0 36 -59q0 -53 -50.5 -109t-116.5 -56q-67 0 -115 32q-54 38 -54 101q0 34 32 119l127 346q8 24 -10 24q-13 0 -22 -23l-125 -343q-40 -109 -113 -188q-79 -84 -153 -84
q-113 0 -172 77q-55 68 -55 178q0 265 193 470q201 212 473 212q92 0 165 -45.5t79 -115.5zM851 791q-34 39 -116 39q-225 0 -363 -222q-120 -191 -120 -431q0 -26 17 -52t35 -26q37 0 88 52t77 115l166 422h178q-15 17 -15 38q0 43 53 65zM984 1127q7 -18 7 -32
q0 -42 -46 -42q-33 0 -59 32l-99 131l-305 -156q-21 -10 -35 -10q-47 0 -47 49q0 28 19 45l357 267q40 29 63 22q21 -5 33 -36zM1151 1300q3 -10 -6 -12q-8 -3 -19 2q-118 90 -164 134q-104 101 -104 176t68 75q36 0 84 -49t85 -139q10 -32 56 -187z" />
    <glyph glyph-name=".notdef.115" unicode="&#x1ea8;" horiz-adv-x="1927" 
d="M1981 1297q-2 -10 -32 -18q-155 -41 -241 -195q-63 -115 -110 -347q116 22 116 99q0 10 -16.5 25t-16.5 39q0 65 55 65q88 0 88 -114q0 -76 -64.5 -131t-182.5 -70q-85 -430 -218 -646q-4 -28 -32 -20q-21 6 -16.5 31t-9.5 44t-42 19q-61 0 -105 -17q-60 -23 -147 -95
q-23 -19 -40 6q-15 24 13 34q206 176 383 616q-52 -4 -302 -14q-173 -314 -284 -431q-175 -185 -423 -209q-138 -14 -235 74.5t-97 221.5q0 28 6 56q78 433 825 433q57 0 121 -2q214 360 341 466q120 102 197 142q105 51 230 51q135 0 225 -83q18 -16 14 -30zM1780 1311
q-24 4 -38 4q-303 0 -608 -574q237 -14 271 -14q111 292 159 376q93 171 216 208zM882 602q-342 -12 -512 -73q-229 -80 -229 -258q0 -100 54 -152q46 -43 114 -43q247 0 573 526zM2076 1597q7 -18 7 -32q0 -42 -46 -42q-33 0 -59 32l-99 131l-305 -156q-21 -10 -35 -10
q-47 0 -47 49q0 28 19 45l357 267q40 29 63 22q21 -5 33 -36zM2385 1975q-35 -64 -138.5 -108t-104.5 -122h-69q-13 70 64.5 136.5t121.5 114.5q48 78 -57 84h-6q12 -18 -2 -58q-40 -80 -120 -80q-34 0 -46 29t7 63q31 63 97.5 101.5t132.5 38.5q86 0 125 -58.5t-5 -140.5z
" />
    <glyph glyph-name=".notdef.058" unicode="&#x1ea9;" 
d="M967 760q9 -74 -61 -97l-175 -430q-20 -51 -20 -86q0 -44 38 -44t62.5 60.5t36.5 60.5q36 0 36 -59q0 -53 -50.5 -109t-116.5 -56q-67 0 -115 32q-54 38 -54 101q0 34 32 119l127 346q8 24 -10 24q-13 0 -22 -23l-125 -343q-40 -109 -113 -188q-79 -84 -153 -84
q-113 0 -172 77q-55 68 -55 178q0 265 193 470q201 212 473 212q92 0 165 -45.5t79 -115.5zM851 791q-34 39 -116 39q-225 0 -363 -222q-120 -191 -120 -431q0 -26 17 -52t35 -26q37 0 88 52t77 115l166 422h178q-15 17 -15 38q0 43 53 65zM984 1127q7 -18 7 -32
q0 -42 -46 -42q-33 0 -59 32l-99 131l-305 -156q-21 -10 -35 -10q-47 0 -47 49q0 28 19 45l357 267q40 29 63 22q21 -5 33 -36zM1284 1519q-35 -64 -138.5 -108t-104.5 -122h-69q-13 70 64.5 136.5t121.5 114.5q48 78 -57 84h-6q12 -18 -2 -58q-40 -80 -120 -80
q-34 0 -46 29t7 63q31 63 97.5 101.5t132.5 38.5q86 0 125 -58.5t-5 -140.5z" />
    <glyph glyph-name=".notdef.116" unicode="&#x1eaa;" horiz-adv-x="1927" 
d="M1981 1297q-2 -10 -32 -18q-155 -41 -241 -195q-63 -115 -110 -347q116 22 116 99q0 10 -16.5 25t-16.5 39q0 65 55 65q88 0 88 -114q0 -76 -64.5 -131t-182.5 -70q-85 -430 -218 -646q-4 -28 -32 -20q-21 6 -16.5 31t-9.5 44t-42 19q-61 0 -105 -17q-60 -23 -147 -95
q-23 -19 -40 6q-15 24 13 34q206 176 383 616q-52 -4 -302 -14q-173 -314 -284 -431q-175 -185 -423 -209q-138 -14 -235 74.5t-97 221.5q0 28 6 56q78 433 825 433q57 0 121 -2q214 360 341 466q120 102 197 142q105 51 230 51q135 0 225 -83q18 -16 14 -30zM1780 1311
q-24 4 -38 4q-303 0 -608 -574q237 -14 271 -14q111 292 159 376q93 171 216 208zM882 602q-342 -12 -512 -73q-229 -80 -229 -258q0 -100 54 -152q46 -43 114 -43q247 0 573 526zM2076 1597q7 -18 7 -32q0 -42 -46 -42q-33 0 -59 32l-99 131l-305 -156q-21 -10 -35 -10
q-47 0 -47 49q0 28 19 45l357 267q40 29 63 22q21 -5 33 -36zM2247 2142q-72 -175 -207 -190q-51 -5 -122.5 25t-120.5 27q-36 -3 -88 -40q-25 -17 -41 -17q-34 0 -18 38q77 159 208 171q47 7 110 -25t115 -28q33 3 95 50q28 28 53 28q21 0 21 -18q0 -10 -5 -21z" />
    <glyph glyph-name=".notdef.057" unicode="&#x1eab;" 
d="M967 760q9 -74 -61 -97l-175 -430q-20 -51 -20 -86q0 -44 38 -44t62.5 60.5t36.5 60.5q36 0 36 -59q0 -53 -50.5 -109t-116.5 -56q-67 0 -115 32q-54 38 -54 101q0 34 32 119l127 346q8 24 -10 24q-13 0 -22 -23l-125 -343q-40 -109 -113 -188q-79 -84 -153 -84
q-113 0 -172 77q-55 68 -55 178q0 265 193 470q201 212 473 212q92 0 165 -45.5t79 -115.5zM851 791q-34 39 -116 39q-225 0 -363 -222q-120 -191 -120 -431q0 -26 17 -52t35 -26q37 0 88 52t77 115l166 422h178q-15 17 -15 38q0 43 53 65zM984 1127q7 -18 7 -32
q0 -42 -46 -42q-33 0 -59 32l-99 131l-305 -156q-21 -10 -35 -10q-47 0 -47 49q0 28 19 45l357 267q40 29 63 22q21 -5 33 -36zM1150 1687q-72 -175 -207 -190q-51 -5 -122.5 25t-120.5 27q-36 -3 -88 -40q-25 -17 -41 -17q-34 0 -18 38q77 159 208 171q47 7 110 -25
t115 -28q33 3 95 50q28 28 53 28q21 0 21 -18q0 -10 -5 -21z" />
    <glyph glyph-name=".notdef.117" unicode="&#x1eac;" horiz-adv-x="1927" 
d="M1981 1297q-2 -10 -32 -18q-155 -41 -241 -195q-63 -115 -110 -347q116 22 116 99q0 10 -16.5 25t-16.5 39q0 65 55 65q88 0 88 -114q0 -76 -64.5 -131t-182.5 -70q-85 -430 -218 -646q-4 -28 -32 -20q-21 6 -16.5 31t-9.5 44t-42 19q-61 0 -105 -17q-60 -23 -147 -95
q-23 -19 -40 6q-15 24 13 34q206 176 383 616q-52 -4 -302 -14q-173 -314 -284 -431q-175 -185 -423 -209q-138 -14 -235 74.5t-97 221.5q0 28 6 56q78 433 825 433q57 0 121 -2q214 360 341 466q120 102 197 142q105 51 230 51q135 0 225 -83q18 -16 14 -30zM1780 1311
q-24 4 -38 4q-303 0 -608 -574q237 -14 271 -14q111 292 159 376q93 171 216 208zM882 602q-342 -12 -512 -73q-229 -80 -229 -258q0 -100 54 -152q46 -43 114 -43q247 0 573 526zM2076 1597q7 -18 7 -32q0 -42 -46 -42q-33 0 -59 32l-99 131l-305 -156q-21 -10 -35 -10
q-47 0 -47 49q0 28 19 45l357 267q40 29 63 22q21 -5 33 -36zM876 -158q0 -54 -22 -93q-27 -45 -71 -45q-27 0 -44.5 22.5t-17.5 49.5q0 53 29 94.5t66 41.5q60 0 60 -70z" />
    <glyph glyph-name=".notdef.056" unicode="&#x1ead;" 
d="M967 760q9 -74 -61 -97l-175 -430q-20 -51 -20 -86q0 -44 38 -44t62.5 60.5t36.5 60.5q36 0 36 -59q0 -53 -50.5 -109t-116.5 -56q-67 0 -115 32q-54 38 -54 101q0 34 32 119l127 346q8 24 -10 24q-13 0 -22 -23l-125 -343q-40 -109 -113 -188q-79 -84 -153 -84
q-113 0 -172 77q-55 68 -55 178q0 265 193 470q201 212 473 212q92 0 165 -45.5t79 -115.5zM851 791q-34 39 -116 39q-225 0 -363 -222q-120 -191 -120 -431q0 -26 17 -52t35 -26q37 0 88 52t77 115l166 422h178q-15 17 -15 38q0 43 53 65zM984 1127q7 -18 7 -32
q0 -42 -46 -42q-33 0 -59 32l-99 131l-305 -156q-21 -10 -35 -10q-47 0 -47 49q0 28 19 45l357 267q40 29 63 22q21 -5 33 -36zM445 -158q0 -54 -22 -93q-27 -45 -71 -45q-27 0 -44.5 22.5t-17.5 49.5q0 53 29 94.5t66 41.5q60 0 60 -70z" />
    <glyph glyph-name=".notdef.120" unicode="&#x1eae;" horiz-adv-x="1704" 
d="M1981 1297q-2 -10 -32 -18q-155 -41 -241 -195q-63 -115 -110 -347q116 22 116 99q0 10 -16.5 25t-16.5 39q0 65 55 65q88 0 88 -114q0 -76 -64.5 -131t-182.5 -70q-85 -430 -218 -646q-4 -28 -32 -20q-21 6 -16.5 31t-9.5 44t-42 19q-61 0 -105 -17q-60 -23 -147 -95
q-23 -19 -40 6q-15 24 13 34q206 176 383 616q-52 -4 -302 -14q-173 -314 -284 -431q-175 -185 -423 -209q-138 -14 -235 74.5t-97 221.5q0 28 6 56q78 433 825 433q57 0 121 -2q214 360 341 466q120 102 197 142q105 51 230 51q135 0 225 -83q18 -16 14 -30zM1780 1311
q-24 4 -38 4q-303 0 -608 -574q237 -14 271 -14q111 292 159 376q93 171 216 208zM882 602q-342 -12 -512 -73q-229 -80 -229 -258q0 -100 54 -152q46 -43 114 -43q247 0 573 526zM2155 1752q-213 -232 -351 -232q-71 0 -95 12q-74 42 -108 234q-7 16 -7 28q0 35 45 35
q34 0 57 -27q41 -115 98 -115q110 0 300 137q20 9 34 9q48 0 48 -43q0 -24 -21 -38zM1839 1868q46 155 56 187q37 90 85 139t84 49q68 0 68 -75t-104 -176q-46 -44 -164 -134q-11 -5 -19 -2q-9 2 -6 12z" />
    <glyph glyph-name=".notdef.053" unicode="&#x1eaf;" 
d="M967 760q9 -74 -61 -97l-175 -430q-20 -51 -20 -86q0 -44 38 -44t62.5 60.5t36.5 60.5q36 0 36 -59q0 -53 -50.5 -109t-116.5 -56q-67 0 -115 32q-54 38 -54 101q0 34 32 119l127 346q8 24 -10 24q-13 0 -22 -23l-125 -343q-40 -109 -113 -188q-79 -84 -153 -84
q-113 0 -172 77q-55 68 -55 178q0 265 193 470q201 212 473 212q92 0 165 -45.5t79 -115.5zM851 791q-34 39 -116 39q-225 0 -363 -222q-120 -191 -120 -431q0 -26 17 -52t35 -26q37 0 88 52t77 115l166 422h178q-15 17 -15 38q0 43 53 65zM1139 1284q-213 -232 -351 -232
q-71 0 -95 12q-74 42 -108 234q-7 16 -7 28q0 35 45 35q34 0 57 -27q41 -115 98 -115q110 0 300 137q20 9 34 9q48 0 48 -43q0 -24 -21 -38zM850 1425q46 155 56 187q37 90 85 139t84 49q68 0 68 -75t-104 -176q-46 -44 -164 -134q-11 -5 -19 -2q-9 2 -6 12z" />
    <glyph glyph-name=".notdef.119" unicode="&#x1eb0;" horiz-adv-x="1704" 
d="M1981 1297q-2 -10 -32 -18q-155 -41 -241 -195q-63 -115 -110 -347q116 22 116 99q0 10 -16.5 25t-16.5 39q0 65 55 65q88 0 88 -114q0 -76 -64.5 -131t-182.5 -70q-85 -430 -218 -646q-4 -28 -32 -20q-21 6 -16.5 31t-9.5 44t-42 19q-61 0 -105 -17q-60 -23 -147 -95
q-23 -19 -40 6q-15 24 13 34q206 176 383 616q-52 -4 -302 -14q-173 -314 -284 -431q-175 -185 -423 -209q-138 -14 -235 74.5t-97 221.5q0 28 6 56q78 433 825 433q57 0 121 -2q214 360 341 466q120 102 197 142q105 51 230 51q135 0 225 -83q18 -16 14 -30zM1780 1311
q-24 4 -38 4q-303 0 -608 -574q237 -14 271 -14q111 292 159 376q93 171 216 208zM882 602q-342 -12 -512 -73q-229 -80 -229 -258q0 -100 54 -152q46 -43 114 -43q247 0 573 526zM2155 1752q-213 -232 -351 -232q-71 0 -95 12q-74 42 -108 234q-7 16 -7 28q0 35 45 35
q34 0 57 -27q41 -115 98 -115q110 0 300 137q20 9 34 9q48 0 48 -43q0 -24 -21 -38zM1897 1868q3 -10 -6 -12q-8 -3 -19 2q-118 90 -164 134q-104 101 -104 176t68 75q36 0 84 -49t85 -139q10 -32 56 -187z" />
    <glyph glyph-name=".notdef.054" unicode="&#x1eb1;" 
d="M967 760q9 -74 -61 -97l-175 -430q-20 -51 -20 -86q0 -44 38 -44t62.5 60.5t36.5 60.5q36 0 36 -59q0 -53 -50.5 -109t-116.5 -56q-67 0 -115 32q-54 38 -54 101q0 34 32 119l127 346q8 24 -10 24q-13 0 -22 -23l-125 -343q-40 -109 -113 -188q-79 -84 -153 -84
q-113 0 -172 77q-55 68 -55 178q0 265 193 470q201 212 473 212q92 0 165 -45.5t79 -115.5zM851 791q-34 39 -116 39q-225 0 -363 -222q-120 -191 -120 -431q0 -26 17 -52t35 -26q37 0 88 52t77 115l166 422h178q-15 17 -15 38q0 43 53 65zM1139 1284q-213 -232 -351 -232
q-71 0 -95 12q-74 42 -108 234q-7 16 -7 28q0 35 45 35q34 0 57 -27q41 -115 98 -115q110 0 300 137q20 9 34 9q48 0 48 -43q0 -24 -21 -38zM871 1425q3 -10 -6 -12q-8 -3 -19 2q-118 90 -164 134q-104 101 -104 176t68 75q36 0 84 -49t85 -139q10 -32 56 -187z" />
    <glyph glyph-name=".notdef.121" unicode="&#x1eb2;" horiz-adv-x="1704" 
d="M1981 1297q-2 -10 -32 -18q-155 -41 -241 -195q-63 -115 -110 -347q116 22 116 99q0 10 -16.5 25t-16.5 39q0 65 55 65q88 0 88 -114q0 -76 -64.5 -131t-182.5 -70q-85 -430 -218 -646q-4 -28 -32 -20q-21 6 -16.5 31t-9.5 44t-42 19q-61 0 -105 -17q-60 -23 -147 -95
q-23 -19 -40 6q-15 24 13 34q206 176 383 616q-52 -4 -302 -14q-173 -314 -284 -431q-175 -185 -423 -209q-138 -14 -235 74.5t-97 221.5q0 28 6 56q78 433 825 433q57 0 121 -2q214 360 341 466q120 102 197 142q105 51 230 51q135 0 225 -83q18 -16 14 -30zM1780 1311
q-24 4 -38 4q-303 0 -608 -574q237 -14 271 -14q111 292 159 376q93 171 216 208zM882 602q-342 -12 -512 -73q-229 -80 -229 -258q0 -100 54 -152q46 -43 114 -43q247 0 573 526zM2155 1752q-213 -232 -351 -232q-71 0 -95 12q-74 42 -108 234q-7 16 -7 28q0 35 45 35
q34 0 57 -27q41 -115 98 -115q110 0 300 137q20 9 34 9q48 0 48 -43q0 -24 -21 -38zM2160 2085q-35 -64 -138.5 -108t-104.5 -122h-69q-13 70 64.5 136.5t121.5 114.5q48 78 -57 84h-6q12 -18 -2 -58q-40 -80 -120 -80q-34 0 -46 29t7 63q31 63 97.5 101.5t132.5 38.5
q86 0 125 -58.5t-5 -140.5z" />
    <glyph glyph-name=".notdef.052" unicode="&#x1eb3;" 
d="M967 760q9 -74 -61 -97l-175 -430q-20 -51 -20 -86q0 -44 38 -44t62.5 60.5t36.5 60.5q36 0 36 -59q0 -53 -50.5 -109t-116.5 -56q-67 0 -115 32q-54 38 -54 101q0 34 32 119l127 346q8 24 -10 24q-13 0 -22 -23l-125 -343q-40 -109 -113 -188q-79 -84 -153 -84
q-113 0 -172 77q-55 68 -55 178q0 265 193 470q201 212 473 212q92 0 165 -45.5t79 -115.5zM851 791q-34 39 -116 39q-225 0 -363 -222q-120 -191 -120 -431q0 -26 17 -52t35 -26q37 0 88 52t77 115l166 422h178q-15 17 -15 38q0 43 53 65zM1139 1284q-213 -232 -351 -232
q-71 0 -95 12q-74 42 -108 234q-7 16 -7 28q0 35 45 35q34 0 57 -27q41 -115 98 -115q110 0 300 137q20 9 34 9q48 0 48 -43q0 -24 -21 -38zM1146 1639q-35 -64 -138.5 -108t-104.5 -122h-69q-13 70 64.5 136.5t121.5 114.5q48 78 -57 84h-6q12 -18 -2 -58q-40 -80 -120 -80
q-34 0 -46 29t7 63q31 63 97.5 101.5t132.5 38.5q86 0 125 -58.5t-5 -140.5z" />
    <glyph glyph-name=".notdef.122" unicode="&#x1eb4;" horiz-adv-x="1704" 
d="M1981 1297q-2 -10 -32 -18q-155 -41 -241 -195q-63 -115 -110 -347q116 22 116 99q0 10 -16.5 25t-16.5 39q0 65 55 65q88 0 88 -114q0 -76 -64.5 -131t-182.5 -70q-85 -430 -218 -646q-4 -28 -32 -20q-21 6 -16.5 31t-9.5 44t-42 19q-61 0 -105 -17q-60 -23 -147 -95
q-23 -19 -40 6q-15 24 13 34q206 176 383 616q-52 -4 -302 -14q-173 -314 -284 -431q-175 -185 -423 -209q-138 -14 -235 74.5t-97 221.5q0 28 6 56q78 433 825 433q57 0 121 -2q214 360 341 466q120 102 197 142q105 51 230 51q135 0 225 -83q18 -16 14 -30zM1780 1311
q-24 4 -38 4q-303 0 -608 -574q237 -14 271 -14q111 292 159 376q93 171 216 208zM882 602q-342 -12 -512 -73q-229 -80 -229 -258q0 -100 54 -152q46 -43 114 -43q247 0 573 526zM2155 1752q-213 -232 -351 -232q-71 0 -95 12q-74 42 -108 234q-7 16 -7 28q0 35 45 35
q34 0 57 -27q41 -115 98 -115q110 0 300 137q20 9 34 9q48 0 48 -43q0 -24 -21 -38zM2262 2064q-72 -175 -207 -190q-51 -5 -122.5 25t-120.5 27q-36 -3 -88 -40q-25 -17 -41 -17q-34 0 -18 38q77 159 208 171q47 7 110 -25t115 -28q33 3 95 50q28 28 53 28q21 0 21 -18
q0 -10 -5 -21z" />
    <glyph glyph-name=".notdef.051" unicode="&#x1eb5;" 
d="M967 760q9 -74 -61 -97l-175 -430q-20 -51 -20 -86q0 -44 38 -44t62.5 60.5t36.5 60.5q36 0 36 -59q0 -53 -50.5 -109t-116.5 -56q-67 0 -115 32q-54 38 -54 101q0 34 32 119l127 346q8 24 -10 24q-13 0 -22 -23l-125 -343q-40 -109 -113 -188q-79 -84 -153 -84
q-113 0 -172 77q-55 68 -55 178q0 265 193 470q201 212 473 212q92 0 165 -45.5t79 -115.5zM851 791q-34 39 -116 39q-225 0 -363 -222q-120 -191 -120 -431q0 -26 17 -52t35 -26q37 0 88 52t77 115l166 422h178q-15 17 -15 38q0 43 53 65zM1139 1284q-213 -232 -351 -232
q-71 0 -95 12q-74 42 -108 234q-7 16 -7 28q0 35 45 35q34 0 57 -27q41 -115 98 -115q110 0 300 137q20 9 34 9q48 0 48 -43q0 -24 -21 -38zM1228 1603q-72 -175 -207 -190q-51 -5 -122.5 25t-120.5 27q-36 -3 -88 -40q-25 -17 -41 -17q-34 0 -18 38q77 159 208 171
q47 7 110 -25t115 -28q33 3 95 50q28 28 53 28q21 0 21 -18q0 -10 -5 -21z" />
    <glyph glyph-name=".notdef.123" unicode="&#x1eb6;" horiz-adv-x="1704" 
d="M1981 1297q-2 -10 -32 -18q-155 -41 -241 -195q-63 -115 -110 -347q116 22 116 99q0 10 -16.5 25t-16.5 39q0 65 55 65q88 0 88 -114q0 -76 -64.5 -131t-182.5 -70q-85 -430 -218 -646q-4 -28 -32 -20q-21 6 -16.5 31t-9.5 44t-42 19q-61 0 -105 -17q-60 -23 -147 -95
q-23 -19 -40 6q-15 24 13 34q206 176 383 616q-52 -4 -302 -14q-173 -314 -284 -431q-175 -185 -423 -209q-138 -14 -235 74.5t-97 221.5q0 28 6 56q78 433 825 433q57 0 121 -2q214 360 341 466q120 102 197 142q105 51 230 51q135 0 225 -83q18 -16 14 -30zM1780 1311
q-24 4 -38 4q-303 0 -608 -574q237 -14 271 -14q111 292 159 376q93 171 216 208zM882 602q-342 -12 -512 -73q-229 -80 -229 -258q0 -100 54 -152q46 -43 114 -43q247 0 573 526zM2155 1752q-213 -232 -351 -232q-71 0 -95 12q-74 42 -108 234q-7 16 -7 28q0 35 45 35
q34 0 57 -27q41 -115 98 -115q110 0 300 137q20 9 34 9q48 0 48 -43q0 -24 -21 -38zM876 -158q0 -54 -22 -93q-27 -45 -71 -45q-27 0 -44.5 22.5t-17.5 49.5q0 53 29 94.5t66 41.5q60 0 60 -70z" />
    <glyph glyph-name=".notdef.050" unicode="&#x1eb7;" 
d="M967 760q9 -74 -61 -97l-175 -430q-20 -51 -20 -86q0 -44 38 -44t62.5 60.5t36.5 60.5q36 0 36 -59q0 -53 -50.5 -109t-116.5 -56q-67 0 -115 32q-54 38 -54 101q0 34 32 119l127 346q8 24 -10 24q-13 0 -22 -23l-125 -343q-40 -109 -113 -188q-79 -84 -153 -84
q-113 0 -172 77q-55 68 -55 178q0 265 193 470q201 212 473 212q92 0 165 -45.5t79 -115.5zM851 791q-34 39 -116 39q-225 0 -363 -222q-120 -191 -120 -431q0 -26 17 -52t35 -26q37 0 88 52t77 115l166 422h178q-15 17 -15 38q0 43 53 65zM1139 1284q-213 -232 -351 -232
q-71 0 -95 12q-74 42 -108 234q-7 16 -7 28q0 35 45 35q34 0 57 -27q41 -115 98 -115q110 0 300 137q20 9 34 9q48 0 48 -43q0 -24 -21 -38zM445 -158q0 -54 -22 -93q-27 -45 -71 -45q-27 0 -44.5 22.5t-17.5 49.5q0 53 29 94.5t66 41.5q60 0 60 -70z" />
    <glyph glyph-name=".notdef.128" unicode="&#x1eb8;" horiz-adv-x="1331" 
d="M1568 1150q0 -229 -188 -352q-178 -119 -492 -119q-75 0 -115 -2q46 -69 152 -69q17 0 66.5 18t91.5 18q83 0 83 -78q0 -58 -67 -85l-136 -36q-180 -51 -300 -165q-132 -125 -142 -288q-7 -95 49 -161t161 -66q143 0 252 103.5t109 244.5q0 67 -27 116q-34 57 -98 59
q-69 2 -132.5 -54.5t-63.5 -132.5q0 -27 21 -53t44 -24q54 4 42 46q6 2 14 2q58 0 58 -74q0 -57 -44 -93q-36 -30 -85 -30q-76 0 -120 66q-36 55 -36 131q0 148 116 248q107 97 250 91q114 -4 177 -89q62 -78 53 -185q-14 -205 -162 -340q-142 -131 -344 -144
q-194 -15 -324 67q-135 85 -135 240q0 177 137 306q101 94 294 173q135 54 270 105q8 2 6 6t-8 2q-99 -27 -186 -27q-191 0 -269 133q-453 -68 -453 -380q0 -52 42 -52q8 0 18 3.5t21.5 29t41.5 31.5q63 14 63 -91q0 -66 -39 -98.5t-91 -32.5q-73 0 -121 58t-48 145
q0 377 532 486q-4 14 -4 41q0 241 290 428q257 165 499 165q123 0 197 -58q80 -63 80 -183zM1435 1162q0 127 -156 127q-30 0 -66 -6q-148 -26 -301 -163q-175 -155 -175 -322v-6q32 4 125 14q228 24 382 102q191 99 191 254zM732 -530q0 -54 -22 -93q-27 -45 -71 -45
q-27 0 -44.5 22.5t-17.5 49.5q0 53 29 94.5t66 41.5q60 0 60 -70z" />
    <glyph glyph-name=".notdef.045" unicode="&#x1eb9;" horiz-adv-x="646" 
d="M762 775q0 -155 -132 -239q-124 -53 -249 -107q-133 -59 -133 -163q0 -173 112 -173q85 0 166.5 74t99.5 74q34 0 34 -31q0 -57 -99 -132q-106 -82 -203 -82q-129 0 -214 96.5t-85 231.5q0 224 191 413q181 179 380 179q64 0 98 -42t34 -99zM616 789q0 34 -20 34
q-124 0 -223 -129q-83 -110 -97 -217q46 44 146.5 97.5t133.5 83.5q60 53 60 131zM394 -158q0 -54 -22 -93q-27 -45 -71 -45q-27 0 -44.5 22.5t-17.5 49.5q0 53 29 94.5t66 41.5q60 0 60 -70z" />
    <glyph glyph-name=".notdef.126" unicode="&#x1eba;" horiz-adv-x="1331" 
d="M1568 1150q0 -229 -188 -352q-178 -119 -492 -119q-75 0 -115 -2q46 -69 152 -69q17 0 66.5 18t91.5 18q83 0 83 -78q0 -58 -67 -85l-136 -36q-180 -51 -300 -165q-132 -125 -142 -288q-7 -95 49 -161t161 -66q143 0 252 103.5t109 244.5q0 67 -27 116q-34 57 -98 59
q-69 2 -132.5 -54.5t-63.5 -132.5q0 -27 21 -53t44 -24q54 4 42 46q6 2 14 2q58 0 58 -74q0 -57 -44 -93q-36 -30 -85 -30q-76 0 -120 66q-36 55 -36 131q0 148 116 248q107 97 250 91q114 -4 177 -89q62 -78 53 -185q-14 -205 -162 -340q-142 -131 -344 -144
q-194 -15 -324 67q-135 85 -135 240q0 177 137 306q101 94 294 173q135 54 270 105q8 2 6 6t-8 2q-99 -27 -186 -27q-191 0 -269 133q-453 -68 -453 -380q0 -52 42 -52q8 0 18 3.5t21.5 29t41.5 31.5q63 14 63 -91q0 -66 -39 -98.5t-91 -32.5q-73 0 -121 58t-48 145
q0 377 532 486q-4 14 -4 41q0 241 290 428q257 165 499 165q123 0 197 -58q80 -63 80 -183zM1435 1162q0 127 -156 127q-30 0 -66 -6q-148 -26 -301 -163q-175 -155 -175 -322v-6q32 4 125 14q228 24 382 102q191 99 191 254zM1551 1750q-35 -64 -138.5 -108t-104.5 -122
h-69q-13 70 64.5 136.5t121.5 114.5q48 78 -57 84h-6q12 -18 -2 -58q-40 -80 -120 -80q-34 0 -46 29t7 63q31 63 97.5 101.5t132.5 38.5q86 0 125 -58.5t-5 -140.5z" />
    <glyph glyph-name=".notdef.047" unicode="&#x1ebb;" horiz-adv-x="646" 
d="M762 775q0 -155 -132 -239q-124 -53 -249 -107q-133 -59 -133 -163q0 -173 112 -173q85 0 166.5 74t99.5 74q34 0 34 -31q0 -57 -99 -132q-106 -82 -203 -82q-129 0 -214 96.5t-85 231.5q0 224 191 413q181 179 380 179q64 0 98 -42t34 -99zM616 789q0 34 -20 34
q-124 0 -223 -129q-83 -110 -97 -217q46 44 146.5 97.5t133.5 83.5q60 53 60 131zM871 1280q-35 -64 -138.5 -108t-104.5 -122h-69q-13 70 64.5 136.5t121.5 114.5q48 78 -57 84h-6q12 -18 -2 -58q-40 -80 -120 -80q-34 0 -46 29t7 63q31 63 97.5 101.5t132.5 38.5
q86 0 125 -58.5t-5 -140.5z" />
    <glyph glyph-name=".notdef.127" unicode="&#x1ebc;" horiz-adv-x="1331" 
d="M1568 1150q0 -229 -188 -352q-178 -119 -492 -119q-75 0 -115 -2q46 -69 152 -69q17 0 66.5 18t91.5 18q83 0 83 -78q0 -58 -67 -85l-136 -36q-180 -51 -300 -165q-132 -125 -142 -288q-7 -95 49 -161t161 -66q143 0 252 103.5t109 244.5q0 67 -27 116q-34 57 -98 59
q-69 2 -132.5 -54.5t-63.5 -132.5q0 -27 21 -53t44 -24q54 4 42 46q6 2 14 2q58 0 58 -74q0 -57 -44 -93q-36 -30 -85 -30q-76 0 -120 66q-36 55 -36 131q0 148 116 248q107 97 250 91q114 -4 177 -89q62 -78 53 -185q-14 -205 -162 -340q-142 -131 -344 -144
q-194 -15 -324 67q-135 85 -135 240q0 177 137 306q101 94 294 173q135 54 270 105q8 2 6 6t-8 2q-99 -27 -186 -27q-191 0 -269 133q-453 -68 -453 -380q0 -52 42 -52q8 0 18 3.5t21.5 29t41.5 31.5q63 14 63 -91q0 -66 -39 -98.5t-91 -32.5q-73 0 -121 58t-48 145
q0 377 532 486q-4 14 -4 41q0 241 290 428q257 165 499 165q123 0 197 -58q80 -63 80 -183zM1435 1162q0 127 -156 127q-30 0 -66 -6q-148 -26 -301 -163q-175 -155 -175 -322v-6q32 4 125 14q228 24 382 102q191 99 191 254zM1601 1714q-72 -175 -207 -190
q-51 -5 -122.5 25t-120.5 27q-36 -3 -88 -40q-25 -17 -41 -17q-34 0 -18 38q77 159 208 171q47 7 110 -25t115 -28q33 3 95 50q28 28 53 28q21 0 21 -18q0 -10 -5 -21z" />
    <glyph glyph-name=".notdef.046" unicode="&#x1ebd;" horiz-adv-x="646" 
d="M762 775q0 -155 -132 -239q-124 -53 -249 -107q-133 -59 -133 -163q0 -173 112 -173q85 0 166.5 74t99.5 74q34 0 34 -31q0 -57 -99 -132q-106 -82 -203 -82q-129 0 -214 96.5t-85 231.5q0 224 191 413q181 179 380 179q64 0 98 -42t34 -99zM616 789q0 34 -20 34
q-124 0 -223 -129q-83 -110 -97 -217q46 44 146.5 97.5t133.5 83.5q60 53 60 131zM946 1243q-72 -175 -207 -190q-51 -5 -122.5 25t-120.5 27q-36 -3 -88 -40q-25 -17 -41 -17q-34 0 -18 38q77 159 208 171q47 7 110 -25t115 -28q33 3 95 50q28 28 53 28q21 0 21 -18
q0 -10 -5 -21z" />
    <glyph glyph-name=".notdef.131" unicode="&#x1ebe;" horiz-adv-x="1512" 
d="M1568 1150q0 -229 -188 -352q-178 -119 -492 -119q-75 0 -115 -2q46 -69 152 -69q17 0 66.5 18t91.5 18q83 0 83 -78q0 -58 -67 -85l-136 -36q-180 -51 -300 -165q-132 -125 -142 -288q-7 -95 49 -161t161 -66q143 0 252 103.5t109 244.5q0 67 -27 116q-34 57 -98 59
q-69 2 -132.5 -54.5t-63.5 -132.5q0 -27 21 -53t44 -24q54 4 42 46q6 2 14 2q58 0 58 -74q0 -57 -44 -93q-36 -30 -85 -30q-76 0 -120 66q-36 55 -36 131q0 148 116 248q107 97 250 91q114 -4 177 -89q62 -78 53 -185q-14 -205 -162 -340q-142 -131 -344 -144
q-194 -15 -324 67q-135 85 -135 240q0 177 137 306q101 94 294 173q135 54 270 105q8 2 6 6t-8 2q-99 -27 -186 -27q-191 0 -269 133q-453 -68 -453 -380q0 -52 42 -52q8 0 18 3.5t21.5 29t41.5 31.5q63 14 63 -91q0 -66 -39 -98.5t-91 -32.5q-73 0 -121 58t-48 145
q0 377 532 486q-4 14 -4 41q0 241 290 428q257 165 499 165q123 0 197 -58q80 -63 80 -183zM1435 1162q0 127 -156 127q-30 0 -66 -6q-148 -26 -301 -163q-175 -155 -175 -322v-6q32 4 125 14q228 24 382 102q191 99 191 254zM1553 1597q7 -18 7 -32q0 -42 -46 -42
q-33 0 -59 32l-99 131l-305 -156q-21 -10 -35 -10q-47 0 -47 49q0 28 19 45l357 267q40 29 63 22q21 -5 33 -36zM1541 1759q46 155 56 187q37 90 85 139t84 49q68 0 68 -75t-104 -176q-46 -44 -164 -134q-11 -5 -19 -2q-9 2 -6 12z" />
    <glyph glyph-name=".notdef.042" unicode="&#x1ebf;" horiz-adv-x="688" 
d="M762 775q0 -155 -132 -239q-124 -53 -249 -107q-133 -59 -133 -163q0 -173 112 -173q85 0 166.5 74t99.5 74q34 0 34 -31q0 -57 -99 -132q-106 -82 -203 -82q-129 0 -214 96.5t-85 231.5q0 224 191 413q181 179 380 179q64 0 98 -42t34 -99zM616 789q0 34 -20 34
q-124 0 -223 -129q-83 -110 -97 -217q46 44 146.5 97.5t133.5 83.5q60 53 60 131zM904 1127q7 -18 7 -32q0 -42 -46 -42q-33 0 -59 32l-99 131l-305 -156q-21 -10 -35 -10q-47 0 -47 49q0 28 19 45l357 267q40 29 63 22q21 -5 33 -36zM901 1300q46 155 56 187q37 90 85 139
t84 49q68 0 68 -75t-104 -176q-46 -44 -164 -134q-11 -5 -19 -2q-9 2 -6 12z" />
    <glyph glyph-name=".notdef.130" unicode="&#x1ec0;" horiz-adv-x="1512" 
d="M1568 1150q0 -229 -188 -352q-178 -119 -492 -119q-75 0 -115 -2q46 -69 152 -69q17 0 66.5 18t91.5 18q83 0 83 -78q0 -58 -67 -85l-136 -36q-180 -51 -300 -165q-132 -125 -142 -288q-7 -95 49 -161t161 -66q143 0 252 103.5t109 244.5q0 67 -27 116q-34 57 -98 59
q-69 2 -132.5 -54.5t-63.5 -132.5q0 -27 21 -53t44 -24q54 4 42 46q6 2 14 2q58 0 58 -74q0 -57 -44 -93q-36 -30 -85 -30q-76 0 -120 66q-36 55 -36 131q0 148 116 248q107 97 250 91q114 -4 177 -89q62 -78 53 -185q-14 -205 -162 -340q-142 -131 -344 -144
q-194 -15 -324 67q-135 85 -135 240q0 177 137 306q101 94 294 173q135 54 270 105q8 2 6 6t-8 2q-99 -27 -186 -27q-191 0 -269 133q-453 -68 -453 -380q0 -52 42 -52q8 0 18 3.5t21.5 29t41.5 31.5q63 14 63 -91q0 -66 -39 -98.5t-91 -32.5q-73 0 -121 58t-48 145
q0 377 532 486q-4 14 -4 41q0 241 290 428q257 165 499 165q123 0 197 -58q80 -63 80 -183zM1435 1162q0 127 -156 127q-30 0 -66 -6q-148 -26 -301 -163q-175 -155 -175 -322v-6q32 4 125 14q228 24 382 102q191 99 191 254zM1553 1597q7 -18 7 -32q0 -42 -46 -42
q-33 0 -59 32l-99 131l-305 -156q-21 -10 -35 -10q-47 0 -47 49q0 28 19 45l357 267q40 29 63 22q21 -5 33 -36zM1721 1758q3 -10 -6 -12q-8 -3 -19 2q-118 90 -164 134q-104 101 -104 176t68 75q36 0 84 -49t85 -139q10 -32 56 -187z" />
    <glyph glyph-name=".notdef.043" unicode="&#x1ec1;" horiz-adv-x="688" 
d="M762 775q0 -155 -132 -239q-124 -53 -249 -107q-133 -59 -133 -163q0 -173 112 -173q85 0 166.5 74t99.5 74q34 0 34 -31q0 -57 -99 -132q-106 -82 -203 -82q-129 0 -214 96.5t-85 231.5q0 224 191 413q181 179 380 179q64 0 98 -42t34 -99zM616 789q0 34 -20 34
q-124 0 -223 -129q-83 -110 -97 -217q46 44 146.5 97.5t133.5 83.5q60 53 60 131zM904 1127q7 -18 7 -32q0 -42 -46 -42q-33 0 -59 32l-99 131l-305 -156q-21 -10 -35 -10q-47 0 -47 49q0 28 19 45l357 267q40 29 63 22q21 -5 33 -36zM1072 1300q3 -10 -6 -12q-8 -3 -19 2
q-118 90 -164 134q-104 101 -104 176t68 75q36 0 84 -49t85 -139q10 -32 56 -187z" />
    <glyph glyph-name=".notdef.132" unicode="&#x1ec2;" horiz-adv-x="1512" 
d="M1568 1150q0 -229 -188 -352q-178 -119 -492 -119q-75 0 -115 -2q46 -69 152 -69q17 0 66.5 18t91.5 18q83 0 83 -78q0 -58 -67 -85l-136 -36q-180 -51 -300 -165q-132 -125 -142 -288q-7 -95 49 -161t161 -66q143 0 252 103.5t109 244.5q0 67 -27 116q-34 57 -98 59
q-69 2 -132.5 -54.5t-63.5 -132.5q0 -27 21 -53t44 -24q54 4 42 46q6 2 14 2q58 0 58 -74q0 -57 -44 -93q-36 -30 -85 -30q-76 0 -120 66q-36 55 -36 131q0 148 116 248q107 97 250 91q114 -4 177 -89q62 -78 53 -185q-14 -205 -162 -340q-142 -131 -344 -144
q-194 -15 -324 67q-135 85 -135 240q0 177 137 306q101 94 294 173q135 54 270 105q8 2 6 6t-8 2q-99 -27 -186 -27q-191 0 -269 133q-453 -68 -453 -380q0 -52 42 -52q8 0 18 3.5t21.5 29t41.5 31.5q63 14 63 -91q0 -66 -39 -98.5t-91 -32.5q-73 0 -121 58t-48 145
q0 377 532 486q-4 14 -4 41q0 241 290 428q257 165 499 165q123 0 197 -58q80 -63 80 -183zM1435 1162q0 127 -156 127q-30 0 -66 -6q-148 -26 -301 -163q-175 -155 -175 -322v-6q32 4 125 14q228 24 382 102q191 99 191 254zM1553 1597q7 -18 7 -32q0 -42 -46 -42
q-33 0 -59 32l-99 131l-305 -156q-21 -10 -35 -10q-47 0 -47 49q0 28 19 45l357 267q40 29 63 22q21 -5 33 -36zM1858 1977q-35 -64 -138.5 -108t-104.5 -122h-69q-13 70 64.5 136.5t121.5 114.5q48 78 -57 84h-6q12 -18 -2 -58q-40 -80 -120 -80q-34 0 -46 29t7 63
q31 63 97.5 101.5t132.5 38.5q86 0 125 -58.5t-5 -140.5z" />
    <glyph glyph-name=".notdef.041" unicode="&#x1ec3;" horiz-adv-x="688" 
d="M762 775q0 -155 -132 -239q-124 -53 -249 -107q-133 -59 -133 -163q0 -173 112 -173q85 0 166.5 74t99.5 74q34 0 34 -31q0 -57 -99 -132q-106 -82 -203 -82q-129 0 -214 96.5t-85 231.5q0 224 191 413q181 179 380 179q64 0 98 -42t34 -99zM616 789q0 34 -20 34
q-124 0 -223 -129q-83 -110 -97 -217q46 44 146.5 97.5t133.5 83.5q60 53 60 131zM904 1127q7 -18 7 -32q0 -42 -46 -42q-33 0 -59 32l-99 131l-305 -156q-21 -10 -35 -10q-47 0 -47 49q0 28 19 45l357 267q40 29 63 22q21 -5 33 -36zM1205 1519q-35 -64 -138.5 -108
t-104.5 -122h-69q-13 70 64.5 136.5t121.5 114.5q48 78 -57 84h-6q12 -18 -2 -58q-40 -80 -120 -80q-34 0 -46 29t7 63q31 63 97.5 101.5t132.5 38.5q86 0 125 -58.5t-5 -140.5z" />
    <glyph glyph-name=".notdef.133" unicode="&#x1ec4;" horiz-adv-x="1512" 
d="M1568 1150q0 -229 -188 -352q-178 -119 -492 -119q-75 0 -115 -2q46 -69 152 -69q17 0 66.5 18t91.5 18q83 0 83 -78q0 -58 -67 -85l-136 -36q-180 -51 -300 -165q-132 -125 -142 -288q-7 -95 49 -161t161 -66q143 0 252 103.5t109 244.5q0 67 -27 116q-34 57 -98 59
q-69 2 -132.5 -54.5t-63.5 -132.5q0 -27 21 -53t44 -24q54 4 42 46q6 2 14 2q58 0 58 -74q0 -57 -44 -93q-36 -30 -85 -30q-76 0 -120 66q-36 55 -36 131q0 148 116 248q107 97 250 91q114 -4 177 -89q62 -78 53 -185q-14 -205 -162 -340q-142 -131 -344 -144
q-194 -15 -324 67q-135 85 -135 240q0 177 137 306q101 94 294 173q135 54 270 105q8 2 6 6t-8 2q-99 -27 -186 -27q-191 0 -269 133q-453 -68 -453 -380q0 -52 42 -52q8 0 18 3.5t21.5 29t41.5 31.5q63 14 63 -91q0 -66 -39 -98.5t-91 -32.5q-73 0 -121 58t-48 145
q0 377 532 486q-4 14 -4 41q0 241 290 428q257 165 499 165q123 0 197 -58q80 -63 80 -183zM1435 1162q0 127 -156 127q-30 0 -66 -6q-148 -26 -301 -163q-175 -155 -175 -322v-6q32 4 125 14q228 24 382 102q191 99 191 254zM1553 1597q7 -18 7 -32q0 -42 -46 -42
q-33 0 -59 32l-99 131l-305 -156q-21 -10 -35 -10q-47 0 -47 49q0 28 19 45l357 267q40 29 63 22q21 -5 33 -36zM1709 2148q-72 -175 -207 -190q-51 -5 -122.5 25t-120.5 27q-36 -3 -88 -40q-25 -17 -41 -17q-34 0 -18 38q77 159 208 171q47 7 110 -25t115 -28q33 3 95 50
q28 28 53 28q21 0 21 -18q0 -10 -5 -21z" />
    <glyph glyph-name=".notdef.040" unicode="&#x1ec5;" horiz-adv-x="688" 
d="M762 775q0 -155 -132 -239q-124 -53 -249 -107q-133 -59 -133 -163q0 -173 112 -173q85 0 166.5 74t99.5 74q34 0 34 -31q0 -57 -99 -132q-106 -82 -203 -82q-129 0 -214 96.5t-85 231.5q0 224 191 413q181 179 380 179q64 0 98 -42t34 -99zM616 789q0 34 -20 34
q-124 0 -223 -129q-83 -110 -97 -217q46 44 146.5 97.5t133.5 83.5q60 53 60 131zM904 1127q7 -18 7 -32q0 -42 -46 -42q-33 0 -59 32l-99 131l-305 -156q-21 -10 -35 -10q-47 0 -47 49q0 28 19 45l357 267q40 29 63 22q21 -5 33 -36zM1075 1687q-72 -175 -207 -190
q-51 -5 -122.5 25t-120.5 27q-36 -3 -88 -40q-25 -17 -41 -17q-34 0 -18 38q77 159 208 171q47 7 110 -25t115 -28q33 3 95 50q28 28 53 28q21 0 21 -18q0 -10 -5 -21z" />
    <glyph glyph-name=".notdef.106" unicode="&#x1ec6;" horiz-adv-x="1512" 
d="M1568 1150q0 -229 -188 -352q-178 -119 -492 -119q-75 0 -115 -2q46 -69 152 -69q17 0 66.5 18t91.5 18q83 0 83 -78q0 -58 -67 -85l-136 -36q-180 -51 -300 -165q-132 -125 -142 -288q-7 -95 49 -161t161 -66q143 0 252 103.5t109 244.5q0 67 -27 116q-34 57 -98 59
q-69 2 -132.5 -54.5t-63.5 -132.5q0 -27 21 -53t44 -24q54 4 42 46q6 2 14 2q58 0 58 -74q0 -57 -44 -93q-36 -30 -85 -30q-76 0 -120 66q-36 55 -36 131q0 148 116 248q107 97 250 91q114 -4 177 -89q62 -78 53 -185q-14 -205 -162 -340q-142 -131 -344 -144
q-194 -15 -324 67q-135 85 -135 240q0 177 137 306q101 94 294 173q135 54 270 105q8 2 6 6t-8 2q-99 -27 -186 -27q-191 0 -269 133q-453 -68 -453 -380q0 -52 42 -52q8 0 18 3.5t21.5 29t41.5 31.5q63 14 63 -91q0 -66 -39 -98.5t-91 -32.5q-73 0 -121 58t-48 145
q0 377 532 486q-4 14 -4 41q0 241 290 428q257 165 499 165q123 0 197 -58q80 -63 80 -183zM1435 1162q0 127 -156 127q-30 0 -66 -6q-148 -26 -301 -163q-175 -155 -175 -322v-6q32 4 125 14q228 24 382 102q191 99 191 254zM1553 1597q7 -18 7 -32q0 -42 -46 -42
q-33 0 -59 32l-99 131l-305 -156q-21 -10 -35 -10q-47 0 -47 49q0 28 19 45l357 267q40 29 63 22q21 -5 33 -36zM732 -530q0 -54 -22 -93q-27 -45 -71 -45q-27 0 -44.5 22.5t-17.5 49.5q0 53 29 94.5t66 41.5q60 0 60 -70z" />
    <glyph glyph-name=".notdef.039" unicode="&#x1ec7;" horiz-adv-x="688" 
d="M762 775q0 -155 -132 -239q-124 -53 -249 -107q-133 -59 -133 -163q0 -173 112 -173q85 0 166.5 74t99.5 74q34 0 34 -31q0 -57 -99 -132q-106 -82 -203 -82q-129 0 -214 96.5t-85 231.5q0 224 191 413q181 179 380 179q64 0 98 -42t34 -99zM616 789q0 34 -20 34
q-124 0 -223 -129q-83 -110 -97 -217q46 44 146.5 97.5t133.5 83.5q60 53 60 131zM904 1127q7 -18 7 -32q0 -42 -46 -42q-33 0 -59 32l-99 131l-305 -156q-21 -10 -35 -10q-47 0 -47 49q0 28 19 45l357 267q40 29 63 22q21 -5 33 -36zM394 -158q0 -54 -22 -93
q-27 -45 -71 -45q-27 0 -44.5 22.5t-17.5 49.5q0 53 29 94.5t66 41.5q60 0 60 -70z" />
    <glyph glyph-name=".notdef.103" unicode="&#x1ec8;" horiz-adv-x="1268" 
d="M1581 1331q4 -22 -30 -44q-55 -38 -57 -40q-145 -134 -364 -745q-103 -288 -288 -417q-177 -125 -461 -125q-119 0 -208 54q-101 62 -101 161q0 47 22.5 85t64.5 38q32 0 57.5 -21t25.5 -51q0 -42 -32 -59.5t-32 -27.5q0 -80 160 -80q195 0 343 163q86 94 233 354
q83 171 165 344q119 212 320 331q-17 0 -54 -7.5t-64 -7.5q-73 0 -264 26.5t-278 26.5q-231 0 -409.5 -180t-178.5 -414q0 -115 58 -200q64 -95 164 -95q133 0 223 127q83 117 83 265q0 175 -114 175q-84 0 -138 -66.5t-54 -155.5q0 -80 42 -80q12 0 23 19t25 19
q22 0 31.5 -23.5t6.5 -51.5q-6 -42 -38 -68.5t-74 -26.5q-59 0 -95 59q-30 54 -30 125q0 141 106.5 258t243.5 117q103 0 160.5 -65.5t61.5 -178.5q6 -215 -129 -378q-139 -168 -339 -168q-144 0 -231 137q-78 122 -78 290q0 292 211 497t507 205q107 0 287.5 -54t254.5 -54
q40 0 98.5 18t96.5 18q63 0 67 -28zM1743 1750q-35 -64 -138.5 -108t-104.5 -122h-69q-13 70 64.5 136.5t121.5 114.5q48 78 -57 84h-6q12 -18 -2 -58q-40 -80 -120 -80q-34 0 -46 29t7 63q31 63 97.5 101.5t132.5 38.5q86 0 125 -58.5t-5 -140.5z" />
    <glyph glyph-name=".notdef.036" unicode="&#x1ec9;" horiz-adv-x="413" 
d="M510 912q0 -59 -164 -358.5t-164 -408.5q0 -58 36 -58q64 0 95.5 66.5t61.5 66.5q34 0 34 -59q0 -80 -68 -132.5t-157 -52.5q-71 0 -111.5 55.5t-40.5 137.5q0 129 105 360t105 260q0 15 -39.5 22.5t-39.5 32.5q0 60 129 60q115 0 152 19t39 19q27 0 27 -30zM681 1280
q-35 -64 -138.5 -108t-104.5 -122h-69q-13 70 64.5 136.5t121.5 114.5q48 78 -57 84h-6q12 -18 -2 -58q-40 -80 -120 -80q-34 0 -46 29t7 63q31 63 97.5 101.5t132.5 38.5q86 0 125 -58.5t-5 -140.5z" />
    <glyph glyph-name=".notdef.100" unicode="&#x1eca;" horiz-adv-x="1268" 
d="M1581 1331q4 -22 -30 -44q-55 -38 -57 -40q-145 -134 -364 -745q-103 -288 -288 -417q-177 -125 -461 -125q-119 0 -208 54q-101 62 -101 161q0 47 22.5 85t64.5 38q32 0 57.5 -21t25.5 -51q0 -42 -32 -59.5t-32 -27.5q0 -80 160 -80q195 0 343 163q86 94 233 354
q83 171 165 344q119 212 320 331q-17 0 -54 -7.5t-64 -7.5q-73 0 -264 26.5t-278 26.5q-231 0 -409.5 -180t-178.5 -414q0 -115 58 -200q64 -95 164 -95q133 0 223 127q83 117 83 265q0 175 -114 175q-84 0 -138 -66.5t-54 -155.5q0 -80 42 -80q12 0 23 19t25 19
q22 0 31.5 -23.5t6.5 -51.5q-6 -42 -38 -68.5t-74 -26.5q-59 0 -95 59q-30 54 -30 125q0 141 106.5 258t243.5 117q103 0 160.5 -65.5t61.5 -178.5q6 -215 -129 -378q-139 -168 -339 -168q-144 0 -231 137q-78 122 -78 290q0 292 211 497t507 205q107 0 287.5 -54t254.5 -54
q40 0 98.5 18t96.5 18q63 0 67 -28zM446 -230q0 -54 -22 -93q-27 -45 -71 -45q-27 0 -44.5 22.5t-17.5 49.5q0 53 29 94.5t66 41.5q60 0 60 -70z" />
    <glyph glyph-name=".notdef.034" unicode="&#x1ecb;" horiz-adv-x="413" 
d="M592 1238q0 -74 -31 -127q-36 -62 -98 -62q-36 0 -60 31t-24 68q0 71 40 128t91 57q34 0 58 -26t24 -69zM510 912q0 -59 -164 -358.5t-164 -408.5q0 -58 36 -58q64 0 95.5 66.5t61.5 66.5q34 0 34 -59q0 -80 -68 -132.5t-157 -52.5q-71 0 -111.5 55.5t-40.5 137.5
q0 129 105 360t105 260q0 15 -39.5 22.5t-39.5 32.5q0 60 129 60q115 0 152 19t39 19q27 0 27 -30zM238 -158q0 -54 -22 -93q-27 -45 -71 -45q-27 0 -44.5 22.5t-17.5 49.5q0 53 29 94.5t66 41.5q60 0 60 -70z" />
    <glyph glyph-name=".notdef.095" unicode="&#x1ecc;" horiz-adv-x="1708" 
d="M1674 1118q0 -79 -23 -140q17 -51 17 -106q0 -302 -156 -523q-130 -178 -340 -279q-175 -84 -324 -84q-217 0 -351 151q-131 145 -131 356q0 19 4 68q-231 -91 -231 -269q0 -103 60 -103q10 0 20 35.5t52 35.5q67 0 67 -83q0 -58 -48.5 -92t-107.5 -34q-79 0 -127 70
q-39 59 -39 133q0 159 111 275q93 97 275 168q91 279 360 483q285 213 601 213q123 0 210 -66q101 -76 101 -209zM1537 1128v15q0 70 -65 112q-58 36 -133 36q-177 0 -370 -159q-178 -148 -283 -357l167 29q70 157 219.5 257.5t314.5 106.5q91 4 150 -40zM1435 954
q-27 71 -93 71q-222 0 -343 -199q322 52 436 128zM1460 783q-184 -131 -533 -150q-6 -21 -6 -53q0 -83 44 -83q17 0 36.5 18t31.5 18q63 0 63 -88q0 -49 -44.5 -79t-97.5 -25q-80 10 -120 86q-36 64 -36 157v47q-97 0 -174 -9q-20 -72 -20 -141q0 -153 54 -257
q65 -125 190 -125q177 0 371 185q225 211 241 499zM898 -154q0 -54 -22 -93q-27 -45 -71 -45q-27 0 -44.5 22.5t-17.5 49.5q0 53 29 94.5t66 41.5q60 0 60 -70z" />
    <glyph glyph-name=".notdef.029" unicode="&#x1ecd;" horiz-adv-x="811" 
d="M798 652q0 -254 -165.5 -458t-380.5 -204q-254 0 -254 272q0 235 186 449q184 209 370 209q119 0 185 -80q59 -71 59 -188zM618 743q0 78 -52 78q-117 0 -260 -227.5t-143 -415.5q0 -91 78 -91q153 0 269 217q108 204 108 439zM284 -161q0 -54 -22 -93q-27 -45 -71 -45
q-27 0 -44.5 22.5t-17.5 49.5q0 53 29 94.5t66 41.5q60 0 60 -70z" />
    <glyph glyph-name=".notdef.097" unicode="&#x1ece;" horiz-adv-x="1708" 
d="M1674 1118q0 -79 -23 -140q17 -51 17 -106q0 -302 -156 -523q-130 -178 -340 -279q-175 -84 -324 -84q-217 0 -351 151q-131 145 -131 356q0 19 4 68q-231 -91 -231 -269q0 -103 60 -103q10 0 20 35.5t52 35.5q67 0 67 -83q0 -58 -48.5 -92t-107.5 -34q-79 0 -127 70
q-39 59 -39 133q0 159 111 275q93 97 275 168q91 279 360 483q285 213 601 213q123 0 210 -66q101 -76 101 -209zM1537 1128v15q0 70 -65 112q-58 36 -133 36q-177 0 -370 -159q-178 -148 -283 -357l167 29q70 157 219.5 257.5t314.5 106.5q91 4 150 -40zM1435 954
q-27 71 -93 71q-222 0 -343 -199q322 52 436 128zM1460 783q-184 -131 -533 -150q-6 -21 -6 -53q0 -83 44 -83q17 0 36.5 18t31.5 18q63 0 63 -88q0 -49 -44.5 -79t-97.5 -25q-80 10 -120 86q-36 64 -36 157v47q-97 0 -174 -9q-20 -72 -20 -141q0 -153 54 -257
q65 -125 190 -125q177 0 371 185q225 211 241 499zM1678 1750q-35 -64 -138.5 -108t-104.5 -122h-69q-13 70 64.5 136.5t121.5 114.5q48 78 -57 84h-6q12 -18 -2 -58q-40 -80 -120 -80q-34 0 -46 29t7 63q31 63 97.5 101.5t132.5 38.5q86 0 125 -58.5t-5 -140.5z" />
    <glyph glyph-name=".notdef.031" unicode="&#x1ecf;" horiz-adv-x="811" 
d="M798 652q0 -254 -165.5 -458t-380.5 -204q-254 0 -254 272q0 235 186 449q184 209 370 209q119 0 185 -80q59 -71 59 -188zM618 743q0 78 -52 78q-117 0 -260 -227.5t-143 -415.5q0 -91 78 -91q153 0 269 217q108 204 108 439zM896 1280q-35 -64 -138.5 -108t-104.5 -122
h-69q-13 70 64.5 136.5t121.5 114.5q48 78 -57 84h-6q12 -18 -2 -58q-40 -80 -120 -80q-34 0 -46 29t7 63q31 63 97.5 101.5t132.5 38.5q86 0 125 -58.5t-5 -140.5z" />
    <glyph glyph-name=".notdef.092" unicode="&#x1ed0;" horiz-adv-x="1708" 
d="M1674 1118q0 -79 -23 -140q17 -51 17 -106q0 -302 -156 -523q-130 -178 -340 -279q-175 -84 -324 -84q-217 0 -351 151q-131 145 -131 356q0 19 4 68q-231 -91 -231 -269q0 -103 60 -103q10 0 20 35.5t52 35.5q67 0 67 -83q0 -58 -48.5 -92t-107.5 -34q-79 0 -127 70
q-39 59 -39 133q0 159 111 275q93 97 275 168q91 279 360 483q285 213 601 213q123 0 210 -66q101 -76 101 -209zM1537 1128v15q0 70 -65 112q-58 36 -133 36q-177 0 -370 -159q-178 -148 -283 -357l167 29q70 157 219.5 257.5t314.5 106.5q91 4 150 -40zM1435 954
q-27 71 -93 71q-222 0 -343 -199q322 52 436 128zM1460 783q-184 -131 -533 -150q-6 -21 -6 -53q0 -83 44 -83q17 0 36.5 18t31.5 18q63 0 63 -88q0 -49 -44.5 -79t-97.5 -25q-80 10 -120 86q-36 64 -36 157v47q-97 0 -174 -9q-20 -72 -20 -141q0 -153 54 -257
q65 -125 190 -125q177 0 371 185q225 211 241 499zM1637 1597q7 -18 7 -32q0 -42 -46 -42q-33 0 -59 32l-99 131l-305 -156q-21 -10 -35 -10q-47 0 -47 49q0 28 19 45l357 267q40 29 63 22q21 -5 33 -36zM1621 1759q46 155 56 187q37 90 85 139t84 49q68 0 68 -75t-104 -176
q-46 -44 -164 -134q-11 -5 -19 -2q-9 2 -6 12z" />
    <glyph glyph-name=".notdef.026" unicode="&#x1ed1;" horiz-adv-x="817" 
d="M855 652q0 -254 -166 -458t-382 -204q-254 0 -254 272q0 235 188 449q182 209 369 209q119 0 184 -80q61 -71 61 -188zM673 743q0 78 -51 78q-118 0 -261 -227.5t-143 -415.5q0 -91 78 -91q153 0 270 217q107 204 107 439zM920 1127q7 -18 7 -32q0 -42 -46 -42
q-33 0 -59 32l-99 131l-305 -156q-21 -10 -35 -10q-47 0 -47 49q0 28 19 45l357 267q40 29 63 22q21 -5 33 -36zM910 1300q46 155 56 187q37 90 85 139t84 49q68 0 68 -75t-104 -176q-46 -44 -164 -134q-11 -5 -19 -2q-9 2 -6 12z" />
    <glyph glyph-name=".notdef.093" unicode="&#x1ed2;" horiz-adv-x="1708" 
d="M1674 1118q0 -79 -23 -140q17 -51 17 -106q0 -302 -156 -523q-130 -178 -340 -279q-175 -84 -324 -84q-217 0 -351 151q-131 145 -131 356q0 19 4 68q-231 -91 -231 -269q0 -103 60 -103q10 0 20 35.5t52 35.5q67 0 67 -83q0 -58 -48.5 -92t-107.5 -34q-79 0 -127 70
q-39 59 -39 133q0 159 111 275q93 97 275 168q91 279 360 483q285 213 601 213q123 0 210 -66q101 -76 101 -209zM1537 1128v15q0 70 -65 112q-58 36 -133 36q-177 0 -370 -159q-178 -148 -283 -357l167 29q70 157 219.5 257.5t314.5 106.5q91 4 150 -40zM1435 954
q-27 71 -93 71q-222 0 -343 -199q322 52 436 128zM1460 783q-184 -131 -533 -150q-6 -21 -6 -53q0 -83 44 -83q17 0 36.5 18t31.5 18q63 0 63 -88q0 -49 -44.5 -79t-97.5 -25q-80 10 -120 86q-36 64 -36 157v47q-97 0 -174 -9q-20 -72 -20 -141q0 -153 54 -257
q65 -125 190 -125q177 0 371 185q225 211 241 499zM1637 1597q7 -18 7 -32q0 -42 -46 -42q-33 0 -59 32l-99 131l-305 -156q-21 -10 -35 -10q-47 0 -47 49q0 28 19 45l357 267q40 29 63 22q21 -5 33 -36zM1808 1758q3 -10 -6 -12q-8 -3 -19 2q-118 90 -164 134
q-104 101 -104 176t68 75q36 0 84 -49t85 -139q10 -32 56 -187z" />
    <glyph glyph-name=".notdef.027" unicode="&#x1ed3;" horiz-adv-x="817" 
d="M855 652q0 -254 -166 -458t-382 -204q-254 0 -254 272q0 235 188 449q182 209 369 209q119 0 184 -80q61 -71 61 -188zM673 743q0 78 -51 78q-118 0 -261 -227.5t-143 -415.5q0 -91 78 -91q153 0 270 217q107 204 107 439zM920 1127q7 -18 7 -32q0 -42 -46 -42
q-33 0 -59 32l-99 131l-305 -156q-21 -10 -35 -10q-47 0 -47 49q0 28 19 45l357 267q40 29 63 22q21 -5 33 -36zM1091 1300q3 -10 -6 -12q-8 -3 -19 2q-118 90 -164 134q-104 101 -104 176t68 75q36 0 84 -49t85 -139q10 -32 56 -187z" />
    <glyph glyph-name=".notdef.091" unicode="&#x1ed4;" horiz-adv-x="1708" 
d="M1674 1118q0 -79 -23 -140q17 -51 17 -106q0 -302 -156 -523q-130 -178 -340 -279q-175 -84 -324 -84q-217 0 -351 151q-131 145 -131 356q0 19 4 68q-231 -91 -231 -269q0 -103 60 -103q10 0 20 35.5t52 35.5q67 0 67 -83q0 -58 -48.5 -92t-107.5 -34q-79 0 -127 70
q-39 59 -39 133q0 159 111 275q93 97 275 168q91 279 360 483q285 213 601 213q123 0 210 -66q101 -76 101 -209zM1537 1128v15q0 70 -65 112q-58 36 -133 36q-177 0 -370 -159q-178 -148 -283 -357l167 29q70 157 219.5 257.5t314.5 106.5q91 4 150 -40zM1435 954
q-27 71 -93 71q-222 0 -343 -199q322 52 436 128zM1460 783q-184 -131 -533 -150q-6 -21 -6 -53q0 -83 44 -83q17 0 36.5 18t31.5 18q63 0 63 -88q0 -49 -44.5 -79t-97.5 -25q-80 10 -120 86q-36 64 -36 157v47q-97 0 -174 -9q-20 -72 -20 -141q0 -153 54 -257
q65 -125 190 -125q177 0 371 185q225 211 241 499zM1637 1597q7 -18 7 -32q0 -42 -46 -42q-33 0 -59 32l-99 131l-305 -156q-21 -10 -35 -10q-47 0 -47 49q0 28 19 45l357 267q40 29 63 22q21 -5 33 -36zM1945 1977q-35 -64 -138.5 -108t-104.5 -122h-69q-13 70 64.5 136.5
t121.5 114.5q48 78 -57 84h-6q12 -18 -2 -58q-40 -80 -120 -80q-34 0 -46 29t7 63q31 63 97.5 101.5t132.5 38.5q86 0 125 -58.5t-5 -140.5z" />
    <glyph glyph-name=".notdef.025" unicode="&#x1ed5;" horiz-adv-x="817" 
d="M855 652q0 -254 -166 -458t-382 -204q-254 0 -254 272q0 235 188 449q182 209 369 209q119 0 184 -80q61 -71 61 -188zM673 743q0 78 -51 78q-118 0 -261 -227.5t-143 -415.5q0 -91 78 -91q153 0 270 217q107 204 107 439zM920 1127q7 -18 7 -32q0 -42 -46 -42
q-33 0 -59 32l-99 131l-305 -156q-21 -10 -35 -10q-47 0 -47 49q0 28 19 45l357 267q40 29 63 22q21 -5 33 -36zM1224 1519q-35 -64 -138.5 -108t-104.5 -122h-69q-13 70 64.5 136.5t121.5 114.5q48 78 -57 84h-6q12 -18 -2 -58q-40 -80 -120 -80q-34 0 -46 29t7 63
q31 63 97.5 101.5t132.5 38.5q86 0 125 -58.5t-5 -140.5z" />
    <glyph glyph-name=".notdef.090" unicode="&#x1ed6;" horiz-adv-x="1708" 
d="M1674 1118q0 -79 -23 -140q17 -51 17 -106q0 -302 -156 -523q-130 -178 -340 -279q-175 -84 -324 -84q-217 0 -351 151q-131 145 -131 356q0 19 4 68q-231 -91 -231 -269q0 -103 60 -103q10 0 20 35.5t52 35.5q67 0 67 -83q0 -58 -48.5 -92t-107.5 -34q-79 0 -127 70
q-39 59 -39 133q0 159 111 275q93 97 275 168q91 279 360 483q285 213 601 213q123 0 210 -66q101 -76 101 -209zM1537 1128v15q0 70 -65 112q-58 36 -133 36q-177 0 -370 -159q-178 -148 -283 -357l167 29q70 157 219.5 257.5t314.5 106.5q91 4 150 -40zM1435 954
q-27 71 -93 71q-222 0 -343 -199q322 52 436 128zM1460 783q-184 -131 -533 -150q-6 -21 -6 -53q0 -83 44 -83q17 0 36.5 18t31.5 18q63 0 63 -88q0 -49 -44.5 -79t-97.5 -25q-80 10 -120 86q-36 64 -36 157v47q-97 0 -174 -9q-20 -72 -20 -141q0 -153 54 -257
q65 -125 190 -125q177 0 371 185q225 211 241 499zM1637 1597q7 -18 7 -32q0 -42 -46 -42q-33 0 -59 32l-99 131l-305 -156q-21 -10 -35 -10q-47 0 -47 49q0 28 19 45l357 267q40 29 63 22q21 -5 33 -36zM1799 2148q-72 -175 -207 -190q-51 -5 -122.5 25t-120.5 27
q-36 -3 -88 -40q-25 -17 -41 -17q-34 0 -18 38q77 159 208 171q47 7 110 -25t115 -28q33 3 95 50q28 28 53 28q21 0 21 -18q0 -10 -5 -21z" />
    <glyph glyph-name=".notdef.024" unicode="&#x1ed7;" horiz-adv-x="817" 
d="M855 652q0 -254 -166 -458t-382 -204q-254 0 -254 272q0 235 188 449q182 209 369 209q119 0 184 -80q61 -71 61 -188zM673 743q0 78 -51 78q-118 0 -261 -227.5t-143 -415.5q0 -91 78 -91q153 0 270 217q107 204 107 439zM920 1127q7 -18 7 -32q0 -42 -46 -42
q-33 0 -59 32l-99 131l-305 -156q-21 -10 -35 -10q-47 0 -47 49q0 28 19 45l357 267q40 29 63 22q21 -5 33 -36zM1086 1687q-72 -175 -207 -190q-51 -5 -122.5 25t-120.5 27q-36 -3 -88 -40q-25 -17 -41 -17q-34 0 -18 38q77 159 208 171q47 7 110 -25t115 -28q33 3 95 50
q28 28 53 28q21 0 21 -18q0 -10 -5 -21z" />
    <glyph glyph-name=".notdef.089" unicode="&#x1ed8;" horiz-adv-x="1708" 
d="M1674 1118q0 -79 -23 -140q17 -51 17 -106q0 -302 -156 -523q-130 -178 -340 -279q-175 -84 -324 -84q-217 0 -351 151q-131 145 -131 356q0 19 4 68q-231 -91 -231 -269q0 -103 60 -103q10 0 20 35.5t52 35.5q67 0 67 -83q0 -58 -48.5 -92t-107.5 -34q-79 0 -127 70
q-39 59 -39 133q0 159 111 275q93 97 275 168q91 279 360 483q285 213 601 213q123 0 210 -66q101 -76 101 -209zM1537 1128v15q0 70 -65 112q-58 36 -133 36q-177 0 -370 -159q-178 -148 -283 -357l167 29q70 157 219.5 257.5t314.5 106.5q91 4 150 -40zM1435 954
q-27 71 -93 71q-222 0 -343 -199q322 52 436 128zM1460 783q-184 -131 -533 -150q-6 -21 -6 -53q0 -83 44 -83q17 0 36.5 18t31.5 18q63 0 63 -88q0 -49 -44.5 -79t-97.5 -25q-80 10 -120 86q-36 64 -36 157v47q-97 0 -174 -9q-20 -72 -20 -141q0 -153 54 -257
q65 -125 190 -125q177 0 371 185q225 211 241 499zM1637 1597q7 -18 7 -32q0 -42 -46 -42q-33 0 -59 32l-99 131l-305 -156q-21 -10 -35 -10q-47 0 -47 49q0 28 19 45l357 267q40 29 63 22q21 -5 33 -36zM898 -154q0 -54 -22 -93q-27 -45 -71 -45q-27 0 -44.5 22.5
t-17.5 49.5q0 53 29 94.5t66 41.5q60 0 60 -70z" />
    <glyph glyph-name=".notdef.023" unicode="&#x1ed9;" horiz-adv-x="817" 
d="M855 652q0 -254 -166 -458t-382 -204q-254 0 -254 272q0 235 188 449q182 209 369 209q119 0 184 -80q61 -71 61 -188zM673 743q0 78 -51 78q-118 0 -261 -227.5t-143 -415.5q0 -91 78 -91q153 0 270 217q107 204 107 439zM920 1127q7 -18 7 -32q0 -42 -46 -42
q-33 0 -59 32l-99 131l-305 -156q-21 -10 -35 -10q-47 0 -47 49q0 28 19 45l357 267q40 29 63 22q21 -5 33 -36zM284 -161q0 -54 -22 -93q-27 -45 -71 -45q-27 0 -44.5 22.5t-17.5 49.5q0 53 29 94.5t66 41.5q60 0 60 -70z" />
    <glyph glyph-name=".notdef.075" unicode="&#x1eda;" horiz-adv-x="1708" 
d="M1928 1323q-9 -59 -66 -155q-78 -115 -204 -167q-3 -12 -7 -23q17 -51 17 -106q0 -302 -156 -523q-130 -178 -340 -279q-175 -84 -324 -84q-217 0 -351 151q-131 145 -131 356q0 19 4 68q-231 -91 -231 -269q0 -103 60 -103q10 0 20 35.5t52 35.5q67 0 67 -83
q0 -58 -48.5 -92t-107.5 -34q-79 0 -127 70q-39 59 -39 133q0 159 111 275q93 97 275 168q91 279 360 483q285 213 601 213q123 0 210 -66q101 -76 101 -209q0 -31 -4 -59q69 32 100 87q-34 -2 -49 26t-9 66q12 68 58.5 121.5t95.5 53.5q78 0 62 -90zM1460 783
q-184 -131 -533 -150q-6 -21 -6 -53q0 -83 44 -83q17 0 36.5 18t31.5 18q63 0 63 -88q0 -49 -44.5 -79t-97.5 -25q-80 10 -120 86q-36 64 -36 157v47q-97 0 -174 -9q-20 -72 -20 -141q0 -153 54 -257q65 -125 190 -125q177 0 371 185q225 211 241 499zM1537 1128v15
q0 70 -65 112q-58 36 -133 36q-177 0 -370 -159q-178 -148 -283 -357l167 29q70 157 219.5 257.5t314.5 106.5q91 4 150 -40zM1261 1534q46 155 56 187q37 90 85 139t84 49q68 0 68 -75t-104 -176q-46 -44 -164 -134q-11 -5 -19 -2q-9 2 -6 12zM1435 954q-27 71 -93 71
q-222 0 -343 -199q322 52 436 128z" />
    <glyph glyph-name=".notdef.009" unicode="&#x1edb;" horiz-adv-x="811" 
d="M1005 909q-7 -48 -53 -126q-60 -88 -154 -131q0 -254 -165.5 -458t-380.5 -204q-254 0 -254 272q0 235 186 449q184 209 370 209q119 0 185 -80q48 -58 57 -146q56 26 81 71q-28 -2 -40 21t-7 54q9 55 47 98.5t78 43.5q63 0 50 -73zM618 743q0 78 -52 78
q-117 0 -260 -227.5t-143 -415.5q0 -91 78 -91q153 0 269 217q108 204 108 439zM608 1065q46 155 56 187q37 90 85 139t84 49q68 0 68 -75t-104 -176q-46 -44 -164 -134q-11 -5 -19 -2q-9 2 -6 12z" />
    <glyph glyph-name=".notdef.076" unicode="&#x1edc;" horiz-adv-x="1708" 
d="M1928 1323q-9 -59 -66 -155q-78 -115 -204 -167q-3 -12 -7 -23q17 -51 17 -106q0 -302 -156 -523q-130 -178 -340 -279q-175 -84 -324 -84q-217 0 -351 151q-131 145 -131 356q0 19 4 68q-231 -91 -231 -269q0 -103 60 -103q10 0 20 35.5t52 35.5q67 0 67 -83
q0 -58 -48.5 -92t-107.5 -34q-79 0 -127 70q-39 59 -39 133q0 159 111 275q93 97 275 168q91 279 360 483q285 213 601 213q123 0 210 -66q101 -76 101 -209q0 -31 -4 -59q69 32 100 87q-34 -2 -49 26t-9 66q12 68 58.5 121.5t95.5 53.5q78 0 62 -90zM1460 783
q-184 -131 -533 -150q-6 -21 -6 -53q0 -83 44 -83q17 0 36.5 18t31.5 18q63 0 63 -88q0 -49 -44.5 -79t-97.5 -25q-80 10 -120 86q-36 64 -36 157v47q-97 0 -174 -9q-20 -72 -20 -141q0 -153 54 -257q65 -125 190 -125q177 0 371 185q225 211 241 499zM1537 1128v15
q0 70 -65 112q-58 36 -133 36q-177 0 -370 -159q-178 -148 -283 -357l167 29q70 157 219.5 257.5t314.5 106.5q91 4 150 -40zM1386 1535q3 -10 -6 -12q-8 -3 -19 2q-118 90 -164 134q-104 101 -104 176t68 75q36 0 84 -49t85 -139q10 -32 56 -187zM1435 954q-27 71 -93 71
q-222 0 -343 -199q322 52 436 128z" />
    <glyph glyph-name=".notdef.010" unicode="&#x1edd;" horiz-adv-x="811" 
d="M1005 909q-7 -48 -53 -126q-60 -88 -154 -131q0 -254 -165.5 -458t-380.5 -204q-254 0 -254 272q0 235 186 449q184 209 370 209q119 0 185 -80q48 -58 57 -146q56 26 81 71q-28 -2 -40 21t-7 54q9 55 47 98.5t78 43.5q63 0 50 -73zM618 743q0 78 -52 78
q-117 0 -260 -227.5t-143 -415.5q0 -91 78 -91q153 0 269 217q108 204 108 439zM720 1065q3 -10 -6 -12q-8 -3 -19 2q-118 90 -164 134q-104 101 -104 176t68 75q36 0 84 -49t85 -139q10 -32 56 -187z" />
    <glyph glyph-name=".notdef.074" unicode="&#x1ede;" horiz-adv-x="1708" 
d="M1928 1323q-9 -59 -66 -155q-78 -115 -204 -167q-3 -12 -7 -23q17 -51 17 -106q0 -302 -156 -523q-130 -178 -340 -279q-175 -84 -324 -84q-217 0 -351 151q-131 145 -131 356q0 19 4 68q-231 -91 -231 -269q0 -103 60 -103q10 0 20 35.5t52 35.5q67 0 67 -83
q0 -58 -48.5 -92t-107.5 -34q-79 0 -127 70q-39 59 -39 133q0 159 111 275q93 97 275 168q91 279 360 483q285 213 601 213q123 0 210 -66q101 -76 101 -209q0 -31 -4 -59q69 32 100 87q-34 -2 -49 26t-9 66q12 68 58.5 121.5t95.5 53.5q78 0 62 -90zM1460 783
q-184 -131 -533 -150q-6 -21 -6 -53q0 -83 44 -83q17 0 36.5 18t31.5 18q63 0 63 -88q0 -49 -44.5 -79t-97.5 -25q-80 10 -120 86q-36 64 -36 157v47q-97 0 -174 -9q-20 -72 -20 -141q0 -153 54 -257q65 -125 190 -125q177 0 371 185q225 211 241 499zM1537 1128v15
q0 70 -65 112q-58 36 -133 36q-177 0 -370 -159q-178 -148 -283 -357l167 29q70 157 219.5 257.5t314.5 106.5q91 4 150 -40zM1678 1750q-35 -64 -138.5 -108t-104.5 -122h-69q-13 70 64.5 136.5t121.5 114.5q48 78 -57 84h-6q12 -18 -2 -58q-40 -80 -120 -80q-34 0 -46 29
t7 63q31 63 97.5 101.5t132.5 38.5q86 0 125 -58.5t-5 -140.5zM1435 954q-27 71 -93 71q-222 0 -343 -199q322 52 436 128z" />
    <glyph glyph-name=".notdef.008" unicode="&#x1edf;" horiz-adv-x="811" 
d="M1005 909q-7 -48 -53 -126q-60 -88 -154 -131q0 -254 -165.5 -458t-380.5 -204q-254 0 -254 272q0 235 186 449q184 209 370 209q119 0 185 -80q48 -58 57 -146q56 26 81 71q-28 -2 -40 21t-7 54q9 55 47 98.5t78 43.5q63 0 50 -73zM618 743q0 78 -52 78
q-117 0 -260 -227.5t-143 -415.5q0 -91 78 -91q153 0 269 217q108 204 108 439zM896 1280q-35 -64 -138.5 -108t-104.5 -122h-69q-13 70 64.5 136.5t121.5 114.5q48 78 -57 84h-6q12 -18 -2 -58q-40 -80 -120 -80q-34 0 -46 29t7 63q31 63 97.5 101.5t132.5 38.5
q86 0 125 -58.5t-5 -140.5z" />
    <glyph glyph-name=".notdef.073" unicode="&#x1ee0;" horiz-adv-x="1708" 
d="M1928 1323q-9 -59 -66 -155q-78 -115 -204 -167q-3 -12 -7 -23q17 -51 17 -106q0 -302 -156 -523q-130 -178 -340 -279q-175 -84 -324 -84q-217 0 -351 151q-131 145 -131 356q0 19 4 68q-231 -91 -231 -269q0 -103 60 -103q10 0 20 35.5t52 35.5q67 0 67 -83
q0 -58 -48.5 -92t-107.5 -34q-79 0 -127 70q-39 59 -39 133q0 159 111 275q93 97 275 168q91 279 360 483q285 213 601 213q123 0 210 -66q101 -76 101 -209q0 -31 -4 -59q69 32 100 87q-34 -2 -49 26t-9 66q12 68 58.5 121.5t95.5 53.5q78 0 62 -90zM1460 783
q-184 -131 -533 -150q-6 -21 -6 -53q0 -83 44 -83q17 0 36.5 18t31.5 18q63 0 63 -88q0 -49 -44.5 -79t-97.5 -25q-80 10 -120 86q-36 64 -36 157v47q-97 0 -174 -9q-20 -72 -20 -141q0 -153 54 -257q65 -125 190 -125q177 0 371 185q225 211 241 499zM1537 1128v15
q0 70 -65 112q-58 36 -133 36q-177 0 -370 -159q-178 -148 -283 -357l167 29q70 157 219.5 257.5t314.5 106.5q91 4 150 -40zM1678 1714q-72 -175 -207 -190q-51 -5 -122.5 25t-120.5 27q-36 -3 -88 -40q-25 -17 -41 -17q-34 0 -18 38q77 159 208 171q47 7 110 -25t115 -28
q33 3 95 50q28 28 53 28q21 0 21 -18q0 -10 -5 -21zM1435 954q-27 71 -93 71q-222 0 -343 -199q322 52 436 128z" />
    <glyph glyph-name=".notdef.007" unicode="&#x1ee1;" horiz-adv-x="811" 
d="M1005 909q-7 -48 -53 -126q-60 -88 -154 -131q0 -254 -165.5 -458t-380.5 -204q-254 0 -254 272q0 235 186 449q184 209 370 209q119 0 185 -80q48 -58 57 -146q56 26 81 71q-28 -2 -40 21t-7 54q9 55 47 98.5t78 43.5q63 0 50 -73zM618 743q0 78 -52 78
q-117 0 -260 -227.5t-143 -415.5q0 -91 78 -91q153 0 269 217q108 204 108 439zM964 1245q-72 -175 -207 -190q-51 -5 -122.5 25t-120.5 27q-36 -3 -88 -40q-25 -17 -41 -17q-34 0 -18 38q77 159 208 171q47 7 110 -25t115 -28q33 3 95 50q28 28 53 28q21 0 21 -18
q0 -10 -5 -21z" />
    <glyph glyph-name=".notdef.072" unicode="&#x1ee2;" horiz-adv-x="1708" 
d="M1928 1323q-9 -59 -66 -155q-78 -115 -204 -167q-3 -12 -7 -23q17 -51 17 -106q0 -302 -156 -523q-130 -178 -340 -279q-175 -84 -324 -84q-217 0 -351 151q-131 145 -131 356q0 19 4 68q-231 -91 -231 -269q0 -103 60 -103q10 0 20 35.5t52 35.5q67 0 67 -83
q0 -58 -48.5 -92t-107.5 -34q-79 0 -127 70q-39 59 -39 133q0 159 111 275q93 97 275 168q91 279 360 483q285 213 601 213q123 0 210 -66q101 -76 101 -209q0 -31 -4 -59q69 32 100 87q-34 -2 -49 26t-9 66q12 68 58.5 121.5t95.5 53.5q78 0 62 -90zM1460 783
q-184 -131 -533 -150q-6 -21 -6 -53q0 -83 44 -83q17 0 36.5 18t31.5 18q63 0 63 -88q0 -49 -44.5 -79t-97.5 -25q-80 10 -120 86q-36 64 -36 157v47q-97 0 -174 -9q-20 -72 -20 -141q0 -153 54 -257q65 -125 190 -125q177 0 371 185q225 211 241 499zM1537 1128v15
q0 70 -65 112q-58 36 -133 36q-177 0 -370 -159q-178 -148 -283 -357l167 29q70 157 219.5 257.5t314.5 106.5q91 4 150 -40zM1435 954q-27 71 -93 71q-222 0 -343 -199q322 52 436 128zM898 -154q0 -54 -22 -93q-27 -45 -71 -45q-27 0 -44.5 22.5t-17.5 49.5q0 53 29 94.5
t66 41.5q60 0 60 -70z" />
    <glyph glyph-name=".notdef.006" unicode="&#x1ee3;" horiz-adv-x="811" 
d="M1005 909q-7 -48 -53 -126q-60 -88 -154 -131q0 -254 -165.5 -458t-380.5 -204q-254 0 -254 272q0 235 186 449q184 209 370 209q119 0 185 -80q48 -58 57 -146q56 26 81 71q-28 -2 -40 21t-7 54q9 55 47 98.5t78 43.5q63 0 50 -73zM618 743q0 78 -52 78
q-117 0 -260 -227.5t-143 -415.5q0 -91 78 -91q153 0 269 217q108 204 108 439zM284 -161q0 -54 -22 -93q-27 -45 -71 -45q-27 0 -44.5 22.5t-17.5 49.5q0 53 29 94.5t66 41.5q60 0 60 -70z" />
    <glyph glyph-name=".notdef.084" unicode="&#x1ee4;" horiz-adv-x="1778" 
d="M1947 1240q-82 -256 -260 -674q-150 -352 -150 -384q0 -39 4 -51q6 -21 36 -21q54 0 86 41q14 20 37 80q16 42 34 42q36 0 36 -68q0 -78 -75.5 -150t-166.5 -72q-154 0 -154 164q0 54 112 308q165 377 222 531q6 13 -6 15q-9 2 -15 -12q-91 -210 -182 -419
q-123 -266 -231 -403q-146 -179 -296 -179q-104 0 -171.5 52.5t-67.5 141.5q0 120 109 311q100 159 201 320q105 174 103 258q-7 248 -268 248q-276 0 -499 -265q-214 -254 -214 -527q0 -91 47 -163q55 -78 131 -78q120 0 203 121q78 112 78 245q0 127 -86 150q-15 4 -34 4
q-65 0 -110.5 -59t-37.5 -135q2 -10 51.5 -28t49.5 -78q0 -73 -72 -73q-55 0 -91 60q-32 51 -32 119q0 141 95.5 244t206.5 103q207 0 207 -299q0 -177 -125 -321q-133 -152 -320 -152q-137 0 -229.5 108.5t-92.5 252.5q0 342 263 609t607 267q204 0 339 -109
q142 -117 142 -306q0 -151 -100 -330q-19 -37 -180 -281q-99 -148 -99 -223q0 -63 43 -63q145 0 362 415q118 226 298 669q21 55 55 55h91q19 0 44.5 12.5t39.5 12.5q38 0 32 -36zM1122 -154q0 -54 -22 -93q-27 -45 -71 -45q-27 0 -44.5 22.5t-17.5 49.5q0 53 29 94.5
t66 41.5q60 0 60 -70z" />
    <glyph glyph-name=".notdef.018" unicode="&#x1ee5;" horiz-adv-x="910" 
d="M974 912q0 -66 -144 -370.5t-144 -380.5t37 -76q39 0 82 62.5t57 62.5q34 0 34 -41q0 -46 -66 -116q-73 -77 -140 -75q-70 3 -109 43t-39 102q0 95 86 294q111 254 127 312q4 12 -6 14q-8 0 -12 -10q-193 -465 -330 -636q-98 -119 -200 -119q-76 0 -120 68
q-39 62 -39 145q0 125 122 321.5t122 306.5q0 32 -26 32q-48 0 -92.5 -62.5t-60.5 -62.5q-32 0 -32 43q0 55 62 119q69 71 151 71q151 0 151 -232q0 -96 -68 -228q-17 -38 -123 -213q-67 -111 -67 -155q0 -63 44 -63q76 0 258 334q173 317 173 387q0 15 -40 22.5t-40 32.5
q0 60 129 60q115 0 174 19t61 19q28 0 28 -30zM407 -152q0 -54 -22 -93q-27 -45 -71 -45q-27 0 -44.5 22.5t-17.5 49.5q0 53 29 94.5t66 41.5q60 0 60 -70z" />
    <glyph glyph-name=".notdef.086" unicode="&#x1ee6;" horiz-adv-x="1778" 
d="M1947 1240q-82 -256 -260 -674q-150 -352 -150 -384q0 -39 4 -51q6 -21 36 -21q54 0 86 41q14 20 37 80q16 42 34 42q36 0 36 -68q0 -78 -75.5 -150t-166.5 -72q-154 0 -154 164q0 54 112 308q165 377 222 531q6 13 -6 15q-9 2 -15 -12q-91 -210 -182 -419
q-123 -266 -231 -403q-146 -179 -296 -179q-104 0 -171.5 52.5t-67.5 141.5q0 120 109 311q100 159 201 320q105 174 103 258q-7 248 -268 248q-276 0 -499 -265q-214 -254 -214 -527q0 -91 47 -163q55 -78 131 -78q120 0 203 121q78 112 78 245q0 127 -86 150q-15 4 -34 4
q-65 0 -110.5 -59t-37.5 -135q2 -10 51.5 -28t49.5 -78q0 -73 -72 -73q-55 0 -91 60q-32 51 -32 119q0 141 95.5 244t206.5 103q207 0 207 -299q0 -177 -125 -321q-133 -152 -320 -152q-137 0 -229.5 108.5t-92.5 252.5q0 342 263 609t607 267q204 0 339 -109
q142 -117 142 -306q0 -151 -100 -330q-19 -37 -180 -281q-99 -148 -99 -223q0 -63 43 -63q145 0 362 415q118 226 298 669q21 55 55 55h91q19 0 44.5 12.5t39.5 12.5q38 0 32 -36zM1849 1750q-35 -64 -138.5 -108t-104.5 -122h-69q-13 70 64.5 136.5t121.5 114.5
q48 78 -57 84h-6q12 -18 -2 -58q-40 -80 -120 -80q-34 0 -46 29t7 63q31 63 97.5 101.5t132.5 38.5q86 0 125 -58.5t-5 -140.5z" />
    <glyph glyph-name=".notdef.020" unicode="&#x1ee7;" horiz-adv-x="910" 
d="M974 912q0 -66 -144 -370.5t-144 -380.5t37 -76q39 0 82 62.5t57 62.5q34 0 34 -41q0 -46 -66 -116q-73 -77 -140 -75q-70 3 -109 43t-39 102q0 95 86 294q111 254 127 312q4 12 -6 14q-8 0 -12 -10q-193 -465 -330 -636q-98 -119 -200 -119q-76 0 -120 68
q-39 62 -39 145q0 125 122 321.5t122 306.5q0 32 -26 32q-48 0 -92.5 -62.5t-60.5 -62.5q-32 0 -32 43q0 55 62 119q69 71 151 71q151 0 151 -232q0 -96 -68 -228q-17 -38 -123 -213q-67 -111 -67 -155q0 -63 44 -63q76 0 258 334q173 317 173 387q0 15 -40 22.5t-40 32.5
q0 60 129 60q115 0 174 19t61 19q28 0 28 -30zM896 1280q-35 -64 -138.5 -108t-104.5 -122h-69q-13 70 64.5 136.5t121.5 114.5q48 78 -57 84h-6q12 -18 -2 -58q-40 -80 -120 -80q-34 0 -46 29t7 63q31 63 97.5 101.5t132.5 38.5q86 0 125 -58.5t-5 -140.5z" />
    <glyph glyph-name=".notdef.081" unicode="&#x1ee8;" horiz-adv-x="1860" 
d="M2197 1323q-9 -59 -66 -155q-100 -147 -277 -191q-69 -181 -167 -411q-150 -352 -150 -384q0 -39 4 -51q6 -21 36 -21q54 0 86 41q14 20 37 80q16 42 34 42q36 0 36 -68q0 -78 -75.5 -150t-166.5 -72q-154 0 -154 164q0 54 112 308q165 377 222 531q6 13 -6 15
q-9 2 -15 -12q-91 -210 -182 -419q-123 -266 -231 -403q-146 -179 -296 -179q-104 0 -171.5 52.5t-67.5 141.5q0 120 109 311q100 159 201 320q105 174 103 258q-7 248 -268 248q-276 0 -499 -265q-214 -254 -214 -527q0 -91 47 -163q55 -78 131 -78q120 0 203 121
q78 112 78 245q0 127 -86 150q-15 4 -34 4q-65 0 -110.5 -59t-37.5 -135q2 -10 51.5 -28t49.5 -78q0 -73 -72 -73q-55 0 -91 60q-32 51 -32 119q0 141 95.5 244t206.5 103q207 0 207 -299q0 -177 -125 -321q-133 -152 -320 -152q-137 0 -229.5 108.5t-92.5 252.5
q0 342 263 609t607 267q204 0 339 -109q142 -117 142 -306q0 -151 -100 -330q-19 -37 -180 -281q-99 -148 -99 -223q0 -63 43 -63q145 0 362 415q118 226 298 669q21 55 55 55h91q19 0 44.5 12.5t39.5 12.5q38 0 32 -36q-29 -91 -71 -203q119 31 163 109q-34 -2 -49 26
t-9 66q12 68 58.5 121.5t95.5 53.5q78 0 62 -90zM1492 1534q46 155 56 187q37 90 85 139t84 49q68 0 68 -75t-104 -176q-46 -44 -164 -134q-11 -5 -19 -2q-9 2 -6 12z" />
    <glyph glyph-name=".notdef.015" unicode="&#x1ee9;" horiz-adv-x="969" 
d="M1171 909q-7 -48 -53 -126q-85 -124 -248 -156q-19 -40 -40 -86q-144 -304 -144 -380t37 -76q39 0 82 62.5t57 62.5q34 0 34 -41q0 -46 -66 -116q-73 -77 -140 -75q-70 3 -109 43t-39 102q0 95 86 294q111 254 127 312q4 12 -6 14q-8 0 -12 -10q-193 -465 -330 -636
q-98 -119 -200 -119q-76 0 -120 68q-39 62 -39 145q0 125 122 321.5t122 306.5q0 32 -26 32q-48 0 -92.5 -62.5t-60.5 -62.5q-32 0 -32 43q0 55 62 119q69 71 151 71q151 0 151 -232q0 -96 -68 -228q-17 -38 -123 -213q-67 -111 -67 -155q0 -63 44 -63q76 0 258 334
q173 317 173 387q0 15 -40 22.5t-40 32.5q0 60 129 60q115 0 174 19t61 19q28 0 28 -30q0 -50 -82 -236q114 23 151 89q-28 -2 -40 21t-7 54q9 55 47 98.5t78 43.5q63 0 50 -73zM600 1065q46 155 56 187q37 90 85 139t84 49q68 0 68 -75t-104 -176q-46 -44 -164 -134
q-11 -5 -19 -2q-9 2 -6 12z" />
    <glyph glyph-name=".notdef.082" unicode="&#x1eea;" horiz-adv-x="1860" 
d="M2197 1323q-9 -59 -66 -155q-100 -147 -277 -191q-69 -181 -167 -411q-150 -352 -150 -384q0 -39 4 -51q6 -21 36 -21q54 0 86 41q14 20 37 80q16 42 34 42q36 0 36 -68q0 -78 -75.5 -150t-166.5 -72q-154 0 -154 164q0 54 112 308q165 377 222 531q6 13 -6 15
q-9 2 -15 -12q-91 -210 -182 -419q-123 -266 -231 -403q-146 -179 -296 -179q-104 0 -171.5 52.5t-67.5 141.5q0 120 109 311q100 159 201 320q105 174 103 258q-7 248 -268 248q-276 0 -499 -265q-214 -254 -214 -527q0 -91 47 -163q55 -78 131 -78q120 0 203 121
q78 112 78 245q0 127 -86 150q-15 4 -34 4q-65 0 -110.5 -59t-37.5 -135q2 -10 51.5 -28t49.5 -78q0 -73 -72 -73q-55 0 -91 60q-32 51 -32 119q0 141 95.5 244t206.5 103q207 0 207 -299q0 -177 -125 -321q-133 -152 -320 -152q-137 0 -229.5 108.5t-92.5 252.5
q0 342 263 609t607 267q204 0 339 -109q142 -117 142 -306q0 -151 -100 -330q-19 -37 -180 -281q-99 -148 -99 -223q0 -63 43 -63q145 0 362 415q118 226 298 669q21 55 55 55h91q19 0 44.5 12.5t39.5 12.5q38 0 32 -36q-29 -91 -71 -203q119 31 163 109q-34 -2 -49 26
t-9 66q12 68 58.5 121.5t95.5 53.5q78 0 62 -90zM1560 1535q3 -10 -6 -12q-8 -3 -19 2q-118 90 -164 134q-104 101 -104 176t68 75q36 0 84 -49t85 -139q10 -32 56 -187z" />
    <glyph glyph-name=".notdef.016" unicode="&#x1eeb;" horiz-adv-x="969" 
d="M1171 909q-7 -48 -53 -126q-85 -124 -248 -156q-19 -40 -40 -86q-144 -304 -144 -380t37 -76q39 0 82 62.5t57 62.5q34 0 34 -41q0 -46 -66 -116q-73 -77 -140 -75q-70 3 -109 43t-39 102q0 95 86 294q111 254 127 312q4 12 -6 14q-8 0 -12 -10q-193 -465 -330 -636
q-98 -119 -200 -119q-76 0 -120 68q-39 62 -39 145q0 125 122 321.5t122 306.5q0 32 -26 32q-48 0 -92.5 -62.5t-60.5 -62.5q-32 0 -32 43q0 55 62 119q69 71 151 71q151 0 151 -232q0 -96 -68 -228q-17 -38 -123 -213q-67 -111 -67 -155q0 -63 44 -63q76 0 258 334
q173 317 173 387q0 15 -40 22.5t-40 32.5q0 60 129 60q115 0 174 19t61 19q28 0 28 -30q0 -50 -82 -236q114 23 151 89q-28 -2 -40 21t-7 54q9 55 47 98.5t78 43.5q63 0 50 -73zM635 1065q3 -10 -6 -12q-8 -3 -19 2q-118 90 -164 134q-104 101 -104 176t68 75q36 0 84 -49
t85 -139q10 -32 56 -187z" />
    <glyph glyph-name=".notdef.080" unicode="&#x1eec;" horiz-adv-x="1860" 
d="M2197 1323q-9 -59 -66 -155q-100 -147 -277 -191q-69 -181 -167 -411q-150 -352 -150 -384q0 -39 4 -51q6 -21 36 -21q54 0 86 41q14 20 37 80q16 42 34 42q36 0 36 -68q0 -78 -75.5 -150t-166.5 -72q-154 0 -154 164q0 54 112 308q165 377 222 531q6 13 -6 15
q-9 2 -15 -12q-91 -210 -182 -419q-123 -266 -231 -403q-146 -179 -296 -179q-104 0 -171.5 52.5t-67.5 141.5q0 120 109 311q100 159 201 320q105 174 103 258q-7 248 -268 248q-276 0 -499 -265q-214 -254 -214 -527q0 -91 47 -163q55 -78 131 -78q120 0 203 121
q78 112 78 245q0 127 -86 150q-15 4 -34 4q-65 0 -110.5 -59t-37.5 -135q2 -10 51.5 -28t49.5 -78q0 -73 -72 -73q-55 0 -91 60q-32 51 -32 119q0 141 95.5 244t206.5 103q207 0 207 -299q0 -177 -125 -321q-133 -152 -320 -152q-137 0 -229.5 108.5t-92.5 252.5
q0 342 263 609t607 267q204 0 339 -109q142 -117 142 -306q0 -151 -100 -330q-19 -37 -180 -281q-99 -148 -99 -223q0 -63 43 -63q145 0 362 415q118 226 298 669q21 55 55 55h91q19 0 44.5 12.5t39.5 12.5q38 0 32 -36q-29 -91 -71 -203q119 31 163 109q-34 -2 -49 26
t-9 66q12 68 58.5 121.5t95.5 53.5q78 0 62 -90zM1849 1750q-35 -64 -138.5 -108t-104.5 -122h-69q-13 70 64.5 136.5t121.5 114.5q48 78 -57 84h-6q12 -18 -2 -58q-40 -80 -120 -80q-34 0 -46 29t7 63q31 63 97.5 101.5t132.5 38.5q86 0 125 -58.5t-5 -140.5z" />
    <glyph glyph-name=".notdef.014" unicode="&#x1eed;" horiz-adv-x="969" 
d="M1171 909q-7 -48 -53 -126q-85 -124 -248 -156q-19 -40 -40 -86q-144 -304 -144 -380t37 -76q39 0 82 62.5t57 62.5q34 0 34 -41q0 -46 -66 -116q-73 -77 -140 -75q-70 3 -109 43t-39 102q0 95 86 294q111 254 127 312q4 12 -6 14q-8 0 -12 -10q-193 -465 -330 -636
q-98 -119 -200 -119q-76 0 -120 68q-39 62 -39 145q0 125 122 321.5t122 306.5q0 32 -26 32q-48 0 -92.5 -62.5t-60.5 -62.5q-32 0 -32 43q0 55 62 119q69 71 151 71q151 0 151 -232q0 -96 -68 -228q-17 -38 -123 -213q-67 -111 -67 -155q0 -63 44 -63q76 0 258 334
q173 317 173 387q0 15 -40 22.5t-40 32.5q0 60 129 60q115 0 174 19t61 19q28 0 28 -30q0 -50 -82 -236q114 23 151 89q-28 -2 -40 21t-7 54q9 55 47 98.5t78 43.5q63 0 50 -73zM896 1280q-35 -64 -138.5 -108t-104.5 -122h-69q-13 70 64.5 136.5t121.5 114.5q48 78 -57 84
h-6q12 -18 -2 -58q-40 -80 -120 -80q-34 0 -46 29t7 63q31 63 97.5 101.5t132.5 38.5q86 0 125 -58.5t-5 -140.5z" />
    <glyph glyph-name=".notdef.079" unicode="&#x1eee;" horiz-adv-x="1860" 
d="M2197 1323q-9 -59 -66 -155q-100 -147 -277 -191q-69 -181 -167 -411q-150 -352 -150 -384q0 -39 4 -51q6 -21 36 -21q54 0 86 41q14 20 37 80q16 42 34 42q36 0 36 -68q0 -78 -75.5 -150t-166.5 -72q-154 0 -154 164q0 54 112 308q165 377 222 531q6 13 -6 15
q-9 2 -15 -12q-91 -210 -182 -419q-123 -266 -231 -403q-146 -179 -296 -179q-104 0 -171.5 52.5t-67.5 141.5q0 120 109 311q100 159 201 320q105 174 103 258q-7 248 -268 248q-276 0 -499 -265q-214 -254 -214 -527q0 -91 47 -163q55 -78 131 -78q120 0 203 121
q78 112 78 245q0 127 -86 150q-15 4 -34 4q-65 0 -110.5 -59t-37.5 -135q2 -10 51.5 -28t49.5 -78q0 -73 -72 -73q-55 0 -91 60q-32 51 -32 119q0 141 95.5 244t206.5 103q207 0 207 -299q0 -177 -125 -321q-133 -152 -320 -152q-137 0 -229.5 108.5t-92.5 252.5
q0 342 263 609t607 267q204 0 339 -109q142 -117 142 -306q0 -151 -100 -330q-19 -37 -180 -281q-99 -148 -99 -223q0 -63 43 -63q145 0 362 415q118 226 298 669q21 55 55 55h91q19 0 44.5 12.5t39.5 12.5q38 0 32 -36q-29 -91 -71 -203q119 31 163 109q-34 -2 -49 26
t-9 66q12 68 58.5 121.5t95.5 53.5q78 0 62 -90zM1918 1714q-72 -175 -207 -190q-51 -5 -122.5 25t-120.5 27q-36 -3 -88 -40q-25 -17 -41 -17q-34 0 -18 38q77 159 208 171q47 7 110 -25t115 -28q33 3 95 50q28 28 53 28q21 0 21 -18q0 -10 -5 -21z" />
    <glyph glyph-name=".notdef.013" unicode="&#x1eef;" horiz-adv-x="969" 
d="M1171 909q-7 -48 -53 -126q-85 -124 -248 -156q-19 -40 -40 -86q-144 -304 -144 -380t37 -76q39 0 82 62.5t57 62.5q34 0 34 -41q0 -46 -66 -116q-73 -77 -140 -75q-70 3 -109 43t-39 102q0 95 86 294q111 254 127 312q4 12 -6 14q-8 0 -12 -10q-193 -465 -330 -636
q-98 -119 -200 -119q-76 0 -120 68q-39 62 -39 145q0 125 122 321.5t122 306.5q0 32 -26 32q-48 0 -92.5 -62.5t-60.5 -62.5q-32 0 -32 43q0 55 62 119q69 71 151 71q151 0 151 -232q0 -96 -68 -228q-17 -38 -123 -213q-67 -111 -67 -155q0 -63 44 -63q76 0 258 334
q173 317 173 387q0 15 -40 22.5t-40 32.5q0 60 129 60q115 0 174 19t61 19q28 0 28 -30q0 -50 -82 -236q114 23 151 89q-28 -2 -40 21t-7 54q9 55 47 98.5t78 43.5q63 0 50 -73zM995 1245q-72 -175 -207 -190q-51 -5 -122.5 25t-120.5 27q-36 -3 -88 -40q-25 -17 -41 -17
q-34 0 -18 38q77 159 208 171q47 7 110 -25t115 -28q33 3 95 50q28 28 53 28q21 0 21 -18q0 -10 -5 -21z" />
    <glyph glyph-name=".notdef.078" unicode="&#x1ef0;" horiz-adv-x="1860" 
d="M2197 1323q-9 -59 -66 -155q-100 -147 -277 -191q-69 -181 -167 -411q-150 -352 -150 -384q0 -39 4 -51q6 -21 36 -21q54 0 86 41q14 20 37 80q16 42 34 42q36 0 36 -68q0 -78 -75.5 -150t-166.5 -72q-154 0 -154 164q0 54 112 308q165 377 222 531q6 13 -6 15
q-9 2 -15 -12q-91 -210 -182 -419q-123 -266 -231 -403q-146 -179 -296 -179q-104 0 -171.5 52.5t-67.5 141.5q0 120 109 311q100 159 201 320q105 174 103 258q-7 248 -268 248q-276 0 -499 -265q-214 -254 -214 -527q0 -91 47 -163q55 -78 131 -78q120 0 203 121
q78 112 78 245q0 127 -86 150q-15 4 -34 4q-65 0 -110.5 -59t-37.5 -135q2 -10 51.5 -28t49.5 -78q0 -73 -72 -73q-55 0 -91 60q-32 51 -32 119q0 141 95.5 244t206.5 103q207 0 207 -299q0 -177 -125 -321q-133 -152 -320 -152q-137 0 -229.5 108.5t-92.5 252.5
q0 342 263 609t607 267q204 0 339 -109q142 -117 142 -306q0 -151 -100 -330q-19 -37 -180 -281q-99 -148 -99 -223q0 -63 43 -63q145 0 362 415q118 226 298 669q21 55 55 55h91q19 0 44.5 12.5t39.5 12.5q38 0 32 -36q-29 -91 -71 -203q119 31 163 109q-34 -2 -49 26
t-9 66q12 68 58.5 121.5t95.5 53.5q78 0 62 -90zM1122 -154q0 -54 -22 -93q-27 -45 -71 -45q-27 0 -44.5 22.5t-17.5 49.5q0 53 29 94.5t66 41.5q60 0 60 -70z" />
    <glyph glyph-name=".notdef.012" unicode="&#x1ef1;" horiz-adv-x="969" 
d="M1171 909q-7 -48 -53 -126q-85 -124 -248 -156q-19 -40 -40 -86q-144 -304 -144 -380t37 -76q39 0 82 62.5t57 62.5q34 0 34 -41q0 -46 -66 -116q-73 -77 -140 -75q-70 3 -109 43t-39 102q0 95 86 294q111 254 127 312q4 12 -6 14q-8 0 -12 -10q-193 -465 -330 -636
q-98 -119 -200 -119q-76 0 -120 68q-39 62 -39 145q0 125 122 321.5t122 306.5q0 32 -26 32q-48 0 -92.5 -62.5t-60.5 -62.5q-32 0 -32 43q0 55 62 119q69 71 151 71q151 0 151 -232q0 -96 -68 -228q-17 -38 -123 -213q-67 -111 -67 -155q0 -63 44 -63q76 0 258 334
q173 317 173 387q0 15 -40 22.5t-40 32.5q0 60 129 60q115 0 174 19t61 19q28 0 28 -30q0 -50 -82 -236q114 23 151 89q-28 -2 -40 21t-7 54q9 55 47 98.5t78 43.5q63 0 50 -73zM407 -152q0 -54 -22 -93q-27 -45 -71 -45q-27 0 -44.5 22.5t-17.5 49.5q0 53 29 94.5t66 41.5
q60 0 60 -70z" />
    <glyph glyph-name=".notdef.071" unicode="&#x1ef2;" horiz-adv-x="1856" 
d="M2078 1184q0 -8 -63 -64q-78 -68 -129 -168q-80 -154 -114 -391q-53 -384 -231 -633q-248 -349 -699 -349q-116 0 -209 55q-100 64 -100 163q0 48 22.5 85.5t64.5 37.5q32 0 57.5 -20.5t25.5 -50.5q0 -42 -32 -60t-32 -28q0 -79 159 -79q303 0 527 346q121 182 248 544
q68 190 161 346q97 165 187 227q16 9 4 15q-12 4 -30 -6q-129 -73 -256 -308q-43 -79 -181 -393q-103 -231 -182 -328q-116 -137 -267 -137q-97 0 -147 73q-43 64 -43 165q0 42 7 83q27 148 122 311q79 123 158.5 247t77.5 204q-8 248 -268 248q-277 0 -499 -265
q-214 -254 -214 -527q0 -91 47 -163q54 -78 131 -78q120 0 203 121q78 112 78 245q0 127 -86 150q-15 4 -34 4q-65 0 -111 -59t-37 -135q2 -10 51.5 -28t49.5 -78q0 -73 -72 -73q-55 0 -91 60q-32 51 -32 119q0 141 95.5 244t206.5 103q207 0 207 -299q0 -177 -125 -321
q-134 -152 -320 -152q-146 0 -241 103q-101 110 -101 282q0 338 271.5 595t618.5 257q204 0 339 -109q142 -117 142 -306q0 -151 -100 -330q-19 -37 -180 -281q-100 -148 -100 -223q0 -63 44 -63q93 0 256 277q127 237 253 473q83 156 180 258q123 131 229 131
q103 0 103 -67zM1695 1534q3 -10 -6 -12q-8 -3 -19 2q-118 90 -164 134q-104 101 -104 176t68 75q36 0 84 -49t85 -139q10 -32 56 -187z" />
    <glyph glyph-name=".notdef.005" unicode="&#x1ef3;" horiz-adv-x="848" 
d="M940 857q0 -6 -34 -42q-42 -48 -76 -112q-49 -95 -93 -250q-58 -201 -83 -271q-199 -523 -571 -523q-97 0 -168 39q-86 48 -86 131q0 42 29 72.5t70 30.5q34 0 59 -22.5t25 -56.5q0 -67 -56 -88q52 -31 124 -31q75 0 181.5 91.5t167.5 212.5q38 74 169 423
q94 250 194 352q4 4 4 8q0 5 -7 7q-6 2 -10 -2q-104 -93 -199 -324q-143 -343 -151 -359q-91 -169 -209 -169q-75 0 -115.5 57.5t-40.5 139.5q0 125 114 315.5t114 300.5q0 32 -26 32q-48 0 -92.5 -62.5t-60.5 -62.5q-32 0 -32 43q0 55 62 120q69 70 151 70q83 0 125 -72
q36 -63 36 -152q0 -125 -117.5 -327.5t-117.5 -244.5q0 -63 36 -63q51 0 110 123q63 145 127 290q95 209 204 349q72 93 167 93q30 0 53 -18.5t23 -47.5zM660 1065q3 -10 -6 -12q-8 -3 -19 2q-118 90 -164 134q-104 101 -104 176t68 75q36 0 84 -49t85 -139q10 -32 56 -187z
" />
    <glyph glyph-name=".notdef.067" unicode="&#x1ef4;" horiz-adv-x="1856" 
d="M2078 1184q0 -8 -63 -64q-78 -68 -129 -168q-80 -154 -114 -391q-53 -384 -231 -633q-248 -349 -699 -349q-116 0 -209 55q-100 64 -100 163q0 48 22.5 85.5t64.5 37.5q32 0 57.5 -20.5t25.5 -50.5q0 -42 -32 -60t-32 -28q0 -79 159 -79q303 0 527 346q121 182 248 544
q68 190 161 346q97 165 187 227q16 9 4 15q-12 4 -30 -6q-129 -73 -256 -308q-43 -79 -181 -393q-103 -231 -182 -328q-116 -137 -267 -137q-97 0 -147 73q-43 64 -43 165q0 42 7 83q27 148 122 311q79 123 158.5 247t77.5 204q-8 248 -268 248q-277 0 -499 -265
q-214 -254 -214 -527q0 -91 47 -163q54 -78 131 -78q120 0 203 121q78 112 78 245q0 127 -86 150q-15 4 -34 4q-65 0 -111 -59t-37 -135q2 -10 51.5 -28t49.5 -78q0 -73 -72 -73q-55 0 -91 60q-32 51 -32 119q0 141 95.5 244t206.5 103q207 0 207 -299q0 -177 -125 -321
q-134 -152 -320 -152q-146 0 -241 103q-101 110 -101 282q0 338 271.5 595t618.5 257q204 0 339 -109q142 -117 142 -306q0 -151 -100 -330q-19 -37 -180 -281q-100 -148 -100 -223q0 -63 44 -63q93 0 256 277q127 237 253 473q83 156 180 258q123 131 229 131
q103 0 103 -67zM1810 -118q0 -54 -22 -93q-27 -45 -71 -45q-27 0 -44.5 22.5t-17.5 49.5q0 53 29 94.5t66 41.5q60 0 60 -70z" />
    <glyph glyph-name=".notdef.001" unicode="&#x1ef5;" horiz-adv-x="848" 
d="M940 857q0 -6 -34 -42q-42 -48 -76 -112q-49 -95 -93 -250q-58 -201 -83 -271q-199 -523 -571 -523q-97 0 -168 39q-86 48 -86 131q0 42 29 72.5t70 30.5q34 0 59 -22.5t25 -56.5q0 -67 -56 -88q52 -31 124 -31q75 0 181.5 91.5t167.5 212.5q38 74 169 423
q94 250 194 352q4 4 4 8q0 5 -7 7q-6 2 -10 -2q-104 -93 -199 -324q-143 -343 -151 -359q-91 -169 -209 -169q-75 0 -115.5 57.5t-40.5 139.5q0 125 114 315.5t114 300.5q0 32 -26 32q-48 0 -92.5 -62.5t-60.5 -62.5q-32 0 -32 43q0 55 62 120q69 70 151 70q83 0 125 -72
q36 -63 36 -152q0 -125 -117.5 -327.5t-117.5 -244.5q0 -63 36 -63q51 0 110 123q63 145 127 290q95 209 204 349q72 93 167 93q30 0 53 -18.5t23 -47.5zM685 -154q0 -54 -22 -93q-27 -45 -71 -45q-27 0 -44.5 22.5t-17.5 49.5q0 53 29 94.5t66 41.5q60 0 60 -70z" />
    <glyph glyph-name=".notdef.069" unicode="&#x1ef6;" horiz-adv-x="1856" 
d="M2078 1184q0 -8 -63 -64q-78 -68 -129 -168q-80 -154 -114 -391q-53 -384 -231 -633q-248 -349 -699 -349q-116 0 -209 55q-100 64 -100 163q0 48 22.5 85.5t64.5 37.5q32 0 57.5 -20.5t25.5 -50.5q0 -42 -32 -60t-32 -28q0 -79 159 -79q303 0 527 346q121 182 248 544
q68 190 161 346q97 165 187 227q16 9 4 15q-12 4 -30 -6q-129 -73 -256 -308q-43 -79 -181 -393q-103 -231 -182 -328q-116 -137 -267 -137q-97 0 -147 73q-43 64 -43 165q0 42 7 83q27 148 122 311q79 123 158.5 247t77.5 204q-8 248 -268 248q-277 0 -499 -265
q-214 -254 -214 -527q0 -91 47 -163q54 -78 131 -78q120 0 203 121q78 112 78 245q0 127 -86 150q-15 4 -34 4q-65 0 -111 -59t-37 -135q2 -10 51.5 -28t49.5 -78q0 -73 -72 -73q-55 0 -91 60q-32 51 -32 119q0 141 95.5 244t206.5 103q207 0 207 -299q0 -177 -125 -321
q-134 -152 -320 -152q-146 0 -241 103q-101 110 -101 282q0 338 271.5 595t618.5 257q204 0 339 -109q142 -117 142 -306q0 -151 -100 -330q-19 -37 -180 -281q-100 -148 -100 -223q0 -63 44 -63q93 0 256 277q127 237 253 473q83 156 180 258q123 131 229 131
q103 0 103 -67zM1921 1750q-35 -64 -138.5 -108t-104.5 -122h-69q-13 70 64.5 136.5t121.5 114.5q48 78 -57 84h-6q12 -18 -2 -58q-40 -80 -120 -80q-34 0 -46 29t7 63q31 63 97.5 101.5t132.5 38.5q86 0 125 -58.5t-5 -140.5z" />
    <glyph glyph-name=".notdef.003" unicode="&#x1ef7;" horiz-adv-x="848" 
d="M940 857q0 -6 -34 -42q-42 -48 -76 -112q-49 -95 -93 -250q-58 -201 -83 -271q-199 -523 -571 -523q-97 0 -168 39q-86 48 -86 131q0 42 29 72.5t70 30.5q34 0 59 -22.5t25 -56.5q0 -67 -56 -88q52 -31 124 -31q75 0 181.5 91.5t167.5 212.5q38 74 169 423
q94 250 194 352q4 4 4 8q0 5 -7 7q-6 2 -10 -2q-104 -93 -199 -324q-143 -343 -151 -359q-91 -169 -209 -169q-75 0 -115.5 57.5t-40.5 139.5q0 125 114 315.5t114 300.5q0 32 -26 32q-48 0 -92.5 -62.5t-60.5 -62.5q-32 0 -32 43q0 55 62 120q69 70 151 70q83 0 125 -72
q36 -63 36 -152q0 -125 -117.5 -327.5t-117.5 -244.5q0 -63 36 -63q51 0 110 123q63 145 127 290q95 209 204 349q72 93 167 93q30 0 53 -18.5t23 -47.5zM896 1280q-35 -64 -138.5 -108t-104.5 -122h-69q-13 70 64.5 136.5t121.5 114.5q48 78 -57 84h-6q12 -18 -2 -58
q-40 -80 -120 -80q-34 0 -46 29t7 63q31 63 97.5 101.5t132.5 38.5q86 0 125 -58.5t-5 -140.5z" />
    <glyph glyph-name=".notdef.068" unicode="&#x1ef8;" horiz-adv-x="1856" 
d="M2078 1184q0 -8 -63 -64q-78 -68 -129 -168q-80 -154 -114 -391q-53 -384 -231 -633q-248 -349 -699 -349q-116 0 -209 55q-100 64 -100 163q0 48 22.5 85.5t64.5 37.5q32 0 57.5 -20.5t25.5 -50.5q0 -42 -32 -60t-32 -28q0 -79 159 -79q303 0 527 346q121 182 248 544
q68 190 161 346q97 165 187 227q16 9 4 15q-12 4 -30 -6q-129 -73 -256 -308q-43 -79 -181 -393q-103 -231 -182 -328q-116 -137 -267 -137q-97 0 -147 73q-43 64 -43 165q0 42 7 83q27 148 122 311q79 123 158.5 247t77.5 204q-8 248 -268 248q-277 0 -499 -265
q-214 -254 -214 -527q0 -91 47 -163q54 -78 131 -78q120 0 203 121q78 112 78 245q0 127 -86 150q-15 4 -34 4q-65 0 -111 -59t-37 -135q2 -10 51.5 -28t49.5 -78q0 -73 -72 -73q-55 0 -91 60q-32 51 -32 119q0 141 95.5 244t206.5 103q207 0 207 -299q0 -177 -125 -321
q-134 -152 -320 -152q-146 0 -241 103q-101 110 -101 282q0 338 271.5 595t618.5 257q204 0 339 -109q142 -117 142 -306q0 -151 -100 -330q-19 -37 -180 -281q-100 -148 -100 -223q0 -63 44 -63q93 0 256 277q127 237 253 473q83 156 180 258q123 131 229 131
q103 0 103 -67zM1971 1714q-72 -175 -207 -190q-51 -5 -122.5 25t-120.5 27q-36 -3 -88 -40q-25 -17 -41 -17q-34 0 -18 38q77 159 208 171q47 7 110 -25t115 -28q33 3 95 50q28 28 53 28q21 0 21 -18q0 -10 -5 -21z" />
    <glyph glyph-name=".notdef.002" unicode="&#x1ef9;" horiz-adv-x="848" 
d="M940 857q0 -6 -34 -42q-42 -48 -76 -112q-49 -95 -93 -250q-58 -201 -83 -271q-199 -523 -571 -523q-97 0 -168 39q-86 48 -86 131q0 42 29 72.5t70 30.5q34 0 59 -22.5t25 -56.5q0 -67 -56 -88q52 -31 124 -31q75 0 181.5 91.5t167.5 212.5q38 74 169 423
q94 250 194 352q4 4 4 8q0 5 -7 7q-6 2 -10 -2q-104 -93 -199 -324q-143 -343 -151 -359q-91 -169 -209 -169q-75 0 -115.5 57.5t-40.5 139.5q0 125 114 315.5t114 300.5q0 32 -26 32q-48 0 -92.5 -62.5t-60.5 -62.5q-32 0 -32 43q0 55 62 120q69 70 151 70q83 0 125 -72
q36 -63 36 -152q0 -125 -117.5 -327.5t-117.5 -244.5q0 -63 36 -63q51 0 110 123q63 145 127 290q95 209 204 349q72 93 167 93q30 0 53 -18.5t23 -47.5zM950 1247q-72 -175 -207 -190q-51 -5 -122.5 25t-120.5 27q-36 -3 -88 -40q-25 -17 -41 -17q-34 0 -18 38
q77 159 208 171q47 7 110 -25t115 -28q33 3 95 50q28 28 53 28q21 0 21 -18q0 -10 -5 -21z" />
    <glyph glyph-name="quoteleft" unicode="&#x2018;" horiz-adv-x="449" 
d="M370 1126q0 -67 -37 -120.5t-87 -53.5q-77 0 -77 89q0 60 28 131q42 107 133 179q9 8 21 8q28 0 28 -28q0 -16 -13 -28q-34 -27 -70 -86q34 2 54 -25.5t20 -65.5z" />
    <glyph glyph-name="quoteright" unicode="&#x2019;" horiz-adv-x="449" 
d="M400 1268q0 -60 -28 -132q-42 -107 -133 -179q-10 -7 -23 -7q-27 0 -27 28q0 15 14 27q34 28 70 85q-34 -2 -54 26.5t-20 65.5q0 67 37 121t86 54q78 0 78 -89z" />
    <glyph glyph-name="quotedblleft" unicode="&#x201c;" horiz-adv-x="673" 
d="M620 1126q0 -67 -37 -120.5t-86 -53.5q-78 0 -78 89q0 60 28 131q42 107 133 179q10 8 22 8q28 0 28 -28q0 -16 -14 -28q-34 -27 -70 -86q34 2 54 -25.5t20 -65.5zM370 1126q0 -67 -37 -120.5t-87 -53.5q-77 0 -77 89q0 60 28 131q42 107 133 179q9 8 21 8q28 0 28 -28
q0 -16 -13 -28q-34 -27 -70 -86q34 2 54 -25.5t20 -65.5z" />
    <glyph glyph-name="quotedblright" unicode="&#x201d;" horiz-adv-x="751" 
d="M692 1268q0 -60 -29 -132q-41 -107 -132 -179q-10 -7 -23 -7q-27 0 -27 28q0 15 14 27q34 28 70 85q-34 -2 -54 26.5t-20 65.5q0 67 37 121t86 54q78 0 78 -89zM400 1268q0 -60 -28 -132q-42 -107 -133 -179q-10 -7 -23 -7q-27 0 -27 28q0 15 14 27q34 28 70 85
q-34 -2 -54 26.5t-20 65.5q0 67 37 121t86 54q78 0 78 -89z" />
    <glyph glyph-name="ellipsis" unicode="&#x2026;" horiz-adv-x="1234" 
d="M1132 155q0 -70 -29 -121q-34 -58 -92 -58q-33 0 -56 29t-23 65q0 67 36.5 120.5t85.5 53.5q78 0 78 -89zM733 155q0 -70 -30 -121q-34 -58 -91 -58q-34 0 -56.5 29t-22.5 65q0 67 36.5 120.5t86.5 53.5q77 0 77 -89zM330 155q0 -70 -30 -121q-34 -58 -91 -58
q-34 0 -57 29t-23 65q0 67 37 120.5t86 53.5q78 0 78 -89z" />
    <glyph glyph-name=".notdef.101" unicode="&#x2122;" horiz-adv-x="1079" 
d="M1035 1122q0 -28 -63.5 -155t-63.5 -152q0 -19 10 -19q20 0 46.5 35t32.5 35q16 0 16 -18q0 -22 -34.5 -59.5t-68.5 -37.5q-74 0 -74 83q0 54 61.5 177t61.5 134q0 19 -11 19q-56 0 -211 -370q-8 -17 -10 -19q-6 -11 -20 -13l-51 -2q-21 0 -33.5 -9.5t-26.5 -9.5
q-12 0 -12 23q0 40 81.5 204t81.5 177q0 19 -14 19q-71 0 -208 -370q-4 -13 -30 -32l-42 -2q-20 0 -34 -9.5t-25 -9.5q-9 0 -13 8t0 15q138 239 138 394q0 4 -20 8t-20 20q0 29 63 29q57 0 76 8.5l19 8.5q15 0 15 -13q0 -9 -66 -152q-74 -163 -97 -235q4 -2 10 -2
q99 241 157 320q45 62 101 62q66 0 66 -84q0 -10 -50 -123q-56 -129 -72 -179q0 -5 6 -5q2 0 44 100q51 122 95 190q66 101 123 101q66 0 66 -90zM472 1217l-19 -49h-95q-30 -69 -117 -256q-23 -38 -23 -72q0 -31 19 -31t39 28.5t38 28.5q16 0 16 -24q0 -31 -39 -62t-84 -31
q-78 0 -78 99q0 42 24 94l103 226h-81l20 49h83l36 74q29 60 50 60q11 2 34 8q7 0 16 4t15 4q12 0 12 -23q0 -3 -32 -68l-28 -59h91z" />
    <glyph glyph-name="NULL" horiz-adv-x="0" 
 />
  </font>
</defs>
</svg>
